MulatAddis-Regular.ufo
<glyph name="quotedbl" format="2">
  <advance width="356"/>
  <unicode hex="0022"/>
  <note>
quotedbl
</note>
  <outline>
    <contour>
      <point x="241" y="424" type="curve"/>
      <point x="253" y="424" type="line"/>
      <point x="261" y="492"/>
      <point x="270" y="550.333"/>
      <point x="278" y="593" type="curve" smooth="yes"/>
      <point x="284.343" y="626.829"/>
      <point x="292" y="664.946"/>
      <point x="292" y="676" type="curve" smooth="yes"/>
      <point x="292" y="704"/>
      <point x="267" y="726"/>
      <point x="247" y="726" type="curve" smooth="yes"/>
      <point x="227" y="726"/>
      <point x="203" y="704.333"/>
      <point x="203" y="675" type="curve" smooth="yes"/>
      <point x="203" y="662.333"/>
      <point x="207.5" y="634.5"/>
      <point x="216.5" y="591.5" type="curve" smooth="yes"/>
      <point x="225.5" y="548.5"/>
      <point x="233.667" y="492.667"/>
    </contour>
    <contour>
      <point x="102" y="424" type="curve"/>
      <point x="114" y="424" type="line"/>
      <point x="122" y="492"/>
      <point x="131" y="550.333"/>
      <point x="139" y="593" type="curve" smooth="yes"/>
      <point x="145.343" y="626.829"/>
      <point x="153" y="664.946"/>
      <point x="153" y="676" type="curve" smooth="yes"/>
      <point x="153" y="704"/>
      <point x="128" y="726"/>
      <point x="108" y="726" type="curve" smooth="yes"/>
      <point x="88" y="726"/>
      <point x="64" y="704.333"/>
      <point x="64" y="675" type="curve" smooth="yes"/>
      <point x="64" y="662.333"/>
      <point x="68.5" y="634.5"/>
      <point x="77.5" y="591.5" type="curve" smooth="yes"/>
      <point x="86.5" y="548.5"/>
      <point x="94.667" y="492.667"/>
    </contour>
  </outline>
</glyph>
<glyph name="dollar" format="2">
  <advance width="482"/>
  <unicode hex="0024"/>
  <note>
dollar
</note>
  <outline>
    <contour>
      <point x="200" y="514" type="curve" smooth="yes"/>
      <point x="223" y="520"/>
      <point x="261" y="520"/>
      <point x="284" y="514" type="curve" smooth="yes"/>
      <point x="323" y="504"/>
      <point x="338" y="468.667"/>
      <point x="338" y="430" type="curve" smooth="yes"/>
      <point x="338" y="415.333"/>
      <point x="336" y="406.667"/>
      <point x="332" y="396" type="curve"/>
      <point x="337.333" y="376"/>
      <point x="353.333" y="361"/>
      <point x="376" y="361" type="curve" smooth="yes"/>
      <point x="404" y="361"/>
      <point x="425" y="385"/>
      <point x="425" y="413" type="curve" smooth="yes"/>
      <point x="425" y="478.333"/>
      <point x="364" y="520"/>
      <point x="284" y="530" type="curve" smooth="yes"/>
      <point x="259" y="533"/>
      <point x="224" y="534"/>
      <point x="199" y="530" type="curve" smooth="yes"/>
      <point x="117" y="517"/>
      <point x="53" y="464.81"/>
      <point x="53" y="380" type="curve" smooth="yes"/>
      <point x="53" y="300"/>
      <point x="107" y="261"/>
      <point x="177.5" y="240.5" type="curve" smooth="yes"/>
      <point x="267" y="214" type="line" smooth="yes"/>
      <point x="327" y="196"/>
      <point x="359" y="168"/>
      <point x="359" y="116" type="curve" smooth="yes"/>
      <point x="359" y="68"/>
      <point x="334" y="27"/>
      <point x="284" y="14" type="curve" smooth="yes"/>
      <point x="253" y="6"/>
      <point x="224" y="7"/>
      <point x="200" y="11" type="curve" smooth="yes"/>
      <point x="147" y="21"/>
      <point x="132" y="58"/>
      <point x="132" y="98" type="curve" smooth="yes"/>
      <point x="132" y="112.667"/>
      <point x="134" y="121.333"/>
      <point x="138" y="132" type="curve"/>
      <point x="132.667" y="152"/>
      <point x="114.667" y="167"/>
      <point x="92" y="167" type="curve" smooth="yes"/>
      <point x="65.333" y="167"/>
      <point x="42" y="143"/>
      <point x="42" y="115" type="curve" smooth="yes"/>
      <point x="42" y="47"/>
      <point x="104" y="3.667"/>
      <point x="199" y="-3" type="curve"/>
      <point x="242" y="-6"/>
      <point x="258" y="-5"/>
      <point x="284" y="-2" type="curve"/>
      <point x="376" y="10"/>
      <point x="438" y="69"/>
      <point x="438" y="145" type="curve" smooth="yes"/>
      <point x="438" y="213"/>
      <point x="395" y="262"/>
      <point x="323" y="284" type="curve" smooth="yes"/>
      <point x="200" y="321" type="line" smooth="yes"/>
      <point x="156" y="334"/>
      <point x="127" y="366.333"/>
      <point x="127" y="417" type="curve" smooth="yes"/>
      <point x="127" y="467.667"/>
      <point x="154" y="502"/>
    </contour>
    <contour>
      <point x="233" y="-91" type="line"/>
      <point x="273" y="-91" type="line"/>
      <point x="273" y="610" type="line"/>
      <point x="233" y="610" type="line"/>
    </contour>
  </outline>
</glyph>
<glyph name="percent" format="2">
  <advance width="647"/>
  <unicode hex="0025"/>
  <note>
percent
</note>
  <outline>
    <contour>
      <point x="125" y="7" type="line"/>
      <point x="550" y="624" type="line"/>
      <point x="526" y="640" type="line"/>
      <point x="101" y="22" type="line"/>
    </contour>
    <contour>
      <point x="480" y="-2" type="curve" smooth="yes"/>
      <point x="549.363" y="-2"/>
      <point x="607" y="52.496"/>
      <point x="607" y="132" type="curve" smooth="yes"/>
      <point x="607" y="211.607"/>
      <point x="548.099" y="264"/>
      <point x="481" y="264" type="curve" smooth="yes"/>
      <point x="406.981" y="264"/>
      <point x="349" y="204.949"/>
      <point x="349" y="134" type="curve" smooth="yes"/>
      <point x="349" y="43.073"/>
      <point x="414.239" y="-2"/>
    </contour>
    <contour>
      <point x="480" y="23" type="curve" smooth="yes"/>
      <point x="424.061" y="23"/>
      <point x="384" y="73.564"/>
      <point x="384" y="129" type="curve" smooth="yes"/>
      <point x="384" y="185.509"/>
      <point x="423.46" y="237"/>
      <point x="479" y="237" type="curve" smooth="yes"/>
      <point x="535.652" y="237"/>
      <point x="573" y="185.509"/>
      <point x="573" y="129" type="curve" smooth="yes"/>
      <point x="573" y="73.15"/>
      <point x="536.304" y="23"/>
    </contour>
    <contour>
      <point x="181" y="390" type="curve" smooth="yes"/>
      <point x="249.931" y="390"/>
      <point x="308" y="448.545"/>
      <point x="308" y="526" type="curve" smooth="yes"/>
      <point x="308" y="605.607"/>
      <point x="249.099" y="658"/>
      <point x="182" y="658" type="curve" smooth="yes"/>
      <point x="107.981" y="658"/>
      <point x="50" y="598.949"/>
      <point x="50" y="528" type="curve" smooth="yes"/>
      <point x="50" y="439.316"/>
      <point x="115.899" y="390"/>
    </contour>
    <contour>
      <point x="181" y="417" type="curve" smooth="yes"/>
      <point x="125.061" y="417"/>
      <point x="85" y="467.564"/>
      <point x="85" y="523" type="curve" smooth="yes"/>
      <point x="85" y="579.509"/>
      <point x="124.46" y="631"/>
      <point x="180" y="631" type="curve" smooth="yes"/>
      <point x="236.652" y="631"/>
      <point x="274" y="579.509"/>
      <point x="274" y="523" type="curve" smooth="yes"/>
      <point x="274" y="467.15"/>
      <point x="237.304" y="417"/>
    </contour>
  </outline>
</glyph>
<glyph name="ampersand" format="2">
  <advance width="854"/>
  <unicode hex="0026"/>
  <note>
ampersand
</note>
  <outline>
    <contour>
      <point x="676" y="-13" type="curve" smooth="yes"/>
      <point x="764.827" y="-13"/>
      <point x="849.55" y="65.858"/>
      <point x="872" y="130" type="curve"/>
      <point x="863" y="134" type="line"/>
      <point x="842.664" y="99.139"/>
      <point x="795.082" y="54"/>
      <point x="747" y="54" type="curve" smooth="yes"/>
      <point x="695" y="54"/>
      <point x="663.667" y="79"/>
      <point x="629" y="115" type="curve" smooth="yes"/>
      <point x="611" y="133.667"/>
      <point x="596" y="150.833"/>
      <point x="584" y="166.5" type="curve" smooth="yes"/>
      <point x="572" y="182.167"/>
      <point x="559" y="194"/>
      <point x="550" y="206" type="curve"/>
      <point x="593" y="255"/>
      <point x="659.888" y="342.778"/>
      <point x="701.5" y="385.5" type="curve" smooth="yes"/>
      <point x="751.5" y="436.833"/>
      <point x="805.667" y="474.667"/>
      <point x="875" y="484" type="curve"/>
      <point x="875" y="496" type="line"/>
      <point x="526" y="488" type="line"/>
      <point x="526" y="476" type="line"/>
      <point x="590.248" y="473.207"/>
      <point x="656" y="471.758"/>
      <point x="656" y="414" type="curve" smooth="yes"/>
      <point x="656" y="375.481"/>
      <point x="589" y="282"/>
      <point x="539" y="218" type="curve"/>
      <point x="526" y="231"/>
      <point x="384" y="403"/>
      <point x="343" y="450" type="curve"/>
      <point x="382.261" y="473.557"/>
      <point x="456" y="526.59"/>
      <point x="456" y="605" type="curve" smooth="yes"/>
      <point x="456" y="686.634"/>
      <point x="384.863" y="732"/>
      <point x="310" y="732" type="curve" smooth="yes"/>
      <point x="226.129" y="732"/>
      <point x="138" y="668.967"/>
      <point x="138" y="583" type="curve" smooth="yes"/>
      <point x="138" y="497.229"/>
      <point x="183.288" y="464.426"/>
      <point x="243" y="402" type="curve"/>
      <point x="146.499" y="353.75"/>
      <point x="47" y="280.881"/>
      <point x="47" y="170" type="curve" smooth="yes"/>
      <point x="47" y="65.804"/>
      <point x="124.776" y="-8"/>
      <point x="244" y="-8" type="curve" smooth="yes"/>
      <point x="347.086" y="-8"/>
      <point x="442" y="66"/>
      <point x="485" y="128" type="curve"/>
      <point x="532" y="53"/>
      <point x="590.75" y="-13"/>
    </contour>
    <contour>
      <point x="293" y="62" type="curve" smooth="yes"/>
      <point x="209.781" y="62"/>
      <point x="152" y="128.046"/>
      <point x="152" y="210" type="curve" smooth="yes"/>
      <point x="152" y="287.07"/>
      <point x="204.663" y="352.37"/>
      <point x="254" y="393" type="curve"/>
      <point x="325" y="319"/>
      <point x="398" y="233"/>
      <point x="472" y="139" type="curve"/>
      <point x="415.735" y="88.093"/>
      <point x="373.261" y="62"/>
    </contour>
    <contour>
      <point x="334" y="458" type="curve"/>
      <point x="298" y="490"/>
      <point x="273.667" y="509"/>
      <point x="251" y="541" type="curve" smooth="yes"/>
      <point x="231" y="569"/>
      <point x="224" y="587.333"/>
      <point x="224" y="630" type="curve" smooth="yes"/>
      <point x="224" y="666.421"/>
      <point x="247.627" y="710"/>
      <point x="292" y="710" type="curve" smooth="yes"/>
      <point x="346.87" y="710"/>
      <point x="383" y="645.724"/>
      <point x="383" y="585" type="curve" smooth="yes"/>
      <point x="383" y="529"/>
      <point x="368.667" y="494"/>
    </contour>
  </outline>
</glyph>
<glyph name="quotesingle" format="2">
  <advance width="222"/>
  <unicode hex="0027"/>
  <note>
quotesingle
</note>
  <outline>
    <contour>
      <point x="104" y="424" type="curve"/>
      <point x="116" y="424" type="line"/>
      <point x="124" y="492"/>
      <point x="133" y="550.333"/>
      <point x="141" y="593" type="curve" smooth="yes"/>
      <point x="147.343" y="626.829"/>
      <point x="155" y="664.946"/>
      <point x="155" y="676" type="curve" smooth="yes"/>
      <point x="155" y="704"/>
      <point x="130" y="726"/>
      <point x="110" y="726" type="curve" smooth="yes"/>
      <point x="90" y="726"/>
      <point x="66" y="704.333"/>
      <point x="66" y="675" type="curve" smooth="yes"/>
      <point x="66" y="662.333"/>
      <point x="70.5" y="634.5"/>
      <point x="79.5" y="591.5" type="curve" smooth="yes"/>
      <point x="88.5" y="548.5"/>
      <point x="96.667" y="492.667"/>
    </contour>
  </outline>
</glyph>
<glyph name="parenleft" format="2">
  <advance width="313"/>
  <unicode hex="0028"/>
  <note>
parenleft
</note>
  <outline>
    <contour>
      <point x="280" y="-141" type="curve"/>
      <point x="293" y="-128" type="line"/>
      <point x="239.667" y="-90.667"/>
      <point x="200" y="-39"/>
      <point x="158" y="30" type="curve" smooth="yes"/>
      <point x="116" y="98"/>
      <point x="88" y="187"/>
      <point x="88" y="295" type="curve" smooth="yes"/>
      <point x="88" y="402"/>
      <point x="114" y="486"/>
      <point x="155" y="555" type="curve" smooth="yes"/>
      <point x="195" y="623"/>
      <point x="237" y="676.667"/>
      <point x="293" y="718" type="curve"/>
      <point x="279" y="731" type="line"/>
      <point x="217.667" y="685.667"/>
      <point x="157.333" y="632.5"/>
      <point x="112" y="562.5" type="curve" smooth="yes"/>
      <point x="66.667" y="492.5"/>
      <point x="21" y="407"/>
      <point x="21" y="295" type="curve" smooth="yes"/>
      <point x="21" y="179"/>
      <point x="68.5" y="91.167"/>
      <point x="114.5" y="22.5" type="curve" smooth="yes"/>
      <point x="160.5" y="-46.167"/>
      <point x="222.667" y="-98.333"/>
    </contour>
  </outline>
</glyph>
<glyph name="parenright" format="2">
  <advance width="313"/>
  <unicode hex="0029"/>
  <note>
parenright
</note>
  <outline>
    <contour>
      <point x="34" y="-141" type="line"/>
      <point x="91" y="-98"/>
      <point x="154" y="-46"/>
      <point x="200" y="23" type="curve" smooth="yes"/>
      <point x="246" y="91"/>
      <point x="293" y="179"/>
      <point x="293" y="295" type="curve" smooth="yes"/>
      <point x="293" y="407"/>
      <point x="247" y="493"/>
      <point x="202" y="563" type="curve" smooth="yes"/>
      <point x="157" y="633"/>
      <point x="96" y="686"/>
      <point x="35" y="731" type="curve"/>
      <point x="21" y="718" type="line"/>
      <point x="77" y="677"/>
      <point x="119" y="623"/>
      <point x="159" y="555" type="curve" smooth="yes"/>
      <point x="200" y="486"/>
      <point x="226" y="402"/>
      <point x="226" y="295" type="curve" smooth="yes"/>
      <point x="226" y="187"/>
      <point x="198" y="98"/>
      <point x="156" y="30" type="curve" smooth="yes"/>
      <point x="114" y="-39"/>
      <point x="74" y="-91"/>
      <point x="21" y="-128" type="curve"/>
    </contour>
  </outline>
</glyph>
<glyph name="asterisk" format="2">
  <advance width="388"/>
  <unicode hex="002A"/>
  <note>
asterisk
</note>
  <outline>
    <contour>
      <point x="189" y="378" type="curve"/>
      <point x="197" y="378" type="line"/>
      <point x="209" y="403.333"/>
      <point x="215" y="423"/>
      <point x="215" y="451" type="curve" smooth="yes"/>
      <point x="215" y="465.667"/>
      <point x="212.833" y="479.5"/>
      <point x="208.5" y="492.5" type="curve" smooth="yes"/>
      <point x="204.167" y="505.5"/>
      <point x="200.333" y="520"/>
      <point x="197" y="536" type="curve"/>
      <point x="207" y="541" type="line"/>
      <point x="219" y="530.333"/>
      <point x="230.167" y="520.167"/>
      <point x="240.5" y="510.5" type="curve" smooth="yes"/>
      <point x="250.833" y="500.833"/>
      <point x="262.333" y="492.333"/>
      <point x="275" y="485" type="curve"/>
      <point x="297.667" y="470.333"/>
      <point x="316" y="465.333"/>
      <point x="344" y="464" type="curve"/>
      <point x="348" y="470" type="line"/>
      <point x="323.738" y="518.525"/>
      <point x="283.866" y="526.331"/>
      <point x="213" y="547" type="curve"/>
      <point x="213" y="560" type="line"/>
      <point x="228.333" y="565.333"/>
      <point x="242.167" y="569.333"/>
      <point x="254.5" y="572" type="curve" smooth="yes"/>
      <point x="266.833" y="574.667"/>
      <point x="280.333" y="580.333"/>
      <point x="295" y="589" type="curve" smooth="yes"/>
      <point x="321.667" y="605"/>
      <point x="333.333" y="615"/>
      <point x="348" y="639" type="curve"/>
      <point x="344" y="646" type="line"/>
      <point x="318.253" y="646"/>
      <point x="300.773" y="638.058"/>
      <point x="275" y="624" type="curve" smooth="yes"/>
      <point x="247.527" y="607.974"/>
      <point x="233.361" y="589.654"/>
      <point x="209" y="568" type="curve"/>
      <point x="198" y="574" type="line"/>
      <point x="201.333" y="590"/>
      <point x="205" y="604.667"/>
      <point x="209" y="618" type="curve" smooth="yes"/>
      <point x="213" y="631.333"/>
      <point x="215" y="645"/>
      <point x="215" y="659" type="curve" smooth="yes"/>
      <point x="215" y="687"/>
      <point x="209" y="705.667"/>
      <point x="197" y="731" type="curve"/>
      <point x="189" y="731" type="line"/>
      <point x="177" y="705.667"/>
      <point x="172" y="687"/>
      <point x="172" y="659" type="curve" smooth="yes"/>
      <point x="172" y="643"/>
      <point x="174" y="628.667"/>
      <point x="178" y="616" type="curve" smooth="yes"/>
      <point x="182" y="603.333"/>
      <point x="185.667" y="589.333"/>
      <point x="189" y="574" type="curve"/>
      <point x="179" y="568" type="line"/>
      <point x="154.406" y="587.675"/>
      <point x="141.774" y="606.293"/>
      <point x="113" y="624" type="curve" smooth="yes"/>
      <point x="89" y="638.667"/>
      <point x="72.333" y="644.667"/>
      <point x="43" y="646" type="curve"/>
      <point x="40" y="639" type="line"/>
      <point x="54.667" y="615"/>
      <point x="68" y="603.667"/>
      <point x="92" y="589" type="curve" smooth="yes"/>
      <point x="104.667" y="581"/>
      <point x="117.833" y="575.5"/>
      <point x="131.5" y="572.5" type="curve" smooth="yes"/>
      <point x="145.167" y="569.5"/>
      <point x="159.667" y="565.333"/>
      <point x="175" y="560" type="curve"/>
      <point x="175" y="547" type="line"/>
      <point x="159" y="542.333"/>
      <point x="144.833" y="538.833"/>
      <point x="132.5" y="536.5" type="curve" smooth="yes"/>
      <point x="120.167" y="534.167"/>
      <point x="106.667" y="528.667"/>
      <point x="92" y="520" type="curve" smooth="yes"/>
      <point x="68" y="506.667"/>
      <point x="55" y="496.333"/>
      <point x="39" y="471" type="curve"/>
      <point x="43" y="465" type="line"/>
      <point x="72.333" y="466.333"/>
      <point x="90.333" y="470.333"/>
      <point x="113" y="485" type="curve"/>
      <point x="125.667" y="492.333"/>
      <point x="136.667" y="500.833"/>
      <point x="146" y="510.5" type="curve" smooth="yes"/>
      <point x="155.333" y="520.167"/>
      <point x="166.667" y="530"/>
      <point x="180" y="540" type="curve"/>
      <point x="189" y="536" type="line"/>
      <point x="185.667" y="519.333"/>
      <point x="182" y="505.167"/>
      <point x="178" y="493.5" type="curve" smooth="yes"/>
      <point x="174" y="481.833"/>
      <point x="172" y="467.667"/>
      <point x="172" y="451" type="curve" smooth="yes"/>
      <point x="172" y="423"/>
      <point x="177" y="403.333"/>
    </contour>
  </outline>
</glyph>
<glyph name="hyphen" format="2">
  <advance width="256"/>
  <unicode hex="002D"/>
  <note>
hyphen
</note>
  <outline>
    <contour>
      <point x="12" y="225" type="line"/>
      <point x="243" y="225" type="line"/>
      <point x="243" y="295" type="line"/>
      <point x="12" y="295" type="line"/>
    </contour>
  </outline>
</glyph>
<glyph name="slash" format="2">
  <advance width="311"/>
  <unicode hex="002F"/>
  <note>
slash
</note>
  <outline>
    <contour>
      <point x="-7" y="-143" type="line"/>
      <point x="363" y="747" type="line"/>
      <point x="320" y="760" type="line"/>
      <point x="-50" y="-131" type="line"/>
    </contour>
  </outline>
</glyph>
<glyph name="zero" format="2">
  <advance width="533"/>
  <unicode hex="0030"/>
  <note>
zero
</note>
  <outline>
    <contour>
      <point x="274" y="4" type="curve" smooth="yes"/>
      <point x="403" y="4"/>
      <point x="528" y="156"/>
      <point x="528" y="367" type="curve" smooth="yes"/>
      <point x="528" y="582"/>
      <point x="402" y="718"/>
      <point x="277" y="718" type="curve" smooth="yes"/>
      <point x="137" y="718"/>
      <point x="15" y="561"/>
      <point x="15" y="372" type="curve" smooth="yes"/>
      <point x="15" y="129"/>
      <point x="154" y="4"/>
    </contour>
    <contour>
      <point x="274" y="30" type="curve" smooth="yes"/>
      <point x="163" y="30"/>
      <point x="101" y="215"/>
      <point x="101" y="374" type="curve" smooth="yes"/>
      <point x="101" y="534"/>
      <point x="162" y="693"/>
      <point x="272" y="693" type="curve" smooth="yes"/>
      <point x="384" y="693"/>
      <point x="439" y="525"/>
      <point x="439" y="364" type="curve" smooth="yes"/>
      <point x="439" y="204"/>
      <point x="386" y="30"/>
    </contour>
  </outline>
</glyph>
<glyph name="one" format="2">
  <advance width="316"/>
  <unicode hex="0031"/>
  <note>
one
</note>
  <outline>
    <contour>
      <point x="201" y="54" type="curve"/>
      <point x="201" y="725" type="line"/>
      <point x="38" y="725" type="line"/>
      <point x="38" y="711" type="line"/>
      <point x="74" y="711"/>
      <point x="118" y="699"/>
      <point x="118" y="668" type="curve" smooth="yes"/>
      <point x="118" y="55" type="line" smooth="yes"/>
      <point x="118" y="26"/>
      <point x="77.676" y="11"/>
      <point x="42" y="11" type="curve"/>
      <point x="42" y="0" type="line"/>
      <point x="281" y="0" type="line"/>
      <point x="281" y="11" type="line"/>
      <point x="247.36" y="11"/>
      <point x="201" y="21.172"/>
    </contour>
  </outline>
</glyph>
<glyph name="two" format="2">
  <advance width="436"/>
  <unicode hex="0032"/>
  <note>
two
</note>
  <outline>
    <contour>
      <point x="46" y="-4" type="line"/>
      <point x="387" y="-4" type="line"/>
      <point x="437" y="205" type="line"/>
      <point x="427" y="209" type="line"/>
      <point x="410" y="155"/>
      <point x="396" y="81"/>
      <point x="334" y="81" type="curve" smooth="yes"/>
      <point x="113" y="81" type="line"/>
      <point x="180" y="184"/>
      <point x="210" y="231"/>
      <point x="255" y="305" type="curve" smooth="yes"/>
      <point x="295" y="371"/>
      <point x="362" y="468"/>
      <point x="365" y="551" type="curve" smooth="yes"/>
      <point x="369" y="658"/>
      <point x="324" y="733"/>
      <point x="232" y="733" type="curve" smooth="yes"/>
      <point x="128" y="733"/>
      <point x="38" y="654"/>
      <point x="23" y="558" type="curve"/>
      <point x="38" y="557" type="line"/>
      <point x="76" y="650"/>
      <point x="145" y="662"/>
      <point x="199" y="658" type="curve" smooth="yes"/>
      <point x="252" y="654"/>
      <point x="278" y="611"/>
      <point x="280" y="556" type="curve" smooth="yes"/>
      <point x="282" y="502"/>
      <point x="261" y="424"/>
      <point x="226" y="357" type="curve" smooth="yes"/>
      <point x="156" y="223"/>
      <point x="90" y="111"/>
      <point x="46" y="35" type="curve"/>
    </contour>
  </outline>
</glyph>
<glyph name="three" format="2">
  <advance width="396"/>
  <unicode hex="0033"/>
  <note>
three
</note>
  <outline>
    <contour>
      <point x="75" y="0" type="curve" smooth="yes"/>
      <point x="232" y="0"/>
      <point x="370" y="101"/>
      <point x="370" y="249" type="curve" smooth="yes"/>
      <point x="370" y="337"/>
      <point x="290" y="402"/>
      <point x="201" y="421" type="curve"/>
      <point x="277" y="480"/>
      <point x="340" y="534"/>
      <point x="340" y="605" type="curve" smooth="yes"/>
      <point x="340" y="681"/>
      <point x="277" y="733"/>
      <point x="186" y="733" type="curve" smooth="yes"/>
      <point x="105" y="733"/>
      <point x="52" y="673"/>
      <point x="21" y="606" type="curve"/>
      <point x="30" y="601" type="line"/>
      <point x="59" y="646"/>
      <point x="96" y="662"/>
      <point x="153" y="662" type="curve" smooth="yes"/>
      <point x="212" y="662"/>
      <point x="258" y="628"/>
      <point x="258" y="573" type="curve" smooth="yes"/>
      <point x="258" y="477"/>
      <point x="166" y="411"/>
      <point x="92" y="354" type="curve"/>
      <point x="95" y="348" type="line"/>
      <point x="108" y="348" type="line" smooth="yes"/>
      <point x="203" y="348"/>
      <point x="287" y="287"/>
      <point x="287" y="193" type="curve" smooth="yes"/>
      <point x="287" y="74"/>
      <point x="190" y="26"/>
      <point x="142" y="26" type="curve" smooth="yes"/>
      <point x="87" y="26"/>
      <point x="71" y="100"/>
      <point x="26" y="100" type="curve" smooth="yes"/>
      <point x="-1" y="100"/>
      <point x="-9" y="83"/>
      <point x="-9" y="62" type="curve" smooth="yes"/>
      <point x="-9" y="21"/>
      <point x="33" y="0"/>
    </contour>
  </outline>
</glyph>
<glyph name="four" format="2">
  <advance width="551"/>
  <unicode hex="0034"/>
  <note>
four
</note>
  <outline>
    <contour>
      <point x="301" y="-6" type="line"/>
      <point x="389" y="-6" type="line"/>
      <point x="389" y="225" type="line"/>
      <point x="525" y="225" type="line"/>
      <point x="525" y="302" type="line"/>
      <point x="387" y="302" type="line"/>
      <point x="387" y="726" type="line"/>
      <point x="358" y="726" type="line"/>
      <point x="46" y="304" type="line"/>
      <point x="0" y="237" type="line"/>
      <point x="-7" y="226"/>
      <point x="-2" y="225"/>
      <point x="7" y="225" type="curve" smooth="yes"/>
      <point x="301" y="225" type="line"/>
    </contour>
    <contour>
      <point x="66" y="302" type="line"/>
      <point x="301" y="622" type="line"/>
      <point x="301" y="302" type="line"/>
    </contour>
  </outline>
</glyph>
<glyph name="six" format="2">
  <advance width="512"/>
  <unicode hex="0036"/>
  <note>
six
</note>
  <outline>
    <contour>
      <point x="254" y="0" type="curve" smooth="yes"/>
      <point x="390.19" y="0"/>
      <point x="487" y="104.918"/>
      <point x="487" y="237" type="curve" smooth="yes"/>
      <point x="487" y="357.429"/>
      <point x="395.16" y="449"/>
      <point x="266" y="449" type="curve" smooth="yes"/>
      <point x="235.333" y="449"/>
      <point x="217.667" y="445.667"/>
      <point x="195" y="439" type="curve"/>
      <point x="262.953" y="572.39"/>
      <point x="372.145" y="667.679"/>
      <point x="483" y="716" type="curve"/>
      <point x="475" y="728" type="line"/>
      <point x="443.667" y="719.333"/>
      <point x="411" y="707"/>
      <point x="377" y="691" type="curve" smooth="yes"/>
      <point x="309" y="659"/>
      <point x="241" y="615.167"/>
      <point x="181" y="558.5" type="curve" smooth="yes"/>
      <point x="151" y="530.167"/>
      <point x="124.5" y="499.667"/>
      <point x="101.5" y="467" type="curve" smooth="yes"/>
      <point x="55.5" y="401.667"/>
      <point x="27" y="328"/>
      <point x="27" y="248" type="curve" smooth="yes"/>
      <point x="27" y="114.619"/>
      <point x="128.913" y="0"/>
    </contour>
    <contour>
      <point x="257" y="14" type="curve" smooth="yes"/>
      <point x="171.667" y="14"/>
      <point x="118" y="83"/>
      <point x="118" y="203" type="curve" smooth="yes"/>
      <point x="118" y="275"/>
      <point x="133" y="351.667"/>
      <point x="185" y="409" type="curve" smooth="yes"/>
      <point x="199.667" y="425"/>
      <point x="218.333" y="430"/>
      <point x="241" y="430" type="curve" smooth="yes"/>
      <point x="348.011" y="430"/>
      <point x="396" y="307.681"/>
      <point x="396" y="196" type="curve" smooth="yes"/>
      <point x="396" y="74.667"/>
      <point x="338.333" y="14"/>
    </contour>
  </outline>
</glyph>
<glyph name="seven" format="2">
  <advance width="444"/>
  <unicode hex="0037"/>
  <note>
seven
</note>
  <outline>
    <contour>
      <point x="170" y="-1" type="line"/>
      <point x="190" y="51"/>
      <point x="211" y="104"/>
      <point x="232" y="159" type="curve" smooth="yes"/>
      <point x="266" y="247"/>
      <point x="325" y="389"/>
      <point x="355" y="465" type="curve" smooth="yes"/>
      <point x="382" y="533"/>
      <point x="445" y="688"/>
      <point x="459" y="720" type="curve"/>
      <point x="69" y="720" type="line"/>
      <point x="4" y="552" type="line"/>
      <point x="16" y="548" type="line"/>
      <point x="34" y="592"/>
      <point x="59" y="635"/>
      <point x="135" y="635" type="curve" smooth="yes"/>
      <point x="406" y="635" type="line"/>
      <point x="392" y="601"/>
      <point x="375" y="563"/>
      <point x="356" y="520" type="curve" smooth="yes"/>
      <point x="316" y="435"/>
      <point x="273" y="344"/>
      <point x="230" y="258" type="curve" smooth="yes"/>
      <point x="198" y="193"/>
      <point x="122" y="40"/>
      <point x="103" y="-1" type="curve"/>
    </contour>
  </outline>
</glyph>
<glyph name="nine" format="2">
  <advance width="512"/>
  <unicode hex="0039"/>
  <note>
nine
</note>
  <outline>
    <contour>
      <point x="51" y="-6" type="line"/>
      <point x="148" y="19"/>
      <point x="257" y="80"/>
      <point x="342" y="165" type="curve" smooth="yes"/>
      <point x="426" y="249"/>
      <point x="486" y="358"/>
      <point x="486" y="482" type="curve" smooth="yes"/>
      <point x="486" y="616"/>
      <point x="385" y="734"/>
      <point x="254" y="734" type="curve" smooth="yes"/>
      <point x="127" y="734"/>
      <point x="26" y="626"/>
      <point x="26" y="501" type="curve" smooth="yes"/>
      <point x="26" y="376"/>
      <point x="111" y="282"/>
      <point x="246" y="282" type="curve" smooth="yes"/>
      <point x="277" y="282"/>
      <point x="303" y="285"/>
      <point x="332" y="297" type="curve"/>
      <point x="264" y="144"/>
      <point x="169" y="62"/>
      <point x="45" y="9" type="curve"/>
    </contour>
    <contour>
      <point x="273" y="303" type="curve" smooth="yes"/>
      <point x="166" y="303"/>
      <point x="113" y="436"/>
      <point x="113" y="547" type="curve" smooth="yes"/>
      <point x="113" y="655"/>
      <point x="169" y="718"/>
      <point x="254" y="718" type="curve" smooth="yes"/>
      <point x="350" y="718"/>
      <point x="393" y="614"/>
      <point x="393" y="512" type="curve" smooth="yes"/>
      <point x="393" y="444"/>
      <point x="383" y="383"/>
      <point x="340" y="328" type="curve" smooth="yes"/>
      <point x="324" y="308"/>
      <point x="301" y="303"/>
    </contour>
  </outline>
</glyph>
<glyph name="semicolon" format="2">
  <advance width="263"/>
  <unicode hex="003B"/>
  <note>
semicolon
</note>
  <outline>
    <contour>
      <point x="73" y="-141" type="line"/>
      <point x="137.266" y="-135.412"/>
      <point x="201" y="-67.379"/>
      <point x="201" y="8" type="curve" smooth="yes"/>
      <point x="201" y="57.695"/>
      <point x="162.244" y="99"/>
      <point x="119" y="99" type="curve" smooth="yes"/>
      <point x="88.333" y="99"/>
      <point x="60" y="74.667"/>
      <point x="60" y="44" type="curve" smooth="yes"/>
      <point x="60" y="17.333"/>
      <point x="78.667" y="-5"/>
      <point x="108" y="-5" type="curve" smooth="yes"/>
      <point x="125.333" y="-5"/>
      <point x="144" y="3"/>
      <point x="152" y="23" type="curve"/>
      <point x="165.333" y="17.667"/>
      <point x="168" y="4.667"/>
      <point x="168" y="-14" type="curve" smooth="yes"/>
      <point x="168" y="-71.333"/>
      <point x="127.333" y="-120.333"/>
      <point x="70" y="-131" type="curve"/>
    </contour>
    <contour>
      <point x="118" y="195" type="curve" smooth="yes"/>
      <point x="148.667" y="195"/>
      <point x="174" y="218"/>
      <point x="174" y="250" type="curve" smooth="yes"/>
      <point x="174" y="280.667"/>
      <point x="148.667" y="305"/>
      <point x="118" y="305" type="curve" smooth="yes"/>
      <point x="87.333" y="305"/>
      <point x="61" y="283.333"/>
      <point x="61" y="250" type="curve" smooth="yes"/>
      <point x="61" y="215.333"/>
      <point x="87.333" y="195"/>
    </contour>
  </outline>
</glyph>
<glyph name="equal" format="2">
  <advance width="700"/>
  <unicode hex="003D"/>
  <note>
equal
</note>
  <outline>
    <contour>
      <point x="145" y="300" type="line"/>
      <point x="555" y="300" type="line"/>
      <point x="555" y="339" type="line"/>
      <point x="145" y="339" type="line"/>
    </contour>
    <contour>
      <point x="145" y="186" type="line"/>
      <point x="555" y="186" type="line"/>
      <point x="555" y="225" type="line"/>
      <point x="145" y="225" type="line"/>
    </contour>
  </outline>
</glyph>
<glyph name="question" format="2">
  <advance width="401"/>
  <unicode hex="003F"/>
  <note>
question
</note>
  <outline>
    <contour>
      <point x="133" y="0" type="curve" smooth="yes"/>
      <point x="167.667" y="0"/>
      <point x="192" y="20.333"/>
      <point x="192" y="55" type="curve" smooth="yes"/>
      <point x="192" y="89.667"/>
      <point x="167.667" y="118"/>
      <point x="133" y="118" type="curve" smooth="yes"/>
      <point x="98.333" y="118"/>
      <point x="73" y="91.667"/>
      <point x="73" y="57" type="curve" smooth="yes"/>
      <point x="73" y="22.333"/>
      <point x="98.333" y="0"/>
    </contour>
    <contour>
      <point x="32" y="595" type="curve"/>
      <point x="41" y="590" type="line"/>
      <point x="70" y="635"/>
      <point x="107" y="651"/>
      <point x="164" y="651" type="curve" smooth="yes"/>
      <point x="223" y="651"/>
      <point x="269" y="617"/>
      <point x="269" y="562" type="curve" smooth="yes"/>
      <point x="269" y="466"/>
      <point x="177" y="400"/>
      <point x="104" y="341" type="curve"/>
      <point x="104" y="167" type="line"/>
      <point x="142" y="167" type="line"/>
      <point x="142" y="337" type="line"/>
      <point x="224" y="410" type="line" smooth="yes"/>
      <point x="296" y="474"/>
      <point x="351" y="523"/>
      <point x="351" y="594" type="curve" smooth="yes"/>
      <point x="351" y="670"/>
      <point x="288" y="722"/>
      <point x="197" y="722" type="curve" smooth="yes"/>
      <point x="116" y="722"/>
      <point x="63" y="662"/>
    </contour>
  </outline>
</glyph>
<glyph name="at" format="2">
  <advance width="868"/>
  <unicode hex="0040"/>
  <note>
at
</note>
  <outline>
    <contour>
      <point x="411" y="-177" type="curve" smooth="yes"/>
      <point x="535" y="-177"/>
      <point x="638.667" y="-137"/>
      <point x="722" y="-57" type="curve"/>
      <point x="714" y="-48" type="line"/>
      <point x="628.667" y="-118.667"/>
      <point x="544" y="-159"/>
      <point x="428" y="-159" type="curve" smooth="yes"/>
      <point x="334.667" y="-159"/>
      <point x="253.5" y="-129.333"/>
      <point x="195.5" y="-76" type="curve" smooth="yes"/>
      <point x="137.5" y="-22.667"/>
      <point x="104" y="53"/>
      <point x="104" y="149" type="curve" smooth="yes"/>
      <point x="104" y="261"/>
      <point x="148.5" y="374"/>
      <point x="222.5" y="458" type="curve" smooth="yes"/>
      <point x="296.5" y="542"/>
      <point x="401" y="599"/>
      <point x="521" y="599" type="curve" smooth="yes"/>
      <point x="681.174" y="599"/>
      <point x="804" y="496.155"/>
      <point x="804" y="341" type="curve" smooth="yes"/>
      <point x="804" y="191.678"/>
      <point x="701.105" y="56"/>
      <point x="546" y="56" type="curve" smooth="yes"/>
      <point x="540.667" y="56"/>
      <point x="535.833" y="56.333"/>
      <point x="531.5" y="57" type="curve" smooth="yes"/>
      <point x="527.167" y="57.667"/>
      <point x="522.333" y="58.333"/>
      <point x="517" y="59" type="curve"/>
      <point x="687" y="467" type="line"/>
      <point x="628" y="467" type="line"/>
      <point x="603" y="432" type="line"/>
      <point x="589.667" y="448"/>
      <point x="571.667" y="462"/>
      <point x="549" y="462" type="curve" smooth="yes"/>
      <point x="529.667" y="462"/>
      <point x="507.667" y="455.667"/>
      <point x="483" y="443" type="curve" smooth="yes"/>
      <point x="433.667" y="417.667"/>
      <point x="381.333" y="373.667"/>
      <point x="332" y="319" type="curve" smooth="yes"/>
      <point x="307.333" y="291.667"/>
      <point x="285.333" y="263.5"/>
      <point x="266" y="234.5" type="curve" smooth="yes"/>
      <point x="227.333" y="176.5"/>
      <point x="202" y="116.667"/>
      <point x="202" y="70" type="curve" smooth="yes"/>
      <point x="202" y="43.333"/>
      <point x="212.333" y="20"/>
      <point x="251" y="20" type="curve" smooth="yes"/>
      <point x="337.695" y="20"/>
      <point x="441.151" y="123.181"/>
      <point x="506" y="201" type="curve"/>
      <point x="512" y="199" type="line"/>
      <point x="441" y="35" type="line"/>
      <point x="462.333" y="23.667"/>
      <point x="487.333" y="18"/>
      <point x="516" y="18" type="curve" smooth="yes"/>
      <point x="606.667" y="18"/>
      <point x="683.333" y="55.5"/>
      <point x="738" y="113.5" type="curve" smooth="yes"/>
      <point x="792.667" y="171.5"/>
      <point x="825" y="251.667"/>
      <point x="825" y="337" type="curve" smooth="yes"/>
      <point x="825" y="422.333"/>
      <point x="788.5" y="494.5"/>
      <point x="730.5" y="544.5" type="curve" smooth="yes"/>
      <point x="672.5" y="594.5"/>
      <point x="592.333" y="623"/>
      <point x="503" y="623" type="curve" smooth="yes"/>
      <point x="379" y="623"/>
      <point x="267.333" y="570.667"/>
      <point x="186" y="488" type="curve" smooth="yes"/>
      <point x="104.667" y="405.333"/>
      <point x="54" y="290"/>
      <point x="54" y="166" type="curve" smooth="yes"/>
      <point x="54" y="64.667"/>
      <point x="89.333" y="-19.833"/>
      <point x="152" y="-80.5" type="curve" smooth="yes"/>
      <point x="214.667" y="-141.167"/>
      <point x="304.333" y="-177"/>
    </contour>
    <contour>
      <point x="319" y="67" type="curve" smooth="yes"/>
      <point x="295" y="67"/>
      <point x="283" y="84"/>
      <point x="283" y="104" type="curve" smooth="yes"/>
      <point x="283" y="154.349"/>
      <point x="339.903" y="261.715"/>
      <point x="377.5" y="313.5" type="curve" smooth="yes"/>
      <point x="415.101" y="365.29"/>
      <point x="488.959" y="442"/>
      <point x="526" y="442" type="curve" smooth="yes"/>
      <point x="555.333" y="442"/>
      <point x="570" y="414.333"/>
      <point x="570" y="389" type="curve" smooth="yes"/>
      <point x="570" y="333.946"/>
      <point x="510.108" y="229.27"/>
      <point x="470" y="182" type="curve" smooth="yes"/>
      <point x="430.104" y="134.98"/>
      <point x="354.322" y="67"/>
    </contour>
  </outline>
</glyph>
<glyph name="C" format="2">
  <advance width="776"/>
  <unicode hex="0043"/>
  <note>
C
</note>
  <anchor x="437" y="-2" name="bottom"/>
  <outline>
    <contour>
      <point x="432" y="-20" type="curve" smooth="yes"/>
      <point x="507" y="-20"/>
      <point x="564" y="-5"/>
      <point x="604" y="12" type="curve" smooth="yes"/>
      <point x="631" y="23"/>
      <point x="666" y="45"/>
      <point x="668" y="45" type="curve" smooth="yes"/>
      <point x="671" y="45"/>
      <point x="677" y="40"/>
      <point x="686" y="31" type="curve" smooth="yes"/>
      <point x="695" y="22"/>
      <point x="703" y="11"/>
      <point x="711" y="0" type="curve"/>
      <point x="723" y="0" type="line"/>
      <point x="726" y="220" type="line"/>
      <point x="714" y="220" type="line"/>
      <point x="689" y="101"/>
      <point x="575" y="-4"/>
      <point x="442" y="-4" type="curve" smooth="yes"/>
      <point x="354" y="-4"/>
      <point x="281" y="35"/>
      <point x="230" y="97" type="curve" smooth="yes"/>
      <point x="179" y="159"/>
      <point x="151" y="245"/>
      <point x="151" y="341" type="curve" smooth="yes"/>
      <point x="151" y="432"/>
      <point x="178" y="521"/>
      <point x="227" y="589" type="curve" smooth="yes"/>
      <point x="275" y="657"/>
      <point x="348" y="702"/>
      <point x="440" y="702" type="curve" smooth="yes"/>
      <point x="572" y="702"/>
      <point x="680" y="601"/>
      <point x="715" y="472" type="curve"/>
      <point x="727" y="473" type="line"/>
      <point x="727" y="697" type="line"/>
      <point x="716" y="697" type="line"/>
      <point x="708" y="684"/>
      <point x="678" y="649"/>
      <point x="670" y="649" type="curve" smooth="yes"/>
      <point x="668" y="649"/>
      <point x="632" y="673"/>
      <point x="606" y="684" type="curve" smooth="yes"/>
      <point x="566" y="701"/>
      <point x="506" y="719"/>
      <point x="426" y="719" type="curve" smooth="yes"/>
      <point x="264" y="719"/>
      <point x="149" y="649"/>
      <point x="87" y="548" type="curve" smooth="yes"/>
      <point x="44" y="478"/>
      <point x="28" y="401"/>
      <point x="28" y="346" type="curve" smooth="yes"/>
      <point x="28" y="238"/>
      <point x="67" y="146"/>
      <point x="137" y="82" type="curve" smooth="yes"/>
      <point x="207" y="17"/>
      <point x="308" y="-20"/>
    </contour>
  </outline>
</glyph>
<glyph name="D" format="2">
  <advance width="852"/>
  <unicode hex="0044"/>
  <note>
D
</note>
  <outline>
    <contour>
      <point x="41" y="0" type="line"/>
      <point x="406" y="0" type="line" smooth="yes"/>
      <point x="436.667" y="0"/>
      <point x="468.333" y="2.167"/>
      <point x="501" y="6.5" type="curve" smooth="yes"/>
      <point x="566.333" y="15.167"/>
      <point x="628.333" y="36"/>
      <point x="683" y="72" type="curve" smooth="yes"/>
      <point x="710.333" y="90"/>
      <point x="734.333" y="112.667"/>
      <point x="755" y="140" type="curve" smooth="yes"/>
      <point x="796.333" y="194.667"/>
      <point x="822" y="270"/>
      <point x="822" y="370" type="curve" smooth="yes"/>
      <point x="822" y="530.72"/>
      <point x="737.547" y="635.766"/>
      <point x="618" y="687" type="curve" smooth="yes"/>
      <point x="559.624" y="712.54"/>
      <point x="482.002" y="721"/>
      <point x="421" y="721" type="curve" smooth="yes"/>
      <point x="399.667" y="721"/>
      <point x="378.333" y="721"/>
      <point x="357" y="721" type="curve" smooth="yes"/>
      <point x="282.333" y="721"/>
      <point x="218.667" y="720.833"/>
      <point x="166" y="720.5" type="curve" smooth="yes"/>
      <point x="113.333" y="720.167"/>
      <point x="73" y="720"/>
      <point x="45" y="720" type="curve"/>
      <point x="45" y="710" type="line"/>
      <point x="79.667" y="706"/>
      <point x="108" y="699"/>
      <point x="128" y="675" type="curve" smooth="yes"/>
      <point x="139.257" y="661.866"/>
      <point x="143" y="622.204"/>
      <point x="143" y="594" type="curve" smooth="yes"/>
      <point x="143" y="582"/>
      <point x="143" y="570"/>
      <point x="143" y="558" type="curve"/>
      <point x="143" y="269.869"/>
      <point x="143" y="181"/>
      <point x="143" y="156" type="curve" smooth="yes"/>
      <point x="143" y="123"/>
      <point x="137.315" y="59.315"/>
      <point x="125" y="47" type="curve"/>
      <point x="109" y="28.333"/>
      <point x="74.333" y="14"/>
      <point x="41" y="10" type="curve"/>
    </contour>
    <contour>
      <point x="383" y="15" type="curve" smooth="yes"/>
      <point x="347" y="15"/>
      <point x="301.667" y="19.333"/>
      <point x="275" y="46" type="curve" smooth="yes"/>
      <point x="258.7" y="62.3"/>
      <point x="253" y="120.839"/>
      <point x="253" y="155" type="curve" smooth="yes"/>
      <point x="252.333" y="177"/>
      <point x="252" y="205"/>
      <point x="252" y="240" type="curve" smooth="yes"/>
      <point x="252" y="275"/>
      <point x="252" y="314"/>
      <point x="252" y="357" type="curve" smooth="yes"/>
      <point x="252" y="516"/>
      <point x="252.333" y="631.667"/>
      <point x="259" y="697" type="curve"/>
      <point x="276.565" y="702.019"/>
      <point x="336.055" y="705"/>
      <point x="356" y="705" type="curve" smooth="yes"/>
      <point x="402.667" y="705"/>
      <point x="432.333" y="701.333"/>
      <point x="459" y="696" type="curve" smooth="yes"/>
      <point x="598.851" y="671.795"/>
      <point x="699" y="519.139"/>
      <point x="699" y="368" type="curve" smooth="yes"/>
      <point x="699" y="193.333"/>
      <point x="628" y="68.333"/>
      <point x="484" y="27" type="curve" smooth="yes"/>
      <point x="453.333" y="17.667"/>
      <point x="416.333" y="15"/>
    </contour>
  </outline>
</glyph>
<glyph name="E" format="2">
  <advance width="711"/>
  <unicode hex="0045"/>
  <note>
E
</note>
  <anchor x="332" y="726" name="top"/>
  <outline>
    <contour>
      <point x="41" y="0" type="line"/>
      <point x="653" y="0" type="line"/>
      <point x="703" y="191" type="line"/>
      <point x="692" y="194" type="line"/>
      <point x="631.211" y="89.444"/>
      <point x="573" y="36"/>
      <point x="484" y="21" type="curve" smooth="yes"/>
      <point x="423" y="11"/>
      <point x="348" y="7"/>
      <point x="300" y="41" type="curve" smooth="yes"/>
      <point x="271" y="60"/>
      <point x="252" y="101"/>
      <point x="252" y="144" type="curve" smooth="yes"/>
      <point x="252" y="360" type="line"/>
      <point x="263" y="360"/>
      <point x="365" y="361"/>
      <point x="385" y="358" type="curve" smooth="yes"/>
      <point x="447" y="349"/>
      <point x="473" y="297"/>
      <point x="495" y="207" type="curve"/>
      <point x="507" y="207" type="line"/>
      <point x="507" y="522" type="line"/>
      <point x="495" y="522" type="line"/>
      <point x="478.527" y="445.128"/>
      <point x="458.234" y="402.488"/>
      <point x="379" y="384" type="curve" smooth="yes"/>
      <point x="355.413" y="378.557"/>
      <point x="296.982" y="376"/>
      <point x="253" y="376" type="curve"/>
      <point x="253" y="652" type="line" smooth="yes"/>
      <point x="253" y="672"/>
      <point x="275" y="688"/>
      <point x="305" y="692" type="curve" smooth="yes"/>
      <point x="355" y="699"/>
      <point x="443" y="694"/>
      <point x="484" y="683" type="curve" smooth="yes"/>
      <point x="553" y="665"/>
      <point x="606" y="617.333"/>
      <point x="660" y="550" type="curve"/>
      <point x="670" y="555" type="line"/>
      <point x="602" y="720" type="line"/>
      <point x="50" y="720" type="line"/>
      <point x="50" y="710" type="line"/>
      <point x="86" y="704.667"/>
      <point x="100" y="701"/>
      <point x="120" y="681" type="curve" smooth="yes"/>
      <point x="136" y="665"/>
      <point x="144" y="653"/>
      <point x="143" y="558" type="curve" smooth="yes"/>
      <point x="143" y="183" type="line" smooth="yes"/>
      <point x="140" y="82"/>
      <point x="132" y="64"/>
      <point x="119" y="48" type="curve" smooth="yes"/>
      <point x="100" y="27"/>
      <point x="74.333" y="15.333"/>
      <point x="41" y="10" type="curve"/>
    </contour>
  </outline>
</glyph>
<glyph name="F" format="2">
  <advance width="656"/>
  <unicode hex="0046"/>
  <note>
F
</note>
  <outline>
    <contour>
      <point x="41" y="0" type="line"/>
      <point x="361" y="0" type="line"/>
      <point x="361" y="10" type="line"/>
      <point x="252.87" y="15.275"/>
      <point x="252" y="46"/>
      <point x="252" y="144" type="curve" smooth="yes"/>
      <point x="252" y="161"/>
      <point x="252" y="279"/>
      <point x="252" y="296" type="curve" smooth="yes"/>
      <point x="252" y="317.333"/>
      <point x="252" y="338.667"/>
      <point x="252" y="360" type="curve"/>
      <point x="262.667" y="360"/>
      <point x="293.333" y="360"/>
      <point x="300" y="360" type="curve" smooth="yes"/>
      <point x="313.333" y="360"/>
      <point x="327" y="359.333"/>
      <point x="347" y="358" type="curve" smooth="yes"/>
      <point x="385.667" y="355.333"/>
      <point x="412.667" y="344.667"/>
      <point x="438" y="322" type="curve" smooth="yes"/>
      <point x="466" y="296.667"/>
      <point x="486.333" y="242.667"/>
      <point x="497" y="200" type="curve"/>
      <point x="509" y="200" type="line"/>
      <point x="509" y="522" type="line"/>
      <point x="497" y="522" type="line"/>
      <point x="485.065" y="447.405"/>
      <point x="471.748" y="404.166"/>
      <point x="381" y="384" type="curve" smooth="yes"/>
      <point x="356.123" y="378.669"/>
      <point x="293.763" y="376"/>
      <point x="270" y="376" type="curve" smooth="yes"/>
      <point x="260" y="376"/>
      <point x="254" y="376"/>
      <point x="252" y="376" type="curve"/>
      <point x="252" y="379.333"/>
      <point x="252.667" y="579.333"/>
      <point x="254" y="626" type="curve" smooth="yes"/>
      <point x="256.447" y="670.049"/>
      <point x="267" y="689"/>
      <point x="289" y="700" type="curve" smooth="yes"/>
      <point x="301" y="706"/>
      <point x="331.734" y="706"/>
      <point x="349" y="706" type="curve" smooth="yes"/>
      <point x="427.667" y="706"/>
      <point x="491.333" y="697.667"/>
      <point x="514" y="687" type="curve" smooth="yes"/>
      <point x="560.667" y="664.333"/>
      <point x="609.333" y="615"/>
      <point x="664" y="547" type="curve"/>
      <point x="674" y="552" type="line"/>
      <point x="606" y="720" type="line"/>
      <point x="50" y="720" type="line"/>
      <point x="50" y="710" type="line"/>
      <point x="86" y="704.667"/>
      <point x="106" y="702.333"/>
      <point x="126" y="681" type="curve" smooth="yes"/>
      <point x="142.15" y="664.85"/>
      <point x="143" y="597.599"/>
      <point x="143" y="558" type="curve" smooth="yes"/>
      <point x="143" y="156" type="line" smooth="yes"/>
      <point x="143" y="121"/>
      <point x="136.201" y="63.841"/>
      <point x="123" y="48" type="curve" smooth="yes"/>
      <point x="104.333" y="26.667"/>
      <point x="74.333" y="15.333"/>
      <point x="41" y="10" type="curve"/>
    </contour>
  </outline>
</glyph>
<glyph name="G" format="2">
  <advance width="825"/>
  <unicode hex="0047"/>
  <note>
G
</note>
  <outline>
    <contour>
      <point x="431" y="-5" type="curve" smooth="yes"/>
      <point x="495" y="-5"/>
      <point x="561.833" y="10.167"/>
      <point x="614.5" y="29.5" type="curve" smooth="yes"/>
      <point x="657.41" y="45.252"/>
      <point x="703.586" y="67.36"/>
      <point x="716" y="78" type="curve"/>
      <point x="716" y="224" type="line" smooth="yes"/>
      <point x="716" y="254.667"/>
      <point x="715.667" y="289.333"/>
      <point x="725" y="304" type="curve" smooth="yes"/>
      <point x="737" y="322.667"/>
      <point x="768.333" y="330.333"/>
      <point x="791" y="333" type="curve"/>
      <point x="791" y="343" type="line"/>
      <point x="498" y="343" type="line"/>
      <point x="498" y="333" type="line"/>
      <point x="536.667" y="329.667"/>
      <point x="563.667" y="319.333"/>
      <point x="579" y="302" type="curve" smooth="yes"/>
      <point x="601.667" y="278"/>
      <point x="603" y="239.667"/>
      <point x="603" y="193" type="curve" smooth="yes"/>
      <point x="603" y="146.333"/>
      <point x="597.667" y="96.333"/>
      <point x="587" y="79" type="curve" smooth="yes"/>
      <point x="555" y="29.667"/>
      <point x="496" y="9"/>
      <point x="432" y="9" type="curve" smooth="yes"/>
      <point x="342.667" y="9"/>
      <point x="273" y="44.667"/>
      <point x="225" y="106" type="curve" smooth="yes"/>
      <point x="177" y="167.333"/>
      <point x="151" y="255"/>
      <point x="151" y="359" type="curve" smooth="yes"/>
      <point x="151" y="453.667"/>
      <point x="178.667" y="542.5"/>
      <point x="228" y="608.5" type="curve" smooth="yes"/>
      <point x="277.333" y="674.5"/>
      <point x="349" y="717"/>
      <point x="437" y="717" type="curve" smooth="yes"/>
      <point x="519.667" y="717"/>
      <point x="588.333" y="686.333"/>
      <point x="631" y="641" type="curve" smooth="yes"/>
      <point x="664.333" y="606.333"/>
      <point x="696.333" y="550"/>
      <point x="711" y="490" type="curve"/>
      <point x="723" y="490" type="line"/>
      <point x="723" y="708" type="line"/>
      <point x="714" y="708" type="line"/>
      <point x="705.333" y="696.667"/>
      <point x="698" y="687"/>
      <point x="692" y="679" type="curve" smooth="yes"/>
      <point x="686" y="671"/>
      <point x="682.333" y="667"/>
      <point x="681" y="667" type="curve" smooth="yes"/>
      <point x="678.781" y="667"/>
      <point x="641.932" y="689.217"/>
      <point x="613.5" y="700.5" type="curve" smooth="yes"/>
      <point x="571.5" y="717.167"/>
      <point x="510" y="734"/>
      <point x="430" y="734" type="curve" smooth="yes"/>
      <point x="296.667" y="734"/>
      <point x="206" y="692.667"/>
      <point x="142" y="630" type="curve" smooth="yes"/>
      <point x="57.92" y="548.393"/>
      <point x="28" y="439.496"/>
      <point x="28" y="361" type="curve" smooth="yes"/>
      <point x="28" y="247.667"/>
      <point x="65.833" y="154.833"/>
      <point x="134.5" y="91.5" type="curve" smooth="yes"/>
      <point x="203.167" y="28.167"/>
      <point x="304.333" y="-5"/>
    </contour>
  </outline>
</glyph>
<glyph name="H" format="2">
  <advance width="900"/>
  <unicode hex="0048"/>
  <note>
H
</note>
  <outline>
    <contour>
      <point x="44" y="0" type="line"/>
      <point x="339" y="0" type="line"/>
      <point x="339" y="10" type="line"/>
      <point x="311" y="13"/>
      <point x="278" y="24"/>
      <point x="262" y="47" type="curve" smooth="yes"/>
      <point x="251" y="62"/>
      <point x="252" y="102"/>
      <point x="252" y="141" type="curve" smooth="yes"/>
      <point x="252" y="356" type="line"/>
      <point x="647" y="356" type="line"/>
      <point x="647" y="348"/>
      <point x="647" y="154"/>
      <point x="647" y="130" type="curve" smooth="yes"/>
      <point x="647" y="104"/>
      <point x="645" y="57"/>
      <point x="638" y="47" type="curve"/>
      <point x="627" y="30"/>
      <point x="592" y="14"/>
      <point x="543" y="10" type="curve"/>
      <point x="543" y="0" type="line"/>
      <point x="850" y="0" type="line"/>
      <point x="850" y="10" type="line"/>
      <point x="815" y="14"/>
      <point x="784" y="22"/>
      <point x="767" y="49" type="curve" smooth="yes"/>
      <point x="759" y="61"/>
      <point x="758" y="97"/>
      <point x="757" y="136" type="curve" smooth="yes"/>
      <point x="757" y="587" type="line" smooth="yes"/>
      <point x="757" y="612"/>
      <point x="760" y="653"/>
      <point x="767" y="666" type="curve" smooth="yes"/>
      <point x="782" y="693"/>
      <point x="816" y="706"/>
      <point x="848" y="710" type="curve"/>
      <point x="848" y="720" type="line"/>
      <point x="547" y="720" type="line"/>
      <point x="547" y="710" type="line"/>
      <point x="578" y="709"/>
      <point x="610" y="705"/>
      <point x="634" y="669" type="curve"/>
      <point x="645" y="652"/>
      <point x="645" y="621"/>
      <point x="647" y="596" type="curve" smooth="yes"/>
      <point x="647" y="570"/>
      <point x="647" y="397"/>
      <point x="647" y="376" type="curve"/>
      <point x="252" y="376" type="line"/>
      <point x="252" y="383"/>
      <point x="252" y="583"/>
      <point x="252" y="630" type="curve" smooth="yes"/>
      <point x="252" y="688"/>
      <point x="300" y="704"/>
      <point x="345" y="710" type="curve"/>
      <point x="345" y="720" type="line"/>
      <point x="47" y="720" type="line"/>
      <point x="47" y="710" type="line"/>
      <point x="82" y="706"/>
      <point x="109" y="698"/>
      <point x="128" y="675" type="curve" smooth="yes"/>
      <point x="139" y="662"/>
      <point x="143" y="622"/>
      <point x="143" y="594" type="curve" smooth="yes"/>
      <point x="143" y="551"/>
      <point x="143" y="217"/>
      <point x="143" y="156" type="curve" smooth="yes"/>
      <point x="143" y="121"/>
      <point x="137" y="60"/>
      <point x="127" y="47" type="curve" smooth="yes"/>
      <point x="111" y="28"/>
      <point x="77" y="15"/>
      <point x="44" y="10" type="curve"/>
    </contour>
  </outline>
</glyph>
<glyph name="I" format="2">
  <advance width="399"/>
  <unicode hex="0049"/>
  <note>
I
</note>
  <anchor x="206" y="726" name="top"/>
  <outline>
    <contour>
      <point x="46" y="0" type="line"/>
      <point x="349" y="0" type="line"/>
      <point x="349" y="10" type="line"/>
      <point x="321" y="12.667"/>
      <point x="280" y="24.333"/>
      <point x="264" y="47" type="curve" smooth="yes"/>
      <point x="253.333" y="61.667"/>
      <point x="254" y="102.333"/>
      <point x="254" y="141" type="curve" smooth="yes"/>
      <point x="254" y="367" type="line" smooth="yes"/>
      <point x="254" y="433"/>
      <point x="255" y="563"/>
      <point x="256.5" y="624" type="curve" smooth="yes"/>
      <point x="256.833" y="641.333"/>
      <point x="260" y="655.667"/>
      <point x="266" y="667" type="curve" smooth="yes"/>
      <point x="283.333" y="699"/>
      <point x="320" y="706"/>
      <point x="348" y="710" type="curve"/>
      <point x="348" y="720" type="line"/>
      <point x="49" y="720" type="line"/>
      <point x="49" y="710" type="line"/>
      <point x="83.667" y="706"/>
      <point x="111" y="698"/>
      <point x="130" y="675" type="curve" smooth="yes"/>
      <point x="146" y="656"/>
      <point x="145" y="578"/>
      <point x="145" y="363" type="curve" smooth="yes"/>
      <point x="145" y="345"/>
      <point x="143" y="181"/>
      <point x="143" y="156" type="curve" smooth="yes"/>
      <point x="143" y="119"/>
      <point x="141.92" y="64.504"/>
      <point x="129" y="49" type="curve" smooth="yes"/>
      <point x="109" y="26.333"/>
      <point x="79.333" y="15.333"/>
      <point x="46" y="10" type="curve"/>
    </contour>
  </outline>
</glyph>
<glyph name="L" format="2">
  <advance width="708"/>
  <unicode hex="004C"/>
  <note>
L
</note>
  <outline>
    <contour>
      <point x="34" y="0" type="line"/>
      <point x="676" y="0" type="line"/>
      <point x="713" y="206" type="line"/>
      <point x="703" y="209" type="line"/>
      <point x="668.987" y="123.968"/>
      <point x="635" y="66"/>
      <point x="534" y="30" type="curve" smooth="yes"/>
      <point x="495" y="16"/>
      <point x="411.496" y="15"/>
      <point x="388" y="15" type="curve" smooth="yes"/>
      <point x="343.926" y="15"/>
      <point x="277" y="27"/>
      <point x="266" y="42" type="curve" smooth="yes"/>
      <point x="253" y="60"/>
      <point x="253" y="103"/>
      <point x="253" y="146" type="curve" smooth="yes"/>
      <point x="253" y="223"/>
      <point x="253" y="549"/>
      <point x="253" y="622" type="curve" smooth="yes"/>
      <point x="253" y="649"/>
      <point x="263" y="668"/>
      <point x="279" y="681" type="curve" smooth="yes"/>
      <point x="300" y="699"/>
      <point x="332" y="706"/>
      <point x="360" y="710" type="curve"/>
      <point x="360" y="720" type="line"/>
      <point x="41" y="720" type="line"/>
      <point x="41" y="710" type="line"/>
      <point x="70" y="707"/>
      <point x="90" y="702"/>
      <point x="105" y="692" type="curve" smooth="yes"/>
      <point x="132" y="673"/>
      <point x="141" y="649"/>
      <point x="141" y="627" type="curve" smooth="yes"/>
      <point x="141" y="156" type="line" smooth="yes"/>
      <point x="141" y="120"/>
      <point x="135.189" y="63.827"/>
      <point x="122" y="48" type="curve" smooth="yes"/>
      <point x="103.333" y="26.667"/>
      <point x="67.333" y="15.333"/>
      <point x="34" y="10" type="curve"/>
    </contour>
  </outline>
</glyph>
<glyph name="M" format="2">
  <advance width="991"/>
  <unicode hex="004D"/>
  <note>
M
</note>
  <outline>
    <contour>
      <point x="25" y="0" type="line"/>
      <point x="286" y="0" type="line"/>
      <point x="286" y="10" type="line"/>
      <point x="171.338" y="26"/>
      <point x="164" y="79.953"/>
      <point x="164" y="206" type="curve" smooth="yes"/>
      <point x="164" y="269"/>
      <point x="166" y="558"/>
      <point x="166" y="655" type="curve"/>
      <point x="180.294" y="623.553"/>
      <point x="242.46" y="484.417"/>
      <point x="266" y="431" type="curve" smooth="yes"/>
      <point x="283.333" y="391.667"/>
      <point x="302" y="349.5"/>
      <point x="322" y="304.5" type="curve" smooth="yes"/>
      <point x="355.129" y="229.959"/>
      <point x="412.22" y="97.429"/>
      <point x="447" y="17" type="curve"/>
      <point x="453" y="17" type="line"/>
      <point x="458.168" y="32.505"/>
      <point x="504.488" y="142.976"/>
      <point x="512" y="158" type="curve"/>
      <point x="556" y="256.667"/>
      <point x="591" y="335.333"/>
      <point x="627" y="414" type="curve" smooth="yes"/>
      <point x="655.191" y="475.602"/>
      <point x="708.518" y="595.918"/>
      <point x="740" y="671" type="curve"/>
      <point x="740" y="332"/>
      <point x="740" y="194"/>
      <point x="740" y="138" type="curve" smooth="yes"/>
      <point x="740" y="111"/>
      <point x="735" y="83.333"/>
      <point x="727" y="66" type="curve" smooth="yes"/>
      <point x="713.667" y="38"/>
      <point x="673.333" y="13.667"/>
      <point x="616" y="11" type="curve"/>
      <point x="616" y="0" type="line"/>
      <point x="959" y="0" type="line"/>
      <point x="959" y="10" type="line"/>
      <point x="911.347" y="11.986"/>
      <point x="871.167" y="37.667"/>
      <point x="861" y="58" type="curve"/>
      <point x="853" y="72.667"/>
      <point x="850" y="102"/>
      <point x="849" y="127" type="curve" smooth="yes"/>
      <point x="849" y="190"/>
      <point x="849" y="452"/>
      <point x="849" y="583" type="curve" smooth="yes"/>
      <point x="849" y="620"/>
      <point x="856" y="647"/>
      <point x="861" y="655" type="curve" smooth="yes"/>
      <point x="878" y="682"/>
      <point x="898.333" y="708.667"/>
      <point x="953" y="710" type="curve"/>
      <point x="953" y="720" type="line"/>
      <point x="740" y="720" type="line"/>
      <point x="732.62" y="700.319"/>
      <point x="695.905" y="615.323"/>
      <point x="660.5" y="535" type="curve" smooth="yes"/>
      <point x="615.833" y="433.667"/>
      <point x="557.667" y="302.667"/>
      <point x="499" y="176" type="curve"/>
      <point x="260" y="720" type="line"/>
      <point x="47" y="720" type="line"/>
      <point x="47" y="710" type="line"/>
      <point x="71" y="706"/>
      <point x="98" y="699"/>
      <point x="117" y="682" type="curve" smooth="yes"/>
      <point x="133" y="668"/>
      <point x="145" y="647"/>
      <point x="146" y="616" type="curve" smooth="yes"/>
      <point x="148" y="550"/>
      <point x="146" y="268"/>
      <point x="143" y="214" type="curve" smooth="yes"/>
      <point x="140.493" y="86.137"/>
      <point x="120.116" y="29.023"/>
      <point x="25" y="10" type="curve"/>
    </contour>
  </outline>
</glyph>
<glyph name="N" format="2">
  <advance width="875"/>
  <unicode hex="004E"/>
  <note>
N
</note>
  <anchor x="438" y="730" name="top"/>
  <outline>
    <contour>
      <point x="725" y="-3" type="curve" smooth="yes"/>
      <point x="731.667" y="-3"/>
      <point x="735" y="0.667"/>
      <point x="735" y="6" type="curve" smooth="yes"/>
      <point x="735" y="25.333"/>
      <point x="735" y="47"/>
      <point x="735" y="71" type="curve" smooth="yes"/>
      <point x="735" y="95"/>
      <point x="734.833" y="119.167"/>
      <point x="734.5" y="143.5" type="curve" smooth="yes"/>
      <point x="733" y="227"/>
      <point x="735" y="422"/>
      <point x="739" y="506" type="curve" smooth="yes"/>
      <point x="741.667" y="567.333"/>
      <point x="742.667" y="628"/>
      <point x="752" y="648" type="curve"/>
      <point x="768" y="686.667"/>
      <point x="796.667" y="703.333"/>
      <point x="846" y="710" type="curve"/>
      <point x="846" y="720" type="line"/>
      <point x="598" y="720" type="line"/>
      <point x="598" y="710" type="line"/>
      <point x="662" y="700.667"/>
      <point x="693.667" y="677.333"/>
      <point x="707" y="640" type="curve" smooth="yes"/>
      <point x="717.667" y="612"/>
      <point x="717" y="559.333"/>
      <point x="717" y="506" type="curve" smooth="yes"/>
      <point x="717" y="166" type="line"/>
      <point x="243" y="720" type="line"/>
      <point x="40" y="720" type="line"/>
      <point x="40" y="710" type="line"/>
      <point x="91.79" y="703.526"/>
      <point x="143" y="684"/>
      <point x="146" y="612" type="curve" smooth="yes"/>
      <point x="147" y="585"/>
      <point x="147" y="460.333"/>
      <point x="147" y="441" type="curve" smooth="yes"/>
      <point x="147" y="351.667"/>
      <point x="145.667" y="271.333"/>
      <point x="143" y="214" type="curve" smooth="yes"/>
      <point x="140.333" y="138"/>
      <point x="137.667" y="82"/>
      <point x="119" y="54" type="curve" smooth="yes"/>
      <point x="100.333" y="24.667"/>
      <point x="65" y="14"/>
      <point x="33" y="10" type="curve"/>
      <point x="33" y="0" type="line"/>
      <point x="279" y="0" type="line"/>
      <point x="279" y="10" type="line"/>
      <point x="224.333" y="16.667"/>
      <point x="194.667" y="30.333"/>
      <point x="180" y="61" type="curve" smooth="yes"/>
      <point x="166.667" y="87.667"/>
      <point x="165" y="146"/>
      <point x="165" y="214" type="curve" smooth="yes"/>
      <point x="165" y="636" type="line"/>
      <point x="255.667" y="534.667"/>
      <point x="333.833" y="442.833"/>
      <point x="418.5" y="343.5" type="curve" smooth="yes"/>
      <point x="503.167" y="244.167"/>
      <point x="593.667" y="137.667"/>
      <point x="707" y="7" type="curve"/>
      <point x="713.667" y="0.333"/>
      <point x="719.667" y="-3"/>
    </contour>
  </outline>
</glyph>
<glyph name="Q" format="2">
  <advance width="808"/>
  <unicode hex="0051"/>
  <note>
Q
</note>
  <outline>
    <contour>
      <point x="525" y="-151" type="curve" smooth="yes"/>
      <point x="589" y="-151"/>
      <point x="639.333" y="-128.667"/>
      <point x="678" y="-102" type="curve"/>
      <point x="673" y="-94" type="line"/>
      <point x="646.333" y="-104.667"/>
      <point x="625" y="-107"/>
      <point x="601" y="-107" type="curve" smooth="yes"/>
      <point x="530.078" y="-107"/>
      <point x="468" y="-67.535"/>
      <point x="468" y="2" type="curve"/>
      <point x="556" y="18"/>
      <point x="634.167" y="61.167"/>
      <point x="689.5" y="124.5" type="curve" smooth="yes"/>
      <point x="744.833" y="187.833"/>
      <point x="779" y="270.333"/>
      <point x="779" y="365" type="curve" smooth="yes"/>
      <point x="779" y="461"/>
      <point x="744.667" y="552.167"/>
      <point x="682" y="619.5" type="curve" smooth="yes"/>
      <point x="619.333" y="686.833"/>
      <point x="528.333" y="730"/>
      <point x="415" y="730" type="curve" smooth="yes"/>
      <point x="319" y="730"/>
      <point x="229.667" y="701"/>
      <point x="159" y="641" type="curve" smooth="yes"/>
      <point x="72.333" y="567"/>
      <point x="29" y="473.667"/>
      <point x="29" y="361" type="curve" smooth="yes"/>
      <point x="29" y="266.333"/>
      <point x="62.5" y="185.5"/>
      <point x="116.5" y="123.5" type="curve" smooth="yes"/>
      <point x="170.5" y="61.5"/>
      <point x="244.667" y="18.333"/>
      <point x="326" y="1" type="curve"/>
      <point x="339.313" y="-105.503"/>
      <point x="417.624" y="-151"/>
    </contour>
    <contour>
      <point x="406" y="6" type="curve" smooth="yes"/>
      <point x="328.667" y="6"/>
      <point x="265" y="48.667"/>
      <point x="221" y="114" type="curve" smooth="yes"/>
      <point x="177" y="179.333"/>
      <point x="153" y="267.333"/>
      <point x="153" y="358" type="curve" smooth="yes"/>
      <point x="153" y="444.667"/>
      <point x="171.833" y="533.333"/>
      <point x="212.5" y="600" type="curve" smooth="yes"/>
      <point x="253.167" y="666.667"/>
      <point x="316.333" y="713"/>
      <point x="403" y="713" type="curve" smooth="yes"/>
      <point x="569.104" y="713"/>
      <point x="655" y="532.116"/>
      <point x="655" y="364" type="curve" smooth="yes"/>
      <point x="655" y="194.052"/>
      <point x="581.26" y="6"/>
    </contour>
  </outline>
</glyph>
<glyph name="S" format="2">
  <advance width="605"/>
  <unicode hex="0053"/>
  <note>
S
</note>
  <outline>
    <contour>
      <point x="297" y="-7" type="curve" smooth="yes"/>
      <point x="445.258" y="-7"/>
      <point x="558" y="63.98"/>
      <point x="558" y="197" type="curve" smooth="yes"/>
      <point x="558" y="291.667"/>
      <point x="505.667" y="354.667"/>
      <point x="415" y="388" type="curve" smooth="yes"/>
      <point x="374.766" y="402.823"/>
      <point x="311.282" y="422.287"/>
      <point x="272" y="438" type="curve" smooth="yes"/>
      <point x="204" y="463.333"/>
      <point x="157" y="503.333"/>
      <point x="157" y="574" type="curve" smooth="yes"/>
      <point x="157" y="664.037"/>
      <point x="220.816" y="715"/>
      <point x="307" y="715" type="curve" smooth="yes"/>
      <point x="407.148" y="715"/>
      <point x="476.825" y="625.232"/>
      <point x="510" y="534" type="curve"/>
      <point x="521" y="534" type="line"/>
      <point x="521" y="719" type="line"/>
      <point x="510" y="719" type="line"/>
      <point x="499.333" y="703"/>
      <point x="484" y="683"/>
      <point x="480" y="683" type="curve" smooth="yes"/>
      <point x="478.243" y="683"/>
      <point x="457.334" y="698.292"/>
      <point x="437.5" y="707" type="curve" smooth="yes"/>
      <point x="410.167" y="719"/>
      <point x="368" y="731"/>
      <point x="308" y="731" type="curve" smooth="yes"/>
      <point x="175.916" y="731"/>
      <point x="68" y="661.393"/>
      <point x="68" y="522" type="curve" smooth="yes"/>
      <point x="68" y="438.938"/>
      <point x="128.973" y="368.318"/>
      <point x="200" y="341" type="curve" smooth="yes"/>
      <point x="218.421" y="333.792"/>
      <point x="328.443" y="295.959"/>
      <point x="347" y="289" type="curve" smooth="yes"/>
      <point x="412.891" y="264.291"/>
      <point x="462" y="230.664"/>
      <point x="462" y="157" type="curve" smooth="yes"/>
      <point x="462" y="65"/>
      <point x="394.667" y="7"/>
      <point x="296" y="7" type="curve" smooth="yes"/>
      <point x="244.134" y="7"/>
      <point x="191.424" y="32.503"/>
      <point x="161.5" y="60" type="curve" smooth="yes"/>
      <point x="127.422" y="91.315"/>
      <point x="89.058" y="151.827"/>
      <point x="73" y="200" type="curve"/>
      <point x="63" y="200" type="line"/>
      <point x="66" y="1" type="line"/>
      <point x="75" y="1" type="line"/>
      <point x="85.667" y="15.667"/>
      <point x="102" y="36"/>
      <point x="106" y="36" type="curve" smooth="yes"/>
      <point x="110.52" y="36"/>
      <point x="131.647" y="22.131"/>
      <point x="155" y="13.5" type="curve" smooth="yes"/>
      <point x="185.667" y="2.167"/>
      <point x="231.667" y="-7"/>
    </contour>
  </outline>
</glyph>
<glyph name="U" format="2">
  <advance width="834"/>
  <unicode hex="0055"/>
  <note>
U
</note>
  <anchor x="445" y="729" name="top"/>
  <outline>
    <contour>
      <point x="420" y="-10" type="curve" smooth="yes"/>
      <point x="605" y="-10"/>
      <point x="718" y="96"/>
      <point x="718" y="281" type="curve" smooth="yes"/>
      <point x="718" y="497" type="line" smooth="yes"/>
      <point x="718" y="547"/>
      <point x="723.106" y="627.248"/>
      <point x="732" y="648" type="curve" smooth="yes"/>
      <point x="748" y="686.667"/>
      <point x="774.667" y="703.333"/>
      <point x="824" y="710" type="curve"/>
      <point x="824" y="720" type="line"/>
      <point x="576" y="720" type="line"/>
      <point x="576" y="710" type="line"/>
      <point x="640" y="700.667"/>
      <point x="664" y="686"/>
      <point x="680" y="640" type="curve" smooth="yes"/>
      <point x="686" y="623"/>
      <point x="690" y="547"/>
      <point x="690" y="497" type="curve" smooth="yes"/>
      <point x="690" y="284" type="line" smooth="yes"/>
      <point x="690" y="136"/>
      <point x="610" y="22"/>
      <point x="454" y="22" type="curve" smooth="yes"/>
      <point x="321" y="22"/>
      <point x="241" y="115"/>
      <point x="241" y="256" type="curve" smooth="yes"/>
      <point x="241" y="630" type="line" smooth="yes"/>
      <point x="241" y="688"/>
      <point x="287.66" y="703.523"/>
      <point x="333" y="710" type="curve"/>
      <point x="333" y="720" type="line"/>
      <point x="35" y="720" type="line"/>
      <point x="35" y="710" type="line"/>
      <point x="69.667" y="706"/>
      <point x="97.333" y="697.667"/>
      <point x="116" y="675" type="curve" smooth="yes"/>
      <point x="127.257" y="661.866"/>
      <point x="131" y="628"/>
      <point x="130" y="594" type="curve" smooth="yes"/>
      <point x="130" y="252" type="line" smooth="yes"/>
      <point x="130" y="166"/>
      <point x="154" y="96"/>
      <point x="217" y="45.5" type="curve" smooth="yes"/>
      <point x="259.667" y="11.5"/>
      <point x="324" y="-10"/>
    </contour>
  </outline>
</glyph>
<glyph name="V" format="2">
  <advance width="667"/>
  <unicode hex="0056"/>
  <note>
V
</note>
  <outline>
    <contour>
      <point x="325" y="-7" type="curve"/>
      <point x="337" y="-7" type="line"/>
      <point x="386" y="93" type="line"/>
      <point x="410.801" y="157.257"/>
      <point x="454.388" y="270.417"/>
      <point x="482" y="340" type="curve" smooth="yes"/>
      <point x="515.333" y="424"/>
      <point x="548.333" y="506"/>
      <point x="575" y="570" type="curve" smooth="yes"/>
      <point x="596.128" y="621.06"/>
      <point x="618.382" y="662.382"/>
      <point x="634" y="678" type="curve"/>
      <point x="636" y="680.667"/>
      <point x="643.5" y="686"/>
      <point x="656.5" y="694" type="curve" smooth="yes"/>
      <point x="669.5" y="702"/>
      <point x="684.667" y="707"/>
      <point x="702" y="709" type="curve"/>
      <point x="702" y="720" type="line"/>
      <point x="469" y="720" type="line"/>
      <point x="469" y="710" type="line"/>
      <point x="506.673" y="707.102"/>
      <point x="565" y="691.46"/>
      <point x="565" y="654" type="curve" smooth="yes"/>
      <point x="565" y="646.667"/>
      <point x="563" y="633.5"/>
      <point x="559" y="614.5" type="curve" smooth="yes"/>
      <point x="555" y="595.5"/>
      <point x="546.333" y="567.667"/>
      <point x="533" y="531" type="curve" smooth="yes"/>
      <point x="497" y="435"/>
      <point x="462.833" y="344.333"/>
      <point x="435.5" y="275" type="curve" smooth="yes"/>
      <point x="413.878" y="220.154"/>
      <point x="390.603" y="158.727"/>
      <point x="383" y="142" type="curve"/>
      <point x="375.667" y="162"/>
      <point x="365.667" y="187.667"/>
      <point x="353" y="219" type="curve" smooth="yes"/>
      <point x="327.667" y="281.667"/>
      <point x="298.333" y="356.167"/>
      <point x="269" y="431.5" type="curve" smooth="yes"/>
      <point x="248.802" y="483.372"/>
      <point x="190" y="624.379"/>
      <point x="190" y="659" type="curve" smooth="yes"/>
      <point x="190" y="698.196"/>
      <point x="242.087" y="704.617"/>
      <point x="269" y="710" type="curve"/>
      <point x="269" y="720" type="line"/>
      <point x="-30" y="720" type="line"/>
      <point x="-30" y="709" type="line"/>
      <point x="21.746" y="706.75"/>
      <point x="47.202" y="676.595"/>
      <point x="59" y="653" type="curve" smooth="yes"/>
      <point x="72.475" y="626.05"/>
      <point x="94.815" y="578.358"/>
      <point x="106" y="548" type="curve" smooth="yes"/>
      <point x="139.333" y="462.667"/>
      <point x="172" y="379.667"/>
      <point x="208" y="289" type="curve" smooth="yes"/>
      <point x="236.635" y="216.881"/>
      <point x="290.393" y="77.945"/>
    </contour>
  </outline>
</glyph>
<glyph name="W" format="2">
  <advance width="991"/>
  <unicode hex="0057"/>
  <note>
W
</note>
  <outline>
    <contour>
      <point x="308" y="-3" type="curve"/>
      <point x="320" y="-3" type="line"/>
      <point x="364" y="95" type="line"/>
      <point x="386.667" y="157.667"/>
      <point x="411" y="225.667"/>
      <point x="435" y="295" type="curve" smooth="yes"/>
      <point x="454.63" y="351.708"/>
      <point x="487.581" y="443.92"/>
      <point x="505" y="494" type="curve"/>
      <point x="527.451" y="434.131"/>
      <point x="564.793" y="326.426"/>
      <point x="587.5" y="262" type="curve" smooth="yes"/>
      <point x="616.167" y="180.667"/>
      <point x="647" y="93"/>
      <point x="683" y="-3" type="curve"/>
      <point x="693" y="-3" type="line"/>
      <point x="735" y="93" type="line"/>
      <point x="756.488" y="157.463"/>
      <point x="796.103" y="271.442"/>
      <point x="819.5" y="340" type="curve" smooth="yes"/>
      <point x="842.699" y="407.978"/>
      <point x="880.474" y="514.264"/>
      <point x="899" y="571" type="curve" smooth="yes"/>
      <point x="917.721" y="625.292"/>
      <point x="938.601" y="661.601"/>
      <point x="958" y="681" type="curve"/>
      <point x="960" y="683.667"/>
      <point x="966.833" y="688.667"/>
      <point x="978.5" y="696" type="curve" smooth="yes"/>
      <point x="990.167" y="703.333"/>
      <point x="1004.333" y="708"/>
      <point x="1021" y="710" type="curve"/>
      <point x="1021" y="720" type="line"/>
      <point x="801" y="720" type="line"/>
      <point x="801" y="710" type="line"/>
      <point x="835.563" y="707.12"/>
      <point x="887" y="691.573"/>
      <point x="887" y="655" type="curve" smooth="yes"/>
      <point x="887" y="648.333"/>
      <point x="886.333" y="638"/>
      <point x="885" y="624" type="curve" smooth="yes"/>
      <point x="883.667" y="610"/>
      <point x="878.333" y="587.667"/>
      <point x="869" y="557" type="curve" smooth="yes"/>
      <point x="861.667" y="533"/>
      <point x="853.5" y="507.167"/>
      <point x="844.5" y="479.5" type="curve" smooth="yes"/>
      <point x="829.783" y="434.258"/>
      <point x="805.305" y="358.868"/>
      <point x="790.5" y="315" type="curve" smooth="yes"/>
      <point x="777.706" y="277.093"/>
      <point x="745.394" y="179.92"/>
      <point x="736" y="158" type="curve"/>
      <point x="731.333" y="170.667"/>
      <point x="723.833" y="191.167"/>
      <point x="713.5" y="219.5" type="curve" smooth="yes"/>
      <point x="695.937" y="267.657"/>
      <point x="661.917" y="363.706"/>
      <point x="639" y="427" type="curve" smooth="yes"/>
      <point x="619.456" y="480.978"/>
      <point x="562" y="625.763"/>
      <point x="562" y="659" type="curve" smooth="yes"/>
      <point x="562" y="698.223"/>
      <point x="626.235" y="705.206"/>
      <point x="655" y="710" type="curve"/>
      <point x="655" y="720" type="line"/>
      <point x="342" y="720" type="line"/>
      <point x="342" y="709" type="line"/>
      <point x="399.292" y="706.613"/>
      <point x="425.764" y="682.472"/>
      <point x="440" y="654" type="curve" smooth="yes"/>
      <point x="458.667" y="615.333"/>
      <point x="473" y="577.333"/>
      <point x="493" y="524" type="curve"/>
      <point x="463.667" y="432"/>
      <point x="433" y="344.833"/>
      <point x="409" y="277.5" type="curve" smooth="yes"/>
      <point x="390.28" y="224.98"/>
      <point x="369.399" y="166.397"/>
      <point x="364" y="152" type="curve"/>
      <point x="356.667" y="172"/>
      <point x="347" y="197.5"/>
      <point x="335" y="228.5" type="curve" smooth="yes"/>
      <point x="311" y="290.5"/>
      <point x="282.833" y="363.667"/>
      <point x="255.5" y="437" type="curve" smooth="yes"/>
      <point x="236.763" y="487.271"/>
      <point x="180" y="625.096"/>
      <point x="180" y="659" type="curve" smooth="yes"/>
      <point x="180" y="699.189"/>
      <point x="230.739" y="710"/>
      <point x="254" y="710" type="curve"/>
      <point x="254" y="720" type="line"/>
      <point x="-28" y="720" type="line"/>
      <point x="-28" y="709" type="line"/>
      <point x="22.003" y="706.727"/>
      <point x="44.471" y="677.058"/>
      <point x="56" y="654" type="curve" smooth="yes"/>
      <point x="66.43" y="633.139"/>
      <point x="86.919" y="581.791"/>
      <point x="99" y="549" type="curve" smooth="yes"/>
      <point x="131" y="465"/>
      <point x="162.5" y="381.5"/>
      <point x="196.5" y="291.5" type="curve" smooth="yes"/>
      <point x="224.027" y="218.635"/>
      <point x="275.492" y="81.94"/>
    </contour>
  </outline>
</glyph>
<glyph name="X" format="2">
  <advance width="708"/>
  <unicode hex="0058"/>
  <note>
X
</note>
  <outline>
    <contour>
      <point x="-17" y="0" type="line"/>
      <point x="248" y="0" type="line"/>
      <point x="248" y="10" type="line"/>
      <point x="208.685" y="15.616"/>
      <point x="156" y="31.786"/>
      <point x="156" y="69" type="curve" smooth="yes"/>
      <point x="156" y="93"/>
      <point x="173.333" y="120.333"/>
      <point x="192" y="147" type="curve" smooth="yes"/>
      <point x="220.178" y="186.919"/>
      <point x="295.358" y="277.675"/>
      <point x="331" y="320" type="curve"/>
      <point x="381.667" y="249.333"/>
      <point x="420.333" y="194"/>
      <point x="451" y="146" type="curve" smooth="yes"/>
      <point x="473.667" y="111.333"/>
      <point x="494" y="77.667"/>
      <point x="494" y="59" type="curve" smooth="yes"/>
      <point x="494" y="21.698"/>
      <point x="442.351" y="15.764"/>
      <point x="402" y="10" type="curve"/>
      <point x="402" y="0" type="line"/>
      <point x="726" y="0" type="line"/>
      <point x="726" y="10" type="line"/>
      <point x="669.472" y="18.075"/>
      <point x="632.458" y="74.635"/>
      <point x="586" y="142" type="curve"/>
      <point x="572.188" y="163.705"/>
      <point x="515.752" y="241.654"/>
      <point x="492" y="275.5" type="curve" smooth="yes"/>
      <point x="470.1" y="306.707"/>
      <point x="415.43" y="384.855"/>
      <point x="408" y="396" type="curve"/>
      <point x="424.454" y="415.745"/>
      <point x="540.458" y="556.833"/>
      <point x="561" y="581" type="curve" smooth="yes"/>
      <point x="619.667" y="651.667"/>
      <point x="666" y="695.333"/>
      <point x="734" y="710" type="curve"/>
      <point x="734" y="720" type="line"/>
      <point x="473" y="720" type="line"/>
      <point x="473" y="710" type="line"/>
      <point x="508.917" y="704.474"/>
      <point x="564" y="688.182"/>
      <point x="564" y="652" type="curve" smooth="yes"/>
      <point x="564" y="630.667"/>
      <point x="540" y="593.333"/>
      <point x="524" y="572" type="curve" smooth="yes"/>
      <point x="506.667" y="550"/>
      <point x="486.5" y="524"/>
      <point x="463.5" y="494" type="curve" smooth="yes"/>
      <point x="440.5" y="464"/>
      <point x="418" y="436.333"/>
      <point x="396" y="411" type="curve"/>
      <point x="371.333" y="446.333"/>
      <point x="350.333" y="476.5"/>
      <point x="333" y="501.5" type="curve" smooth="yes"/>
      <point x="315.667" y="526.5"/>
      <point x="298.667" y="551"/>
      <point x="282" y="575" type="curve" smooth="yes"/>
      <point x="258" y="609.667"/>
      <point x="236" y="642.333"/>
      <point x="236" y="661" type="curve" smooth="yes"/>
      <point x="236" y="696.316"/>
      <point x="292.812" y="707.062"/>
      <point x="331" y="710" type="curve"/>
      <point x="331" y="720" type="line"/>
      <point x="5" y="720" type="line"/>
      <point x="5" y="710" type="line"/>
      <point x="68.785" y="690.587"/>
      <point x="96.275" y="649.43"/>
      <point x="148" y="578" type="curve" smooth="yes"/>
      <point x="180.573" y="533.212"/>
      <point x="305.344" y="355.541"/>
      <point x="320" y="336" type="curve"/>
      <point x="301.73" y="314.076"/>
      <point x="174.981" y="160.779"/>
      <point x="154" y="137" type="curve" smooth="yes"/>
      <point x="94" y="69"/>
      <point x="36.333" y="24.667"/>
      <point x="-17" y="10" type="curve"/>
    </contour>
  </outline>
</glyph>
<glyph name="bracketleft" format="2">
  <advance width="286"/>
  <unicode hex="005B"/>
  <note>
bracketleft
</note>
  <outline>
    <contour>
      <point x="49" y="-106" type="line"/>
      <point x="276" y="-106" type="line"/>
      <point x="276" y="-82" type="line"/>
      <point x="97" y="-82" type="line"/>
      <point x="97" y="696" type="line"/>
      <point x="276" y="696" type="line"/>
      <point x="276" y="720" type="line"/>
      <point x="49" y="720" type="line"/>
    </contour>
  </outline>
</glyph>
<glyph name="backslash" format="2">
  <advance width="311"/>
  <unicode hex="005C"/>
  <note>
backslash
</note>
  <outline>
    <contour>
      <point x="329" y="-143" type="line"/>
      <point x="362" y="-131" type="line"/>
      <point x="-8" y="760" type="line"/>
      <point x="-41" y="747" type="line"/>
    </contour>
  </outline>
</glyph>
<glyph name="asciicircum" format="2">
  <advance width="254"/>
  <unicode hex="005E"/>
  <note>
asciicircum
</note>
  <outline>
    <contour>
      <point x="206" y="520" type="line"/>
      <point x="218" y="527" type="line"/>
      <point x="129" y="698" type="line"/>
      <point x="114" y="698" type="line"/>
      <point x="23" y="528" type="line"/>
      <point x="35" y="521" type="line"/>
      <point x="121" y="633" type="line"/>
    </contour>
  </outline>
</glyph>
<glyph name="underscore" format="2">
  <advance width="500"/>
  <unicode hex="005F"/>
  <note>
underscore
</note>
  <outline>
    <contour>
      <point x="0" y="-130" type="line"/>
      <point x="500" y="-130" type="line"/>
      <point x="500" y="-96" type="line"/>
      <point x="0" y="-96" type="line"/>
    </contour>
  </outline>
</glyph>
<glyph name="grave" format="2">
  <unicode hex="0060"/>
  <note>
grave
</note>
  <anchor x="4" y="481" name="_top"/>
  <outline>
    <contour>
      <point x="-5" y="514" type="line"/>
      <point x="5" y="520" type="line"/>
      <point x="-96" y="696" type="line"/>
      <point x="-125" y="696"/>
      <point x="-134" y="683"/>
      <point x="-142" y="672" type="curve"/>
      <point x="-142" y="667" type="line"/>
    </contour>
  </outline>
</glyph>
<glyph name="b" format="2">
  <advance width="538"/>
  <unicode hex="0062"/>
  <note>
b
</note>
  <outline>
    <contour>
      <point x="284" y="-5" type="curve" smooth="yes"/>
      <point x="420" y="-5"/>
      <point x="519" y="101"/>
      <point x="519" y="238" type="curve" smooth="yes"/>
      <point x="519" y="365"/>
      <point x="447" y="479"/>
      <point x="324" y="479" type="curve" smooth="yes"/>
      <point x="252" y="479"/>
      <point x="175" y="423"/>
      <point x="150" y="366" type="curve"/>
      <point x="149" y="366" type="line"/>
      <point x="149" y="722" type="line"/>
      <point x="141" y="722" type="line"/>
      <point x="7" y="661" type="line"/>
      <point x="7" y="655" type="line"/>
      <point x="65" y="622" type="line"/>
      <point x="65" y="-1" type="line"/>
      <point x="72" y="-1" type="line"/>
      <point x="96" y="53" type="line"/>
      <point x="101" y="53" type="line"/>
      <point x="144" y="17"/>
      <point x="208" y="-5"/>
    </contour>
    <contour>
      <point x="287" y="9" type="curve" smooth="yes"/>
      <point x="216" y="9"/>
      <point x="151" y="95"/>
      <point x="148" y="189" type="curve" smooth="yes"/>
      <point x="147" y="202"/>
      <point x="148" y="330"/>
      <point x="148" y="338" type="curve" smooth="yes"/>
      <point x="148" y="364"/>
      <point x="200" y="416"/>
      <point x="268" y="416" type="curve" smooth="yes"/>
      <point x="374" y="416"/>
      <point x="427" y="327"/>
      <point x="427" y="224" type="curve" smooth="yes"/>
      <point x="427" y="107"/>
      <point x="376" y="9"/>
    </contour>
  </outline>
</glyph>
<glyph name="c" format="2">
  <advance width="432"/>
  <unicode hex="0063"/>
  <note>
c
</note>
  <anchor x="240" y="-2" name="bottom"/>
  <outline>
    <contour>
      <point x="241" y="-3" type="curve" smooth="yes"/>
      <point x="339.14" y="-3"/>
      <point x="415.505" y="58.016"/>
      <point x="441" y="143" type="curve"/>
      <point x="433" y="147" type="line"/>
      <point x="401" y="93.667"/>
      <point x="357.667" y="66"/>
      <point x="275" y="66" type="curve" smooth="yes"/>
      <point x="168.819" y="66"/>
      <point x="105" y="149.674"/>
      <point x="105" y="268" type="curve" smooth="yes"/>
      <point x="105" y="371.587"/>
      <point x="163.46" y="467"/>
      <point x="248" y="467" type="curve" smooth="yes"/>
      <point x="304" y="467"/>
      <point x="328" y="430"/>
      <point x="329" y="381" type="curve" smooth="yes"/>
      <point x="329" y="368"/>
      <point x="324" y="357"/>
      <point x="324" y="347" type="curve" smooth="yes"/>
      <point x="324" y="326"/>
      <point x="349.333" y="312"/>
      <point x="372" y="312" type="curve" smooth="yes"/>
      <point x="400" y="312"/>
      <point x="424" y="336"/>
      <point x="424" y="364" type="curve" smooth="yes"/>
      <point x="424" y="440.445"/>
      <point x="332.942" y="483"/>
      <point x="246" y="483" type="curve" smooth="yes"/>
      <point x="116.805" y="483"/>
      <point x="20" y="369.68"/>
      <point x="20" y="242" type="curve" smooth="yes"/>
      <point x="20" y="104.135"/>
      <point x="111.341" y="-3"/>
    </contour>
  </outline>
</glyph>
<glyph name="e" format="2">
  <advance width="435"/>
  <unicode hex="0065"/>
  <note>
e
</note>
  <anchor x="232" y="483" name="top"/>
  <outline>
    <contour>
      <point x="245" y="-1" type="curve" smooth="yes"/>
      <point x="348.238" y="-1"/>
      <point x="419.868" y="79.772"/>
      <point x="433" y="152" type="curve"/>
      <point x="425" y="154" type="line"/>
      <point x="409" y="104.667"/>
      <point x="354.667" y="66"/>
      <point x="288" y="66" type="curve" smooth="yes"/>
      <point x="168.591" y="66"/>
      <point x="96" y="161"/>
      <point x="102" y="278" type="curve" smooth="yes"/>
      <point x="104" y="318" type="line"/>
      <point x="425" y="318" type="line"/>
      <point x="417.12" y="428.321"/>
      <point x="337.569" y="483"/>
      <point x="231" y="483" type="curve" smooth="yes"/>
      <point x="105.938" y="483"/>
      <point x="19" y="367.847"/>
      <point x="19" y="251" type="curve" smooth="yes"/>
      <point x="19" y="108.701"/>
      <point x="107.763" y="-1"/>
    </contour>
    <contour>
      <point x="106" y="332" type="curve"/>
      <point x="113.064" y="374.383"/>
      <point x="162.917" y="466"/>
      <point x="232" y="466" type="curve" smooth="yes"/>
      <point x="289.333" y="466"/>
      <point x="339" y="425"/>
      <point x="339" y="376" type="curve" smooth="yes"/>
      <point x="339" y="357"/>
      <point x="331" y="348"/>
      <point x="319" y="340" type="curve" smooth="yes"/>
      <point x="307" y="332"/>
      <point x="281" y="332"/>
      <point x="261" y="332" type="curve" smooth="yes"/>
      <point x="147" y="332" type="line" smooth="yes"/>
      <point x="135" y="332"/>
      <point x="121" y="332"/>
    </contour>
  </outline>
</glyph>
<glyph name="f" format="2">
  <advance width="270"/>
  <unicode hex="0066"/>
  <note>
f
</note>
  <outline>
    <contour>
      <point x="0" y="0" type="line"/>
      <point x="254" y="0" type="line"/>
      <point x="254" y="10" type="line"/>
      <point x="218.162" y="14.778"/>
      <point x="168" y="13"/>
      <point x="168" y="39" type="curve" smooth="yes"/>
      <point x="168" y="429" type="line"/>
      <point x="274" y="429" type="line"/>
      <point x="287" y="473" type="line"/>
      <point x="169" y="473" type="line"/>
      <point x="169" y="521"/>
      <point x="169.333" y="552.667"/>
      <point x="172" y="606" type="curve" smooth="yes"/>
      <point x="176.454" y="675.042"/>
      <point x="211.788" y="699"/>
      <point x="242" y="699" type="curve" smooth="yes"/>
      <point x="290" y="699"/>
      <point x="286.865" y="627"/>
      <point x="337" y="627" type="curve" smooth="yes"/>
      <point x="362.333" y="627"/>
      <point x="379" y="651"/>
      <point x="379" y="675" type="curve" smooth="yes"/>
      <point x="379" y="710.644"/>
      <point x="335.879" y="726"/>
      <point x="297" y="726" type="curve" smooth="yes"/>
      <point x="216.229" y="726"/>
      <point x="131.763" y="680.231"/>
      <point x="102" y="618" type="curve" smooth="yes"/>
      <point x="87.333" y="588.667"/>
      <point x="86" y="529"/>
      <point x="86" y="473" type="curve"/>
      <point x="24" y="473" type="line"/>
      <point x="13" y="429" type="line"/>
      <point x="85" y="429" type="line"/>
      <point x="85" y="42" type="line" smooth="yes"/>
      <point x="85" y="21.594"/>
      <point x="29.004" y="12.637"/>
      <point x="0" y="10" type="curve"/>
    </contour>
  </outline>
</glyph>
<glyph name="h" format="2">
  <advance width="524"/>
  <unicode hex="0068"/>
  <note>
h
</note>
  <outline>
    <contour>
      <point x="25" y="0" type="line"/>
      <point x="224" y="0" type="line"/>
      <point x="224" y="10" type="line"/>
      <point x="197" y="16"/>
      <point x="168" y="17"/>
      <point x="168" y="48" type="curve" smooth="yes"/>
      <point x="168" y="345" type="line"/>
      <point x="241" y="456"/>
      <point x="371" y="466"/>
      <point x="371" y="347" type="curve" smooth="yes"/>
      <point x="371" y="38" type="line" smooth="yes"/>
      <point x="371" y="19"/>
      <point x="338" y="15"/>
      <point x="308" y="9" type="curve"/>
      <point x="308" y="0" type="line"/>
      <point x="514" y="0" type="line"/>
      <point x="514" y="9" type="line"/>
      <point x="483" y="16"/>
      <point x="455" y="20"/>
      <point x="455" y="37" type="curve" smooth="yes"/>
      <point x="455" y="330" type="line" smooth="yes"/>
      <point x="455" y="575"/>
      <point x="231" y="487"/>
      <point x="166" y="379" type="curve"/>
      <point x="169" y="726" type="line"/>
      <point x="161" y="726" type="line"/>
      <point x="27" y="665" type="line"/>
      <point x="27" y="659" type="line"/>
      <point x="85" y="614" type="line"/>
      <point x="85" y="46" type="line" smooth="yes"/>
      <point x="85" y="20"/>
      <point x="51" y="17"/>
      <point x="25" y="10" type="curve"/>
    </contour>
  </outline>
</glyph>
<glyph name="i" format="2">
  <advance width="254"/>
  <unicode hex="0069"/>
  <note>
i
</note>
  <outline>
    <contour>
      <point x="18" y="0" type="line"/>
      <point x="233" y="0" type="line"/>
      <point x="233" y="10" type="line"/>
      <point x="206.178" y="15.364"/>
      <point x="169" y="9"/>
      <point x="169" y="36" type="curve" smooth="yes"/>
      <point x="169" y="483" type="line"/>
      <point x="163" y="483" type="line"/>
      <point x="28" y="439" type="line"/>
      <point x="28" y="433" type="line"/>
      <point x="46.667" y="426.333"/>
      <point x="64" y="418"/>
      <point x="76" y="410" type="curve" smooth="yes"/>
      <point x="85.333" y="403.333"/>
      <point x="86" y="395.667"/>
      <point x="86" y="385" type="curve" smooth="yes"/>
      <point x="86" y="42" type="line" smooth="yes"/>
      <point x="86" y="16.974"/>
      <point x="47.53" y="12.461"/>
      <point x="18" y="10" type="curve"/>
    </contour>
    <contour>
      <point x="123" y="587" type="curve" smooth="yes"/>
      <point x="153.667" y="587"/>
      <point x="177" y="610.333"/>
      <point x="177" y="641" type="curve" smooth="yes"/>
      <point x="177" y="671.667"/>
      <point x="153.667" y="694"/>
      <point x="123" y="694" type="curve" smooth="yes"/>
      <point x="92.333" y="694"/>
      <point x="69" y="671.667"/>
      <point x="69" y="641" type="curve" smooth="yes"/>
      <point x="69" y="611.667"/>
      <point x="93.667" y="587"/>
    </contour>
  </outline>
</glyph>
<glyph name="k" format="2">
  <advance width="488"/>
  <unicode hex="006B"/>
  <note>
k
</note>
  <outline>
    <contour>
      <point x="25" y="0" type="line"/>
      <point x="224" y="0" type="line"/>
      <point x="224" y="10" type="line"/>
      <point x="197.111" y="15.378"/>
      <point x="168" y="13.483"/>
      <point x="168" y="38" type="curve" smooth="yes"/>
      <point x="168" y="234" type="line"/>
      <point x="173.333" y="236.667"/>
      <point x="177.333" y="237"/>
      <point x="184" y="237" type="curve" smooth="yes"/>
      <point x="192.667" y="237"/>
      <point x="202.333" y="229.667"/>
      <point x="213" y="215" type="curve" smooth="yes"/>
      <point x="229.918" y="192.443"/>
      <point x="333" y="47.815"/>
      <point x="333" y="31" type="curve" smooth="yes"/>
      <point x="333" y="12.333"/>
      <point x="312.667" y="11.333"/>
      <point x="286" y="10" type="curve"/>
      <point x="286" y="0" type="line"/>
      <point x="528" y="0" type="line"/>
      <point x="528" y="10" type="line"/>
      <point x="502.667" y="10"/>
      <point x="477.667" y="13.333"/>
      <point x="467" y="16" type="curve"/>
      <point x="451" y="28"/>
      <point x="431.333" y="49.333"/>
      <point x="408" y="80" type="curve" smooth="yes"/>
      <point x="369.333" y="130.667"/>
      <point x="315.667" y="212.667"/>
      <point x="257" y="302" type="curve"/>
      <point x="293" y="335.333"/>
      <point x="335.333" y="375"/>
      <point x="378" y="411" type="curve" smooth="yes"/>
      <point x="421.989" y="448.705"/>
      <point x="497.829" y="463"/>
      <point x="526" y="463" type="curve"/>
      <point x="526" y="473" type="line"/>
      <point x="281" y="473" type="line"/>
      <point x="281" y="463" type="line"/>
      <point x="309.669" y="463"/>
      <point x="361" y="454.41"/>
      <point x="361" y="437" type="curve" smooth="yes"/>
      <point x="361" y="424.605"/>
      <point x="324.656" y="388.627"/>
      <point x="294" y="358.5" type="curve" smooth="yes"/>
      <point x="255.333" y="320.5"/>
      <point x="206.667" y="277"/>
      <point x="168" y="245" type="curve"/>
      <point x="168" y="723" type="line"/>
      <point x="160" y="723" type="line"/>
      <point x="27" y="662" type="line"/>
      <point x="27" y="656" type="line"/>
      <point x="66.542" y="634.708"/>
      <point x="85" y="632.892"/>
      <point x="85" y="607" type="curve" smooth="yes"/>
      <point x="85" y="42" type="line" smooth="yes"/>
      <point x="85" y="16.667"/>
      <point x="55.667" y="12.667"/>
      <point x="25" y="10" type="curve"/>
    </contour>
  </outline>
</glyph>
<glyph name="r" format="2">
  <advance width="357"/>
  <unicode hex="0072"/>
  <note>
r
</note>
  <outline>
    <contour>
      <point x="29" y="0" type="line"/>
      <point x="253" y="0" type="line"/>
      <point x="253" y="10" type="line"/>
      <point x="222" y="15"/>
      <point x="168" y="20"/>
      <point x="168" y="48" type="curve" smooth="yes"/>
      <point x="168" y="324" type="line"/>
      <point x="183.65" y="363.125"/>
      <point x="211.011" y="415"/>
      <point x="245" y="415" type="curve" smooth="yes"/>
      <point x="283.184" y="415"/>
      <point x="280.435" y="379"/>
      <point x="324" y="379" type="curve" smooth="yes"/>
      <point x="346.667" y="379"/>
      <point x="367" y="400.667"/>
      <point x="367" y="430" type="curve" smooth="yes"/>
      <point x="367" y="460.667"/>
      <point x="340.333" y="483"/>
      <point x="307" y="483" type="curve" smooth="yes"/>
      <point x="229.875" y="483"/>
      <point x="186.623" y="391.096"/>
      <point x="167" y="344" type="curve"/>
      <point x="165" y="344" type="line"/>
      <point x="167" y="483" type="line"/>
      <point x="161" y="483" type="line"/>
      <point x="30" y="432" type="line"/>
      <point x="30" y="426" type="line"/>
      <point x="38" y="422.667"/>
      <point x="46" y="420"/>
      <point x="54" y="415" type="curve" smooth="yes"/>
      <point x="62" y="410"/>
      <point x="85" y="399"/>
      <point x="85" y="380" type="curve" smooth="yes"/>
      <point x="85" y="42" type="line" smooth="yes"/>
      <point x="85" y="20.667"/>
      <point x="59.667" y="12.667"/>
      <point x="29" y="10" type="curve"/>
    </contour>
  </outline>
</glyph>
<glyph name="s" format="2">
  <advance width="382"/>
  <unicode hex="0073"/>
  <note>
s
</note>
  <outline>
    <contour>
      <point x="182" y="-2" type="curve" smooth="yes"/>
      <point x="283.379" y="-2"/>
      <point x="369" y="42.436"/>
      <point x="369" y="146" type="curve" smooth="yes"/>
      <point x="369" y="214"/>
      <point x="321" y="263.333"/>
      <point x="261" y="278" type="curve" smooth="yes"/>
      <point x="241" y="283"/>
      <point x="188" y="295"/>
      <point x="168" y="299" type="curve" smooth="yes"/>
      <point x="125.333" y="309.667"/>
      <point x="94" y="326.667"/>
      <point x="94" y="376" type="curve" smooth="yes"/>
      <point x="94" y="434.131"/>
      <point x="136.535" y="469"/>
      <point x="185" y="469" type="curve" smooth="yes"/>
      <point x="261.685" y="469"/>
      <point x="294.841" y="410.627"/>
      <point x="332" y="331" type="curve"/>
      <point x="340" y="333" type="line"/>
      <point x="328" y="457" type="line"/>
      <point x="289.333" y="471.667"/>
      <point x="249" y="483"/>
      <point x="193" y="483" type="curve" smooth="yes"/>
      <point x="106.749" y="483"/>
      <point x="32" y="429.776"/>
      <point x="32" y="347" type="curve" smooth="yes"/>
      <point x="32" y="287"/>
      <point x="66.333" y="242.333"/>
      <point x="117" y="225" type="curve" smooth="yes"/>
      <point x="143.667" y="215.667"/>
      <point x="178" y="207.667"/>
      <point x="214" y="201" type="curve" smooth="yes"/>
      <point x="259.333" y="191.667"/>
      <point x="287" y="163.333"/>
      <point x="287" y="122" type="curve" smooth="yes"/>
      <point x="287" y="46"/>
      <point x="246" y="10"/>
      <point x="182" y="10" type="curve" smooth="yes"/>
      <point x="98.992" y="10"/>
      <point x="58.703" y="89.892"/>
      <point x="35" y="161" type="curve"/>
      <point x="27" y="161" type="line"/>
      <point x="27" y="29" type="line"/>
      <point x="71" y="9"/>
      <point x="123.333" y="-2"/>
    </contour>
  </outline>
</glyph>
<glyph name="y" format="2">
  <advance width="416"/>
  <unicode hex="0079"/>
  <note>
y
</note>
  <anchor x="237" y="478" name="top"/>
  <outline>
    <contour>
      <point x="103" y="-240" type="curve" smooth="yes"/>
      <point x="133.667" y="-240"/>
      <point x="166" y="-218.667"/>
      <point x="182" y="-168" type="curve" smooth="yes"/>
      <point x="218" y="-54"/>
      <point x="242.167" y="23"/>
      <point x="254.5" y="63" type="curve" smooth="yes"/>
      <point x="266.833" y="103"/>
      <point x="298" y="201"/>
      <point x="306" y="227.5" type="curve" smooth="yes"/>
      <point x="332.102" y="310.158"/>
      <point x="370.295" y="433.251"/>
      <point x="379" y="442.5" type="curve" smooth="yes"/>
      <point x="394.647" y="459.125"/>
      <point x="420.184" y="460.099"/>
      <point x="443" y="462" type="curve"/>
      <point x="443" y="473" type="line"/>
      <point x="289" y="473" type="line"/>
      <point x="289" y="462" type="line"/>
      <point x="316.848" y="458.906"/>
      <point x="345" y="457.233"/>
      <point x="345" y="433" type="curve" smooth="yes"/>
      <point x="345" y="408.08"/>
      <point x="256.914" y="126.438"/>
      <point x="247" y="100" type="curve"/>
      <point x="230.578" y="143.793"/>
      <point x="194.219" y="244.597"/>
      <point x="176.5" y="293.5" type="curve" smooth="yes"/>
      <point x="161.956" y="333.642"/>
      <point x="132" y="415.35"/>
      <point x="132" y="430" type="curve" smooth="yes"/>
      <point x="132" y="455.333"/>
      <point x="156" y="458"/>
      <point x="184" y="462" type="curve"/>
      <point x="184" y="473" type="line"/>
      <point x="-34" y="473" type="line"/>
      <point x="-34" y="462" type="line"/>
      <point x="-11.333" y="460.667"/>
      <point x="4.167" y="458"/>
      <point x="12.5" y="454" type="curve" smooth="yes"/>
      <point x="20.833" y="450"/>
      <point x="30" y="446"/>
      <point x="34" y="438" type="curve" smooth="yes"/>
      <point x="46" y="412"/>
      <point x="55" y="380.667"/>
      <point x="67" y="348" type="curve" smooth="yes"/>
      <point x="86.883" y="293.875"/>
      <point x="120.049" y="203.203"/>
      <point x="140" y="150" type="curve" smooth="yes"/>
      <point x="156.788" y="105.232"/>
      <point x="199" y="-7"/>
      <point x="206" y="-28" type="curve"/>
      <point x="202.116" y="-47.421"/>
      <point x="174.314" y="-141.049"/>
      <point x="156" y="-186" type="curve"/>
      <point x="154" y="-186" type="line"/>
      <point x="135.333" y="-168.667"/>
      <point x="119.667" y="-149"/>
      <point x="93" y="-149" type="curve" smooth="yes"/>
      <point x="66.333" y="-149"/>
      <point x="49" y="-168.333"/>
      <point x="49" y="-195" type="curve" smooth="yes"/>
      <point x="49" y="-221.667"/>
      <point x="76.333" y="-240"/>
    </contour>
  </outline>
</glyph>
<glyph name="bar" format="2">
  <advance width="246"/>
  <unicode hex="007C"/>
  <note>
bar
</note>
  <outline>
    <contour>
      <point x="83" y="-21" type="line"/>
      <point x="163" y="-21" type="line"/>
      <point x="163" y="780" type="line"/>
      <point x="83" y="780" type="line"/>
    </contour>
  </outline>
</glyph>
<glyph name="braceright" format="2">
  <advance width="286"/>
  <unicode hex="007D"/>
  <note>
braceright
</note>
  <outline>
    <contour>
      <point x="106" y="-120" type="curve" smooth="yes"/>
      <point x="145.707" y="-120"/>
      <point x="218" y="-63.159"/>
      <point x="218" y="-8" type="curve" smooth="yes"/>
      <point x="218" y="77.097"/>
      <point x="120" y="96.412"/>
      <point x="120" y="180" type="curve" smooth="yes"/>
      <point x="120" y="249.389"/>
      <point x="189.753" y="295"/>
      <point x="247" y="295" type="curve"/>
      <point x="247" y="307" type="line"/>
      <point x="187.753" y="307"/>
      <point x="120" y="351.246"/>
      <point x="120" y="422" type="curve" smooth="yes"/>
      <point x="120" y="508.084"/>
      <point x="220" y="523.594"/>
      <point x="220" y="612" type="curve" smooth="yes"/>
      <point x="220" y="667.382"/>
      <point x="145.368" y="724"/>
      <point x="106" y="724" type="curve" smooth="yes"/>
      <point x="94" y="724"/>
      <point x="85" y="716.667"/>
      <point x="85" y="706" type="curve" smooth="yes"/>
      <point x="85" y="699.333"/>
      <point x="86.667" y="692.667"/>
      <point x="90" y="686" type="curve"/>
      <point x="100" y="686"/>
      <point x="110.667" y="686"/>
      <point x="122" y="686" type="curve" smooth="yes"/>
      <point x="159.448" y="686"/>
      <point x="190" y="673.435"/>
      <point x="190" y="629" type="curve" smooth="yes"/>
      <point x="190" y="544.886"/>
      <point x="81" y="523.431"/>
      <point x="81" y="423" type="curve" smooth="yes"/>
      <point x="81" y="360.333"/>
      <point x="132.333" y="319.333"/>
      <point x="199" y="302" type="curve"/>
      <point x="199" y="300" type="line"/>
      <point x="135.088" y="284.022"/>
      <point x="81" y="242.674"/>
      <point x="81" y="179" type="curve" smooth="yes"/>
      <point x="81" y="81.086"/>
      <point x="190" y="55.348"/>
      <point x="190" y="-25" type="curve" smooth="yes"/>
      <point x="190" y="-69.724"/>
      <point x="161.131" y="-82"/>
      <point x="123" y="-82" type="curve" smooth="yes"/>
      <point x="111.667" y="-82"/>
      <point x="100.667" y="-82"/>
      <point x="90" y="-82" type="curve"/>
      <point x="86.667" y="-88.667"/>
      <point x="85" y="-95.333"/>
      <point x="85" y="-102" type="curve" smooth="yes"/>
      <point x="85" y="-112.667"/>
      <point x="94" y="-120"/>
    </contour>
  </outline>
</glyph>
<glyph name="asciitilde" format="2">
  <advance width="522"/>
  <unicode hex="007E"/>
  <note>
asciitilde
</note>
  <outline>
    <contour>
      <point x="123" y="535" type="curve"/>
      <point x="136" y="535" type="line"/>
      <point x="154.195" y="581.786"/>
      <point x="166.051" y="581"/>
      <point x="218" y="581" type="curve"/>
      <point x="309" y="562" type="line"/>
      <point x="378.508" y="562"/>
      <point x="407.495" y="606.98"/>
      <point x="422" y="665" type="curve"/>
      <point x="408" y="665" type="line"/>
      <point x="398.667" y="619.667"/>
      <point x="371.333" y="614"/>
      <point x="322" y="614" type="curve"/>
      <point x="233" y="633" type="line"/>
      <point x="170.333" y="633"/>
      <point x="137.667" y="592.333"/>
    </contour>
  </outline>
</glyph>
<glyph name="exclamdown" format="2">
  <advance width="303"/>
  <unicode hex="00A1"/>
  <note>
exclamdown
</note>
  <outline>
    <contour>
      <point x="146" y="0" type="curve" smooth="yes"/>
      <point x="177.088" y="0"/>
      <point x="210" y="95.812"/>
      <point x="210" y="150" type="curve"/>
      <point x="206.871" y="157.823"/>
      <point x="191.676" y="198.409"/>
      <point x="182" y="240.5" type="curve" smooth="yes"/>
      <point x="168.667" y="298.5"/>
      <point x="155" y="387.667"/>
      <point x="151" y="521" type="curve"/>
      <point x="139" y="521" type="line"/>
      <point x="135" y="390.333"/>
      <point x="123" y="301.5"/>
      <point x="111" y="243.5" type="curve" smooth="yes"/>
      <point x="102.236" y="201.14"/>
      <point x="88.36" y="158.72"/>
      <point x="84" y="150" type="curve"/>
      <point x="84" y="96.427"/>
      <point x="116.901" y="0"/>
    </contour>
    <contour>
      <point x="146" y="608" type="curve" smooth="yes"/>
      <point x="180.667" y="608"/>
      <point x="206" y="634.333"/>
      <point x="206" y="669" type="curve" smooth="yes"/>
      <point x="206" y="703.667"/>
      <point x="180.667" y="728"/>
      <point x="146" y="728" type="curve" smooth="yes"/>
      <point x="111.333" y="728"/>
      <point x="87" y="705.667"/>
      <point x="87" y="671" type="curve" smooth="yes"/>
      <point x="87" y="636.333"/>
      <point x="111.333" y="608"/>
    </contour>
  </outline>
</glyph>
<glyph name="cent" format="2">
  <advance width="526"/>
  <unicode hex="00A2"/>
  <note>
cent
</note>
  <outline>
    <contour>
      <point x="195" y="-126" type="line"/>
      <point x="229" y="8" type="line"/>
      <point x="246.333" y="4"/>
      <point x="264" y="2"/>
      <point x="282" y="2" type="curve" smooth="yes"/>
      <point x="381.12" y="2"/>
      <point x="456.046" y="69.593"/>
      <point x="481" y="150" type="curve"/>
      <point x="473" y="154" type="line"/>
      <point x="442.333" y="100.667"/>
      <point x="398" y="64"/>
      <point x="314" y="64" type="curve" smooth="yes"/>
      <point x="289.333" y="64"/>
      <point x="266.667" y="68.667"/>
      <point x="246" y="78" type="curve"/>
      <point x="338" y="449" type="line"/>
      <point x="360.667" y="436.333"/>
      <point x="372" y="413.333"/>
      <point x="372" y="380" type="curve" smooth="yes"/>
      <point x="372" y="365.333"/>
      <point x="370" y="356.667"/>
      <point x="366" y="346" type="curve"/>
      <point x="371.333" y="326"/>
      <point x="389.333" y="311"/>
      <point x="412" y="311" type="curve" smooth="yes"/>
      <point x="440" y="311"/>
      <point x="462" y="335"/>
      <point x="462" y="363" type="curve" smooth="yes"/>
      <point x="462" y="421.124"/>
      <point x="404.231" y="456.906"/>
      <point x="344" y="470" type="curve"/>
      <point x="374" y="584" type="line"/>
      <point x="354" y="589" type="line"/>
      <point x="327" y="473" type="line"/>
      <point x="313" y="475"/>
      <point x="299.333" y="476"/>
      <point x="286" y="476" type="curve" smooth="yes"/>
      <point x="157.741" y="476"/>
      <point x="60" y="365.872"/>
      <point x="60" y="242" type="curve" smooth="yes"/>
      <point x="60" y="128.667"/>
      <point x="120" y="43.667"/>
      <point x="212" y="13" type="curve"/>
      <point x="176" y="-122" type="line"/>
    </contour>
    <contour>
      <point x="229" y="84" type="line"/>
      <point x="173" y="117.333"/>
      <point x="143" y="188"/>
      <point x="143" y="268" type="curve" smooth="yes"/>
      <point x="143" y="370.35"/>
      <point x="199.809" y="459"/>
      <point x="286" y="459" type="curve" smooth="yes"/>
      <point x="299.333" y="459"/>
      <point x="311" y="457.667"/>
      <point x="321" y="455" type="curve"/>
    </contour>
  </outline>
</glyph>
<glyph name="sterling" format="2">
  <advance width="678"/>
  <unicode hex="00A3"/>
  <note>
sterling
</note>
  <outline>
    <contour>
      <point x="414" y="-180" type="curve" smooth="yes"/>
      <point x="513.631" y="-180"/>
      <point x="584" y="-121.019"/>
      <point x="584" y="-36" type="curve" smooth="yes"/>
      <point x="584" y="-10.667"/>
      <point x="567.667" y="11"/>
      <point x="537" y="11" type="curve" smooth="yes"/>
      <point x="510.333" y="11"/>
      <point x="492" y="-7"/>
      <point x="492" y="-31" type="curve" smooth="yes"/>
      <point x="492" y="-73.746"/>
      <point x="554" y="-57.725"/>
      <point x="554" y="-86" type="curve" smooth="yes"/>
      <point x="554" y="-116.677"/>
      <point x="511.13" y="-145"/>
      <point x="478" y="-145" type="curve" smooth="yes"/>
      <point x="402.291" y="-145"/>
      <point x="380.206" y="-52"/>
      <point x="271" y="-52" type="curve" smooth="yes"/>
      <point x="252.333" y="-52"/>
      <point x="236" y="-52.833"/>
      <point x="222" y="-54.5" type="curve" smooth="yes"/>
      <point x="208" y="-56.167"/>
      <point x="191.667" y="-57.667"/>
      <point x="173" y="-59" type="curve"/>
      <point x="171" y="-55" type="line"/>
      <point x="208.075" y="-24.104"/>
      <point x="264.705" y="50.016"/>
      <point x="286" y="121" type="curve"/>
      <point x="422" y="121" type="line"/>
      <point x="433" y="155" type="line"/>
      <point x="299" y="155" type="line"/>
      <point x="307.053" y="179.158"/>
      <point x="345.729" y="282.277"/>
      <point x="358" y="315" type="curve" smooth="yes"/>
      <point x="368" y="341.667"/>
      <point x="378.5" y="369"/>
      <point x="389.5" y="397" type="curve" smooth="yes"/>
      <point x="411.5" y="453"/>
      <point x="434.667" y="512.333"/>
      <point x="456" y="563" type="curve" smooth="yes"/>
      <point x="482.938" y="623.609"/>
      <point x="520.981" y="715"/>
      <point x="584" y="715" type="curve" smooth="yes"/>
      <point x="612.308" y="715"/>
      <point x="620.784" y="691.298"/>
      <point x="624" y="672" type="curve"/>
      <point x="630.667" y="642.667"/>
      <point x="641.333" y="632"/>
      <point x="664" y="632" type="curve" smooth="yes"/>
      <point x="681.333" y="632"/>
      <point x="700" y="648.667"/>
      <point x="700" y="666" type="curve" smooth="yes"/>
      <point x="700" y="716.048"/>
      <point x="637.855" y="729"/>
      <point x="587" y="729" type="curve" smooth="yes"/>
      <point x="474.715" y="729"/>
      <point x="381.008" y="608.079"/>
      <point x="337" y="489" type="curve" smooth="yes"/>
      <point x="307.667" y="410.333"/>
      <point x="279.5" y="335"/>
      <point x="257.5" y="275" type="curve" smooth="yes"/>
      <point x="240.173" y="227.746"/>
      <point x="219.71" y="172.131"/>
      <point x="214" y="155" type="curve"/>
      <point x="121" y="155" type="line"/>
      <point x="112" y="124" type="line"/>
      <point x="204" y="124" type="line"/>
      <point x="182.667" y="52"/>
      <point x="149.667" y="-20.667"/>
      <point x="127" y="-62" type="curve"/>
      <point x="63.597" y="-87.361"/>
      <point x="-24" y="-87.7"/>
      <point x="-24" y="-131" type="curve" smooth="yes"/>
      <point x="-24" y="-151"/>
      <point x="-3" y="-160"/>
      <point x="17" y="-160" type="curve" smooth="yes"/>
      <point x="71.897" y="-160"/>
      <point x="119.655" y="-115.425"/>
      <point x="145" y="-76" type="curve"/>
      <point x="182" y="-76" type="line" smooth="yes"/>
      <point x="281.768" y="-76"/>
      <point x="311.115" y="-180"/>
    </contour>
  </outline>
</glyph>
<glyph name="yen" format="2">
  <advance width="520"/>
  <unicode hex="00A5"/>
  <note>
yen
</note>
  <outline>
    <contour>
      <point x="136" y="0" type="line"/>
      <point x="374" y="0" type="line"/>
      <point x="374" y="9" type="line"/>
      <point x="352.667" y="11.667"/>
      <point x="323.667" y="18"/>
      <point x="309" y="38" type="curve" smooth="yes"/>
      <point x="303.667" y="45.333"/>
      <point x="301" y="60"/>
      <point x="301" y="82" type="curve" smooth="yes"/>
      <point x="301" y="104"/>
      <point x="301" y="127.333"/>
      <point x="301" y="152" type="curve"/>
      <point x="458" y="151" type="line"/>
      <point x="458" y="171" type="line"/>
      <point x="300" y="170" type="line"/>
      <point x="300" y="224" type="line"/>
      <point x="458" y="223" type="line"/>
      <point x="458" y="243" type="line"/>
      <point x="300" y="242" type="line"/>
      <point x="301" y="275" type="line"/>
      <point x="330.763" y="323.365"/>
      <point x="402.572" y="435.762"/>
      <point x="411" y="447" type="curve"/>
      <point x="444.184" y="495.5"/>
      <point x="468.544" y="527.282"/>
      <point x="520" y="535" type="curve"/>
      <point x="520" y="544" type="line"/>
      <point x="344" y="544" type="line"/>
      <point x="344" y="535" type="line"/>
      <point x="371.625" y="532.238"/>
      <point x="405" y="528.027"/>
      <point x="405" y="500" type="curve" smooth="yes"/>
      <point x="405" y="482.667"/>
      <point x="389" y="454.667"/>
      <point x="381" y="440" type="curve" smooth="yes"/>
      <point x="351.161" y="386.716"/>
      <point x="305.563" y="310.844"/>
      <point x="293" y="292" type="curve"/>
      <point x="283.355" y="307.272"/>
      <point x="203.595" y="435.107"/>
      <point x="199" y="442" type="curve"/>
      <point x="191.667" y="455.333"/>
      <point x="184.5" y="467.833"/>
      <point x="177.5" y="479.5" type="curve" smooth="yes"/>
      <point x="170.5" y="491.167"/>
      <point x="167" y="500"/>
      <point x="167" y="506" type="curve" smooth="yes"/>
      <point x="167" y="528.667"/>
      <point x="201" y="532.333"/>
      <point x="229" y="535" type="curve"/>
      <point x="229" y="544" type="line"/>
      <point x="-7" y="544" type="line"/>
      <point x="-7" y="535" type="line"/>
      <point x="33.735" y="535"/>
      <point x="61.419" y="497.585"/>
      <point x="98" y="445" type="curve" smooth="yes"/>
      <point x="124.266" y="409.182"/>
      <point x="202.548" y="279.918"/>
      <point x="213" y="262" type="curve"/>
      <point x="214" y="242" type="line"/>
      <point x="56" y="243" type="line"/>
      <point x="56" y="223" type="line"/>
      <point x="214" y="224" type="line"/>
      <point x="214" y="170" type="line"/>
      <point x="56" y="171" type="line"/>
      <point x="56" y="151" type="line"/>
      <point x="213" y="152" type="line"/>
      <point x="213" y="142"/>
      <point x="213" y="131"/>
      <point x="213" y="119" type="curve" smooth="yes"/>
      <point x="213" y="90.591"/>
      <point x="212.202" y="50.243"/>
      <point x="202" y="38" type="curve"/>
      <point x="179.333" y="12.667"/>
      <point x="161.333" y="11.667"/>
      <point x="136" y="9" type="curve"/>
    </contour>
  </outline>
</glyph>
<glyph name="brokenbar" format="2">
  <advance width="243"/>
  <unicode hex="00A6"/>
  <note>
brokenbar
</note>
  <outline>
    <contour>
      <point x="101" y="389" type="line"/>
      <point x="142" y="389" type="line"/>
      <point x="142" y="784" type="line"/>
      <point x="101" y="784" type="line"/>
    </contour>
    <contour>
      <point x="101" y="-135" type="line"/>
      <point x="142" y="-135" type="line"/>
      <point x="142" y="259" type="line"/>
      <point x="101" y="259" type="line"/>
    </contour>
  </outline>
</glyph>
<glyph name="copyright" format="2">
  <advance width="1000"/>
  <unicode hex="00A9"/>
  <note>
copyright
</note>
  <outline>
    <contour>
      <point x="496" y="-151" type="curve" smooth="yes"/>
      <point x="601.333" y="-151"/>
      <point x="696.667" y="-108"/>
      <point x="766" y="-40" type="curve" smooth="yes"/>
      <point x="835.333" y="28"/>
      <point x="878" y="124.667"/>
      <point x="878" y="230" type="curve" smooth="yes"/>
      <point x="878" y="335.333"/>
      <point x="835.333" y="431.667"/>
      <point x="766" y="501" type="curve" smooth="yes"/>
      <point x="696.667" y="570.333"/>
      <point x="601.333" y="613"/>
      <point x="496" y="613" type="curve" smooth="yes"/>
      <point x="390.667" y="613"/>
      <point x="294.333" y="570.333"/>
      <point x="225" y="501" type="curve" smooth="yes"/>
      <point x="155.667" y="431.667"/>
      <point x="113" y="335.333"/>
      <point x="113" y="230" type="curve" smooth="yes"/>
      <point x="113" y="124.667"/>
      <point x="155.667" y="28"/>
      <point x="225" y="-40" type="curve" smooth="yes"/>
      <point x="294.333" y="-108"/>
      <point x="390.667" y="-151"/>
    </contour>
    <contour>
      <point x="512" y="0" type="curve" smooth="yes"/>
      <point x="562.449" y="0"/>
      <point x="640.424" y="38"/>
      <point x="649" y="38" type="curve" smooth="yes"/>
      <point x="653" y="38"/>
      <point x="666.333" y="19.667"/>
      <point x="677" y="5" type="curve"/>
      <point x="686" y="5" type="line"/>
      <point x="689" y="166" type="line"/>
      <point x="678" y="166" type="line"/>
      <point x="660.793" y="88.569"/>
      <point x="602.828" y="14"/>
      <point x="514" y="14" type="curve" smooth="yes"/>
      <point x="405.572" y="14"/>
      <point x="349" y="114.105"/>
      <point x="349" y="229" type="curve" smooth="yes"/>
      <point x="349" y="342.273"/>
      <point x="402.937" y="453"/>
      <point x="513" y="453" type="curve" smooth="yes"/>
      <point x="577" y="453"/>
      <point x="621.667" y="414.667"/>
      <point x="651" y="368" type="curve" smooth="yes"/>
      <point x="661.667" y="350.667"/>
      <point x="671.333" y="322.667"/>
      <point x="678" y="300" type="curve"/>
      <point x="689" y="300" type="line"/>
      <point x="689" y="458" type="line"/>
      <point x="680" y="458" type="line"/>
      <point x="669.333" y="444.667"/>
      <point x="654" y="428"/>
      <point x="650" y="428" type="curve" smooth="yes"/>
      <point x="641.417" y="428"/>
      <point x="560.209" y="468"/>
      <point x="511" y="468" type="curve" smooth="yes"/>
      <point x="408.448" y="468"/>
      <point x="336.044" y="422.498"/>
      <point x="295" y="358" type="curve" smooth="yes"/>
      <point x="263" y="307.333"/>
      <point x="258" y="261.333"/>
      <point x="258" y="232" type="curve" smooth="yes"/>
      <point x="258" y="89.29"/>
      <point x="353.903" y="0"/>
    </contour>
    <contour>
      <point x="496" y="-121" type="curve" smooth="yes"/>
      <point x="398.667" y="-121"/>
      <point x="309.833" y="-81.667"/>
      <point x="246.5" y="-19" type="curve" smooth="yes"/>
      <point x="183.167" y="43.667"/>
      <point x="144" y="132.667"/>
      <point x="144" y="230" type="curve" smooth="yes"/>
      <point x="144" y="327.333"/>
      <point x="183.167" y="415"/>
      <point x="246.5" y="479" type="curve" smooth="yes"/>
      <point x="309.833" y="543"/>
      <point x="398.667" y="582"/>
      <point x="496" y="582" type="curve" smooth="yes"/>
      <point x="593.333" y="582"/>
      <point x="681.167" y="543"/>
      <point x="744.5" y="479" type="curve" smooth="yes"/>
      <point x="807.833" y="415"/>
      <point x="847" y="327.333"/>
      <point x="847" y="230" type="curve" smooth="yes"/>
      <point x="847" y="132.667"/>
      <point x="807.833" y="43.667"/>
      <point x="744.5" y="-19" type="curve" smooth="yes"/>
      <point x="681.167" y="-81.667"/>
      <point x="593.333" y="-121"/>
    </contour>
  </outline>
</glyph>
<glyph name="ordfeminine" format="2">
  <advance width="248"/>
  <unicode hex="00AA"/>
  <note>
ordfeminine
</note>
  <outline>
    <contour>
      <point x="86" y="390" type="curve" smooth="yes"/>
      <point x="124.667" y="390"/>
      <point x="147" y="414"/>
      <point x="159" y="430" type="curve"/>
      <point x="162" y="430" type="line"/>
      <point x="162" y="403.333"/>
      <point x="182.667" y="390"/>
      <point x="208" y="390" type="curve" smooth="yes"/>
      <point x="238.667" y="390"/>
      <point x="259.333" y="415.333"/>
      <point x="262" y="446" type="curve"/>
      <point x="255" y="446" type="line"/>
      <point x="252.333" y="436.667"/>
      <point x="245.667" y="427"/>
      <point x="231" y="427" type="curve" smooth="yes"/>
      <point x="219" y="427"/>
      <point x="208" y="434.333"/>
      <point x="208" y="461" type="curve" smooth="yes"/>
      <point x="208" y="483"/>
      <point x="208.167" y="502.833"/>
      <point x="208.5" y="520.5" type="curve" smooth="yes"/>
      <point x="208.833" y="538.167"/>
      <point x="209" y="558.667"/>
      <point x="209" y="582" type="curve" smooth="yes"/>
      <point x="209" y="592.667"/>
      <point x="208.667" y="607.667"/>
      <point x="206" y="613" type="curve"/>
      <point x="199.333" y="623.667"/>
      <point x="178.667" y="637"/>
      <point x="160" y="637" type="curve" smooth="yes"/>
      <point x="141.333" y="637"/>
      <point x="99" y="620"/>
      <point x="63" y="600" type="curve"/>
      <point x="49.667" y="593.333"/>
      <point x="30" y="582.333"/>
      <point x="30" y="565" type="curve" smooth="yes"/>
      <point x="30" y="553"/>
      <point x="39.667" y="543"/>
      <point x="53" y="543" type="curve" smooth="yes"/>
      <point x="67.667" y="543"/>
      <point x="80" y="553.333"/>
      <point x="80" y="564" type="curve" smooth="yes"/>
      <point x="80" y="587" type="line" smooth="yes"/>
      <point x="80" y="595"/>
      <point x="100.667" y="609"/>
      <point x="122" y="609" type="curve" smooth="yes"/>
      <point x="136.667" y="609"/>
      <point x="146.667" y="606"/>
      <point x="152" y="600" type="curve" smooth="yes"/>
      <point x="157.333" y="594"/>
      <point x="160" y="590.333"/>
      <point x="160" y="589" type="curve" smooth="yes"/>
      <point x="160" y="537" type="line"/>
      <point x="153.333" y="533.667"/>
      <point x="143" y="528.5"/>
      <point x="129" y="521.5" type="curve" smooth="yes"/>
      <point x="115" y="514.5"/>
      <point x="97.333" y="505"/>
      <point x="76" y="493" type="curve" smooth="yes"/>
      <point x="53.333" y="479.667"/>
      <point x="35" y="461.333"/>
      <point x="35" y="440" type="curve" smooth="yes"/>
      <point x="35" y="404"/>
      <point x="63.333" y="390"/>
    </contour>
    <contour>
      <point x="113" y="426" type="curve" smooth="yes"/>
      <point x="94.333" y="426"/>
      <point x="82" y="439.667"/>
      <point x="82" y="457" type="curve" smooth="yes"/>
      <point x="82" y="487.169"/>
      <point x="124.19" y="506.095"/>
      <point x="160" y="524" type="curve"/>
      <point x="160" y="451" type="line" smooth="yes"/>
      <point x="160" y="446.333"/>
      <point x="158.333" y="442.333"/>
      <point x="155" y="439" type="curve" smooth="yes"/>
      <point x="144.333" y="428.333"/>
      <point x="129" y="426"/>
    </contour>
  </outline>
</glyph>
<glyph name="guillemotleft" format="2">
  <advance width="393"/>
  <unicode hex="00AB"/>
  <note>
guillemotleft
</note>
  <outline>
    <contour>
      <point x="340" y="94" type="line"/>
      <point x="347" y="99" type="line"/>
      <point x="260" y="256" type="line"/>
      <point x="346" y="412" type="line"/>
      <point x="340" y="417" type="line"/>
      <point x="173" y="258" type="line"/>
      <point x="173" y="253" type="line"/>
    </contour>
    <contour>
      <point x="220" y="101" type="line"/>
      <point x="227" y="106" type="line"/>
      <point x="140" y="256" type="line"/>
      <point x="226" y="405" type="line"/>
      <point x="220" y="410" type="line"/>
      <point x="53" y="258" type="line"/>
      <point x="53" y="253" type="line"/>
    </contour>
  </outline>
</glyph>
<glyph name="logicalnot" format="2">
  <advance width="700"/>
  <unicode hex="00AC"/>
  <note>
logicalnot
</note>
  <outline>
    <contour>
      <point x="527" y="55" type="line"/>
      <point x="570" y="55" type="line"/>
      <point x="570" y="300" type="line"/>
      <point x="123" y="300" type="line"/>
      <point x="123" y="261" type="line"/>
      <point x="527" y="261" type="line"/>
    </contour>
  </outline>
</glyph>
<glyph name="softhyphen" format="2">
  <advance width="318"/>
  <unicode hex="00AD"/>
  <note>
softhyphen
</note>
  <outline>
    <contour>
      <point x="23" y="331" type="line"/>
      <point x="294" y="331" type="line"/>
      <point x="294" y="399" type="line"/>
      <point x="23" y="399" type="line"/>
    </contour>
  </outline>
</glyph>
<glyph name="registered" format="2">
  <advance width="514"/>
  <unicode hex="00AE"/>
  <note>
registered
</note>
  <outline>
    <contour>
      <point x="257" y="382" type="curve" smooth="yes"/>
      <point x="375.074" y="382"/>
      <point x="470" y="476.301"/>
      <point x="470" y="594" type="curve" smooth="yes"/>
      <point x="470" y="712.201"/>
      <point x="376.036" y="806"/>
      <point x="257" y="806" type="curve" smooth="yes"/>
      <point x="140.38" y="806"/>
      <point x="44" y="711.313"/>
      <point x="44" y="594" type="curve" smooth="yes"/>
      <point x="44" y="476.762"/>
      <point x="140.886" y="382"/>
    </contour>
    <contour>
      <point x="257" y="400" type="curve" smooth="yes"/>
      <point x="151.445" y="400"/>
      <point x="64" y="488.08"/>
      <point x="64" y="594" type="curve" smooth="yes"/>
      <point x="64" y="699.841"/>
      <point x="151.918" y="788"/>
      <point x="257" y="788" type="curve" smooth="yes"/>
      <point x="362.423" y="788"/>
      <point x="451" y="699.423"/>
      <point x="451" y="594" type="curve" smooth="yes"/>
      <point x="451" y="552.667"/>
      <point x="440.333" y="516.333"/>
      <point x="419" y="485" type="curve"/>
      <point x="397.667" y="487.667"/>
      <point x="381.667" y="495.667"/>
      <point x="363" y="517" type="curve"/>
      <point x="352.333" y="533"/>
      <point x="337.333" y="554"/>
      <point x="324" y="570" type="curve" smooth="yes"/>
      <point x="316.667" y="578.667"/>
      <point x="309.333" y="586.333"/>
      <point x="302" y="593" type="curve"/>
      <point x="302" y="594" type="line"/>
      <point x="332.667" y="600.667"/>
      <point x="360" y="622"/>
      <point x="360" y="654" type="curve" smooth="yes"/>
      <point x="360" y="681.333"/>
      <point x="348.333" y="700.333"/>
      <point x="325" y="711" type="curve" smooth="yes"/>
      <point x="305" y="720.333"/>
      <point x="282" y="722"/>
      <point x="250" y="722" type="curve" smooth="yes"/>
      <point x="244" y="722"/>
      <point x="236" y="721.833"/>
      <point x="226" y="721.5" type="curve" smooth="yes"/>
      <point x="216" y="721.167"/>
      <point x="206" y="721"/>
      <point x="196" y="721" type="curve" smooth="yes"/>
      <point x="186" y="721"/>
      <point x="176.833" y="720.833"/>
      <point x="168.5" y="720.5" type="curve" smooth="yes"/>
      <point x="160.167" y="720.167"/>
      <point x="154.667" y="720"/>
      <point x="152" y="720" type="curve"/>
      <point x="152" y="712" type="line"/>
      <point x="165.333" y="710"/>
      <point x="175" y="706.333"/>
      <point x="181" y="701" type="curve"/>
      <point x="187.667" y="694.333"/>
      <point x="188" y="675.667"/>
      <point x="188" y="661" type="curve" smooth="yes"/>
      <point x="188" y="535" type="line" smooth="yes"/>
      <point x="188" y="520.333"/>
      <point x="186.333" y="502.667"/>
      <point x="181" y="496" type="curve"/>
      <point x="174.333" y="489.333"/>
      <point x="160.667" y="486"/>
      <point x="150" y="486" type="curve"/>
      <point x="150" y="476" type="line"/>
      <point x="267" y="476" type="line"/>
      <point x="267" y="486" type="line"/>
      <point x="230.596" y="486"/>
      <point x="230" y="500.889"/>
      <point x="230" y="531" type="curve" smooth="yes"/>
      <point x="230" y="589" type="line"/>
      <point x="233.333" y="589"/>
      <point x="236" y="589.167"/>
      <point x="238" y="589.5" type="curve" smooth="yes"/>
      <point x="240" y="589.833"/>
      <point x="243" y="589.333"/>
      <point x="247" y="588" type="curve"/>
      <point x="256.333" y="585.333"/>
      <point x="268" y="576.333"/>
      <point x="276" y="567" type="curve" smooth="yes"/>
      <point x="286.667" y="555"/>
      <point x="294.833" y="544.667"/>
      <point x="300.5" y="536" type="curve" smooth="yes"/>
      <point x="306.167" y="527.333"/>
      <point x="313" y="517"/>
      <point x="321" y="505" type="curve" smooth="yes"/>
      <point x="324.626" y="499.198"/>
      <point x="338.359" y="478.188"/>
      <point x="340" y="476" type="curve"/>
      <point x="413" y="476" type="line"/>
      <point x="377" y="429.333"/>
      <point x="321" y="400"/>
    </contour>
    <contour>
      <point x="230" y="600" type="curve"/>
      <point x="230" y="684" type="line" smooth="yes"/>
      <point x="230" y="691.333"/>
      <point x="230.167" y="696.833"/>
      <point x="230.5" y="700.5" type="curve" smooth="yes"/>
      <point x="230.833" y="704.167"/>
      <point x="231.333" y="707"/>
      <point x="232" y="709" type="curve"/>
      <point x="234.667" y="709.667"/>
      <point x="240.333" y="710"/>
      <point x="249" y="710" type="curve" smooth="yes"/>
      <point x="262.333" y="710"/>
      <point x="272.333" y="710.333"/>
      <point x="283" y="705" type="curve" smooth="yes"/>
      <point x="303.667" y="695"/>
      <point x="314" y="678.667"/>
      <point x="314" y="656" type="curve" smooth="yes"/>
      <point x="314" y="633.333"/>
      <point x="305.333" y="614.667"/>
      <point x="276" y="604" type="curve"/>
      <point x="261.333" y="600"/>
      <point x="248.667" y="600"/>
    </contour>
  </outline>
</glyph>
<glyph name="degree" format="2">
  <advance width="408"/>
  <unicode hex="00B0"/>
  <note>
degree
</note>
  <outline>
    <contour>
      <point x="203" y="443" type="curve" smooth="yes"/>
      <point x="282.025" y="443"/>
      <point x="345" y="505.592"/>
      <point x="345" y="584" type="curve" smooth="yes"/>
      <point x="345" y="662.284"/>
      <point x="282.284" y="725"/>
      <point x="204" y="725" type="curve" smooth="yes"/>
      <point x="124.996" y="725"/>
      <point x="63" y="663.178"/>
      <point x="63" y="584" type="curve" smooth="yes"/>
      <point x="63" y="505.154"/>
      <point x="124.929" y="443"/>
    </contour>
    <contour>
      <point x="204" y="482" type="curve" smooth="yes"/>
      <point x="148.28" y="482"/>
      <point x="103" y="528.339"/>
      <point x="103" y="584" type="curve" smooth="yes"/>
      <point x="103" y="639.246"/>
      <point x="148.416" y="685"/>
      <point x="204" y="685" type="curve" smooth="yes"/>
      <point x="260.339" y="685"/>
      <point x="304" y="639.584"/>
      <point x="304" y="584" type="curve" smooth="yes"/>
      <point x="304" y="527.584"/>
      <point x="260.732" y="482"/>
    </contour>
  </outline>
</glyph>
<glyph name="plusminus" format="2">
  <advance width="667"/>
  <unicode hex="00B1"/>
  <note>
plusminus
</note>
  <outline>
    <contour>
      <point x="307" y="106" type="line"/>
      <point x="360" y="106" type="line"/>
      <point x="360" y="352" type="line"/>
      <point x="606" y="352" type="line"/>
      <point x="606" y="405" type="line"/>
      <point x="360" y="405" type="line"/>
      <point x="360" y="651" type="line"/>
      <point x="307" y="651" type="line"/>
      <point x="307" y="405" type="line"/>
      <point x="61" y="405" type="line"/>
      <point x="61" y="352" type="line"/>
      <point x="307" y="352" type="line"/>
    </contour>
    <contour>
      <point x="61" y="0" type="line"/>
      <point x="606" y="0" type="line"/>
      <point x="606" y="53" type="line"/>
      <point x="61" y="53" type="line"/>
    </contour>
  </outline>
</glyph>
<glyph name="twosuperior" format="2">
  <advance width="267"/>
  <unicode hex="00B2"/>
  <note>
twosuperior
</note>
  <outline>
    <contour>
      <point x="32" y="394" type="line"/>
      <point x="237" y="394" type="line"/>
      <point x="274" y="468" type="line"/>
      <point x="265" y="472" type="line"/>
      <point x="255.667" y="456"/>
      <point x="247" y="437"/>
      <point x="207" y="437" type="curve" smooth="yes"/>
      <point x="111" y="437" type="line"/>
      <point x="111" y="439" type="line"/>
      <point x="162.247" y="473.941"/>
      <point x="194.145" y="502.003"/>
      <point x="224" y="540" type="curve"/>
      <point x="230.667" y="549.333"/>
      <point x="233" y="566.333"/>
      <point x="233" y="573" type="curve" smooth="yes"/>
      <point x="233" y="628.37"/>
      <point x="188.931" y="659"/>
      <point x="135" y="659" type="curve" smooth="yes"/>
      <point x="79" y="659"/>
      <point x="32.333" y="623.333"/>
      <point x="31" y="558" type="curve"/>
      <point x="39" y="558" type="line"/>
      <point x="52.333" y="599.333"/>
      <point x="83.333" y="617"/>
      <point x="118" y="617" type="curve" smooth="yes"/>
      <point x="156.667" y="617"/>
      <point x="182" y="592.667"/>
      <point x="182" y="558" type="curve" smooth="yes"/>
      <point x="182" y="487.937"/>
      <point x="85.8" y="434.305"/>
      <point x="30" y="402" type="curve"/>
    </contour>
  </outline>
</glyph>
<glyph name="threesuperior" format="2">
  <advance width="242"/>
  <unicode hex="00B3"/>
  <note>
threesuperior
</note>
  <outline>
    <contour>
      <point x="99" y="293" type="curve" smooth="yes"/>
      <point x="169.946" y="293"/>
      <point x="235" y="335.633"/>
      <point x="235" y="408" type="curve" smooth="yes"/>
      <point x="235" y="456.042"/>
      <point x="190.199" y="491.293"/>
      <point x="154" y="508" type="curve"/>
      <point x="183.333" y="533.333"/>
      <point x="199" y="551.333"/>
      <point x="211" y="570" type="curve" smooth="yes"/>
      <point x="213.667" y="574"/>
      <point x="215" y="583.333"/>
      <point x="215" y="586" type="curve" smooth="yes"/>
      <point x="215" y="631.333"/>
      <point x="172" y="659"/>
      <point x="124" y="659" type="curve" smooth="yes"/>
      <point x="71.729" y="659"/>
      <point x="27" y="624.121"/>
      <point x="27" y="566" type="curve"/>
      <point x="35" y="566" type="line"/>
      <point x="47" y="604.667"/>
      <point x="78.667" y="618"/>
      <point x="108" y="618" type="curve" smooth="yes"/>
      <point x="140" y="618"/>
      <point x="166" y="600.333"/>
      <point x="166" y="571" type="curve" smooth="yes"/>
      <point x="166" y="525.667"/>
      <point x="139" y="505.667"/>
      <point x="99" y="479" type="curve"/>
      <point x="102" y="472" type="line"/>
      <point x="151.333" y="461.333"/>
      <point x="186" y="425.667"/>
      <point x="186" y="379" type="curve" smooth="yes"/>
      <point x="186" y="331.713"/>
      <point x="144.833" y="308"/>
      <point x="121" y="308" type="curve" smooth="yes"/>
      <point x="74.098" y="308"/>
      <point x="60.888" y="340.298"/>
      <point x="49" y="372" type="curve"/>
      <point x="21" y="372"/>
      <point x="11" y="358.333"/>
      <point x="11" y="345" type="curve" smooth="yes"/>
      <point x="11" y="314.333"/>
      <point x="48.333" y="293"/>
    </contour>
  </outline>
</glyph>
<glyph name="paragraph" format="2">
  <advance width="530"/>
  <unicode hex="00B6"/>
  <note>
paragraph
</note>
  <outline>
    <contour>
      <point x="156" y="-198" type="curve" smooth="yes"/>
      <point x="316.453" y="-198"/>
      <point x="393" y="-79.327"/>
      <point x="393" y="66" type="curve" smooth="yes"/>
      <point x="393" y="651" type="line" smooth="yes"/>
      <point x="393" y="703.249"/>
      <point x="447.873" y="709"/>
      <point x="476" y="709" type="curve"/>
      <point x="476" y="720" type="line"/>
      <point x="460.667" y="720"/>
      <point x="442" y="720.167"/>
      <point x="420" y="720.5" type="curve" smooth="yes"/>
      <point x="398" y="720.833"/>
      <point x="378" y="721"/>
      <point x="360" y="721" type="curve" smooth="yes"/>
      <point x="260" y="721"/>
      <point x="184.833" y="696.5"/>
      <point x="133.5" y="654.5" type="curve" smooth="yes"/>
      <point x="82.167" y="612.5"/>
      <point x="57" y="553"/>
      <point x="57" y="485" type="curve" smooth="yes"/>
      <point x="57" y="338.273"/>
      <point x="172.831" y="233"/>
      <point x="319" y="233" type="curve" smooth="yes"/>
      <point x="356" y="233" type="line"/>
      <point x="356" y="89" type="line" smooth="yes"/>
      <point x="356" y="-47.29"/>
      <point x="317.249" y="-171"/>
      <point x="213" y="-171" type="curve" smooth="yes"/>
      <point x="190.333" y="-171"/>
      <point x="163.667" y="-167.333"/>
      <point x="153" y="-150" type="curve"/>
      <point x="156.333" y="-148"/>
      <point x="159.667" y="-144.833"/>
      <point x="163" y="-140.5" type="curve" smooth="yes"/>
      <point x="166.333" y="-136.167"/>
      <point x="168" y="-128.333"/>
      <point x="168" y="-117" type="curve" smooth="yes"/>
      <point x="168" y="-93"/>
      <point x="146.333" y="-74"/>
      <point x="117" y="-74" type="curve" smooth="yes"/>
      <point x="86.333" y="-74"/>
      <point x="63" y="-99.333"/>
      <point x="63" y="-126" type="curve" smooth="yes"/>
      <point x="63" y="-169.746"/>
      <point x="110.209" y="-198"/>
    </contour>
  </outline>
</glyph>
<glyph name="periodcentered" format="2">
  <advance width="263"/>
  <unicode hex="00B7"/>
  <note>
periodcentered
</note>
  <outline>
    <contour>
      <point x="134" y="201" type="curve" smooth="yes"/>
      <point x="168.667" y="201"/>
      <point x="192" y="223.333"/>
      <point x="192" y="258" type="curve" smooth="yes"/>
      <point x="192" y="292.667"/>
      <point x="168.667" y="321"/>
      <point x="134" y="321" type="curve" smooth="yes"/>
      <point x="99.333" y="321"/>
      <point x="74" y="294.667"/>
      <point x="74" y="260" type="curve" smooth="yes"/>
      <point x="74" y="225.333"/>
      <point x="99.333" y="201"/>
    </contour>
  </outline>
</glyph>
<glyph name="cedilla" format="2">
  <unicode hex="00B8"/>
  <note>
cedilla
</note>
  <anchor x="1" y="-3" name="_bottom"/>
  <outline>
    <contour>
      <point x="-55" y="-222" type="curve" smooth="yes"/>
      <point x="-11" y="-222"/>
      <point x="50" y="-189"/>
      <point x="50" y="-132" type="curve" smooth="yes"/>
      <point x="50" y="-106"/>
      <point x="34" y="-64"/>
      <point x="-24" y="-41" type="curve"/>
      <point x="21" y="6" type="line"/>
      <point x="1" y="6" type="line"/>
      <point x="-79" y="-75" type="line"/>
      <point x="-31" y="-91"/>
      <point x="-6" y="-120"/>
      <point x="-6" y="-155" type="curve" smooth="yes"/>
      <point x="-6" y="-191"/>
      <point x="-26" y="-210"/>
      <point x="-50" y="-210" type="curve" smooth="yes"/>
      <point x="-65" y="-210"/>
      <point x="-72" y="-200"/>
      <point x="-72" y="-179" type="curve" smooth="yes"/>
      <point x="-72" y="-176"/>
      <point x="-72" y="-173"/>
      <point x="-71" y="-170" type="curve" smooth="yes"/>
      <point x="-71" y="-167"/>
      <point x="-71" y="-163"/>
      <point x="-71" y="-159" type="curve"/>
      <point x="-77" y="-152"/>
      <point x="-87" y="-148"/>
      <point x="-100" y="-148" type="curve" smooth="yes"/>
      <point x="-123" y="-148"/>
      <point x="-131" y="-164"/>
      <point x="-131" y="-177" type="curve" smooth="yes"/>
      <point x="-131" y="-209"/>
      <point x="-100" y="-222"/>
    </contour>
  </outline>
</glyph>
<glyph name="onesuperior" format="2">
  <advance width="201"/>
  <unicode hex="00B9"/>
  <note>
onesuperior
</note>
  <outline>
    <contour>
      <point x="133" y="375" type="curve"/>
      <point x="133" y="689" type="line"/>
      <point x="-9" y="689" type="line"/>
      <point x="-9" y="678" type="line"/>
      <point x="20" y="678"/>
      <point x="62" y="669"/>
      <point x="62" y="646" type="curve" smooth="yes"/>
      <point x="62" y="376" type="line" smooth="yes"/>
      <point x="62" y="353"/>
      <point x="22" y="343"/>
      <point x="-6" y="343" type="curve"/>
      <point x="-6" y="332" type="line"/>
      <point x="204" y="332" type="line"/>
      <point x="204" y="343" type="line"/>
      <point x="177" y="343"/>
      <point x="133" y="350"/>
    </contour>
  </outline>
</glyph>
<glyph name="ordmasculine" format="2">
  <advance width="280"/>
  <unicode hex="00BA"/>
  <note>
ordmasculine
</note>
  <outline>
    <contour>
      <point x="151" y="390" type="curve" smooth="yes"/>
      <point x="219.243" y="390"/>
      <point x="276" y="447.363"/>
      <point x="276" y="516" type="curve" smooth="yes"/>
      <point x="276" y="591.363"/>
      <point x="212.696" y="637"/>
      <point x="152" y="637" type="curve" smooth="yes"/>
      <point x="78.082" y="637"/>
      <point x="24" y="578.857"/>
      <point x="24" y="516" type="curve" smooth="yes"/>
      <point x="24" y="435.951"/>
      <point x="88.319" y="390"/>
    </contour>
    <contour>
      <point x="152" y="403" type="curve" smooth="yes"/>
      <point x="98.543" y="403"/>
      <point x="78" y="454.669"/>
      <point x="78" y="513" type="curve" smooth="yes"/>
      <point x="78" y="564.529"/>
      <point x="104.871" y="624"/>
      <point x="149" y="624" type="curve" smooth="yes"/>
      <point x="201.796" y="624"/>
      <point x="221" y="564.899"/>
      <point x="221" y="517" type="curve" smooth="yes"/>
      <point x="221" y="469.45"/>
      <point x="201.029" y="403"/>
    </contour>
  </outline>
</glyph>
<glyph name="guillemotright" format="2">
  <advance width="393"/>
  <unicode hex="00BB"/>
  <note>
guillemotright
</note>
  <outline>
    <contour>
      <point x="54" y="94" type="line"/>
      <point x="221" y="253" type="line"/>
      <point x="221" y="258" type="line"/>
      <point x="54" y="417" type="line"/>
      <point x="48" y="412" type="line"/>
      <point x="134" y="256" type="line"/>
      <point x="47" y="99" type="line"/>
    </contour>
    <contour>
      <point x="174" y="101" type="line"/>
      <point x="341" y="253" type="line"/>
      <point x="341" y="258" type="line"/>
      <point x="174" y="410" type="line"/>
      <point x="168" y="405" type="line"/>
      <point x="254" y="256" type="line"/>
      <point x="167" y="106" type="line"/>
    </contour>
  </outline>
</glyph>
<glyph name="onehalf" format="2">
  <advance width="500"/>
  <unicode hex="00BD"/>
  <note>
onehalf
</note>
  <outline>
    <contour>
      <point x="123" y="-173" type="line"/>
      <point x="405" y="-173" type="line"/>
      <point x="446" y="-62" type="line"/>
      <point x="435" y="-58" type="line"/>
      <point x="421.848" y="-87.593"/>
      <point x="409.541" y="-110"/>
      <point x="358" y="-110" type="curve" smooth="yes"/>
      <point x="211" y="-110" type="line"/>
      <point x="211" y="-109" type="line"/>
      <point x="291.52" y="-46.374"/>
      <point x="378" y="5.515"/>
      <point x="378" y="101" type="curve" smooth="yes"/>
      <point x="378" y="155.667"/>
      <point x="335.667" y="193"/>
      <point x="277" y="193" type="curve" smooth="yes"/>
      <point x="197.201" y="193"/>
      <point x="141.923" y="132.115"/>
      <point x="107" y="71" type="curve"/>
      <point x="117" y="66" type="line"/>
      <point x="143.667" y="104.667"/>
      <point x="181" y="135"/>
      <point x="233" y="135" type="curve" smooth="yes"/>
      <point x="285" y="135"/>
      <point x="311" y="97.667"/>
      <point x="311" y="55" type="curve" smooth="yes"/>
      <point x="311" y="-18.529"/>
      <point x="193.227" y="-108.036"/>
      <point x="122" y="-164" type="curve"/>
    </contour>
    <contour>
      <point x="36" y="247" type="line"/>
      <point x="468" y="247" type="line"/>
      <point x="468" y="274" type="line"/>
      <point x="36" y="274" type="line"/>
    </contour>
    <contour>
      <point x="293" y="375" type="curve"/>
      <point x="293" y="689" type="line"/>
      <point x="151" y="689" type="line"/>
      <point x="151" y="678" type="line"/>
      <point x="179.527" y="678"/>
      <point x="222" y="668.72"/>
      <point x="222" y="646" type="curve" smooth="yes"/>
      <point x="222" y="376" type="line" smooth="yes"/>
      <point x="222" y="353.329"/>
      <point x="181.906" y="343"/>
      <point x="154" y="343" type="curve"/>
      <point x="154" y="332" type="line"/>
      <point x="364" y="332" type="line"/>
      <point x="364" y="343" type="line"/>
      <point x="337.25" y="343"/>
      <point x="293" y="350.269"/>
    </contour>
  </outline>
</glyph>
<glyph name="questiondown" format="2">
  <advance width="383"/>
  <unicode hex="00BF"/>
  <note>
questiondown
</note>
  <outline>
    <contour>
      <point x="256" y="-3" type="line"/>
      <point x="273" y="-3" type="line"/>
      <point x="273" y="151" type="line"/>
      <point x="250.333" y="148.333"/>
      <point x="226.333" y="147"/>
      <point x="217" y="147" type="curve" smooth="yes"/>
      <point x="149.003" y="147"/>
      <point x="92" y="166.572"/>
      <point x="92" y="248" type="curve" smooth="yes"/>
      <point x="92" y="310.283"/>
      <point x="116.457" y="337.637"/>
      <point x="171" y="354" type="curve" smooth="yes"/>
      <point x="187" y="359.333"/>
      <point x="203.5" y="363.5"/>
      <point x="220.5" y="366.5" type="curve" smooth="yes"/>
      <point x="237.5" y="369.5"/>
      <point x="254.667" y="372.667"/>
      <point x="272" y="376" type="curve"/>
      <point x="272" y="551" type="line"/>
      <point x="254" y="551" type="line"/>
      <point x="254" y="470" type="line"/>
      <point x="174" y="454"/>
      <point x="131.667" y="442.333"/>
      <point x="105" y="417" type="curve" smooth="yes"/>
      <point x="79.796" y="394.316"/>
      <point x="72" y="312.227"/>
      <point x="72" y="271" type="curve" smooth="yes"/>
      <point x="72" y="209.579"/>
      <point x="79.226" y="129.176"/>
      <point x="126" y="85" type="curve" smooth="yes"/>
      <point x="160.667" y="51.667"/>
      <point x="196" y="44"/>
      <point x="256" y="44" type="curve"/>
    </contour>
    <contour>
      <point x="250" y="608" type="curve" smooth="yes"/>
      <point x="284.667" y="608"/>
      <point x="310" y="634.333"/>
      <point x="310" y="669" type="curve" smooth="yes"/>
      <point x="310" y="703.667"/>
      <point x="284.667" y="728"/>
      <point x="250" y="728" type="curve" smooth="yes"/>
      <point x="215.333" y="728"/>
      <point x="191" y="705.667"/>
      <point x="191" y="671" type="curve" smooth="yes"/>
      <point x="191" y="636.333"/>
      <point x="215.333" y="608"/>
    </contour>
  </outline>
</glyph>
<glyph name="AE" format="2">
  <advance width="1016"/>
  <unicode hex="00C6"/>
  <note>
AE
</note>
  <outline>
    <contour>
      <point x="-56" y="0" type="line"/>
      <point x="164" y="0" type="line"/>
      <point x="164" y="10" type="line"/>
      <point x="129.438" y="15.317"/>
      <point x="90" y="23.008"/>
      <point x="90" y="58" type="curve" smooth="yes"/>
      <point x="90" y="66"/>
      <point x="93.167" y="78"/>
      <point x="99.5" y="94" type="curve" smooth="yes"/>
      <point x="105.833" y="110"/>
      <point x="118.667" y="133.333"/>
      <point x="138" y="164" type="curve" smooth="yes"/>
      <point x="148.667" y="181.333"/>
      <point x="160.833" y="201.333"/>
      <point x="174.5" y="224" type="curve" smooth="yes"/>
      <point x="188.167" y="246.667"/>
      <point x="201.667" y="267.667"/>
      <point x="215" y="287" type="curve"/>
      <point x="483" y="287" type="line"/>
      <point x="483" y="236.333"/>
      <point x="482.333" y="178.667"/>
      <point x="481" y="156" type="curve"/>
      <point x="481" y="118.544"/>
      <point x="480.84" y="58.408"/>
      <point x="468" y="43" type="curve" smooth="yes"/>
      <point x="448" y="19"/>
      <point x="424.333" y="15.333"/>
      <point x="391" y="10" type="curve"/>
      <point x="391" y="0" type="line"/>
      <point x="967" y="0" type="line"/>
      <point x="1007" y="199" type="line"/>
      <point x="996" y="202" type="line"/>
      <point x="941.333" y="88.667"/>
      <point x="882" y="31.667"/>
      <point x="798" y="21" type="curve" smooth="yes"/>
      <point x="759.333" y="15.667"/>
      <point x="721.667" y="15"/>
      <point x="699" y="15" type="curve" smooth="yes"/>
      <point x="647" y="15"/>
      <point x="615.333" y="23.667"/>
      <point x="604" y="41" type="curve" smooth="yes"/>
      <point x="593.333" y="57"/>
      <point x="593.333" y="101.333"/>
      <point x="592" y="144" type="curve" smooth="yes"/>
      <point x="591.333" y="166"/>
      <point x="591" y="196.333"/>
      <point x="591" y="235" type="curve" smooth="yes"/>
      <point x="591" y="273.667"/>
      <point x="591" y="314.667"/>
      <point x="591" y="358" type="curve"/>
      <point x="600.333" y="358"/>
      <point x="608" y="358"/>
      <point x="614" y="358" type="curve" smooth="yes"/>
      <point x="620" y="358"/>
      <point x="625.667" y="358"/>
      <point x="631" y="358" type="curve" smooth="yes"/>
      <point x="641.667" y="358"/>
      <point x="652" y="357.333"/>
      <point x="672" y="356" type="curve" smooth="yes"/>
      <point x="710.667" y="354"/>
      <point x="741" y="343"/>
      <point x="763" y="323" type="curve" smooth="yes"/>
      <point x="787" y="300.333"/>
      <point x="808.333" y="247.667"/>
      <point x="819" y="205" type="curve"/>
      <point x="831" y="205" type="line"/>
      <point x="831" y="520" type="line"/>
      <point x="819" y="520" type="line"/>
      <point x="802.531" y="443.143"/>
      <point x="785.178" y="400.475"/>
      <point x="706" y="382" type="curve" smooth="yes"/>
      <point x="680.905" y="376.623"/>
      <point x="633.54" y="374"/>
      <point x="611" y="374" type="curve" smooth="yes"/>
      <point x="602.333" y="374"/>
      <point x="595.667" y="374"/>
      <point x="591" y="374" type="curve"/>
      <point x="591" y="701" type="line"/>
      <point x="605.667" y="703.667"/>
      <point x="634" y="706"/>
      <point x="662" y="706" type="curve" smooth="yes"/>
      <point x="706" y="706"/>
      <point x="742.333" y="703.833"/>
      <point x="771" y="699.5" type="curve" smooth="yes"/>
      <point x="799.667" y="695.167"/>
      <point x="819.667" y="690.333"/>
      <point x="831" y="685" type="curve" smooth="yes"/>
      <point x="877.667" y="662.333"/>
      <point x="911.667" y="617"/>
      <point x="965" y="549" type="curve"/>
      <point x="975" y="554" type="line"/>
      <point x="926" y="720" type="line"/>
      <point x="382" y="720" type="line"/>
      <point x="382" y="710" type="line"/>
      <point x="415.333" y="706"/>
      <point x="440.333" y="701"/>
      <point x="463" y="689" type="curve"/>
      <point x="416.667" y="620.094"/>
      <point x="330.121" y="492.062"/>
      <point x="273" y="407.5" type="curve" smooth="yes"/>
      <point x="205" y="306.833"/>
      <point x="140.667" y="211.333"/>
      <point x="98" y="150" type="curve" smooth="yes"/>
      <point x="74" y="116"/>
      <point x="54.167" y="90.333"/>
      <point x="38.5" y="73" type="curve" smooth="yes"/>
      <point x="22.833" y="55.667"/>
      <point x="12.333" y="44.667"/>
      <point x="7" y="40" type="curve"/>
      <point x="3.667" y="37.333"/>
      <point x="-3.167" y="32.333"/>
      <point x="-13.5" y="25" type="curve" smooth="yes"/>
      <point x="-23.833" y="17.667"/>
      <point x="-38" y="13"/>
      <point x="-56" y="11" type="curve"/>
    </contour>
    <contour>
      <point x="230" y="308" type="line"/>
      <point x="269.548" y="368.485"/>
      <point x="336.432" y="468.648"/>
      <point x="377" y="529.5" type="curve" smooth="yes"/>
      <point x="423.667" y="599.5"/>
      <point x="463.333" y="657"/>
      <point x="478" y="677" type="curve"/>
      <point x="483" y="677" type="line"/>
      <point x="483" y="308" type="line"/>
    </contour>
  </outline>
</glyph>
<glyph name="Eth" format="2">
  <advance width="852"/>
  <unicode hex="00D0"/>
  <note>
Eth
</note>
  <outline>
    <contour>
      <point x="41" y="0" type="line"/>
      <point x="406" y="0" type="line" smooth="yes"/>
      <point x="436.667" y="0"/>
      <point x="468.333" y="2.167"/>
      <point x="501" y="6.5" type="curve" smooth="yes"/>
      <point x="566.333" y="15.167"/>
      <point x="628.333" y="36"/>
      <point x="683" y="72" type="curve" smooth="yes"/>
      <point x="710.333" y="90"/>
      <point x="734.333" y="112.667"/>
      <point x="755" y="140" type="curve" smooth="yes"/>
      <point x="796.333" y="194.667"/>
      <point x="822" y="270"/>
      <point x="822" y="370" type="curve" smooth="yes"/>
      <point x="822" y="530.72"/>
      <point x="737.547" y="635.766"/>
      <point x="618" y="687" type="curve" smooth="yes"/>
      <point x="559.624" y="712.54"/>
      <point x="482" y="721"/>
      <point x="421" y="721" type="curve" smooth="yes"/>
      <point x="45" y="721" type="line"/>
      <point x="45" y="710" type="line"/>
      <point x="79.667" y="706"/>
      <point x="107" y="698"/>
      <point x="127" y="674" type="curve" smooth="yes"/>
      <point x="138" y="661"/>
      <point x="143" y="630"/>
      <point x="143" y="594" type="curve" smooth="yes"/>
      <point x="143" y="423" type="line"/>
      <point x="66" y="423" type="line"/>
      <point x="66" y="377" type="line"/>
      <point x="143" y="377" type="line"/>
      <point x="143" y="156" type="line" smooth="yes"/>
      <point x="143" y="97"/>
      <point x="133" y="63"/>
      <point x="121" y="51" type="curve" smooth="yes"/>
      <point x="105" y="34"/>
      <point x="74.333" y="14"/>
      <point x="41" y="10" type="curve"/>
    </contour>
    <contour>
      <point x="383" y="15" type="curve" smooth="yes"/>
      <point x="347" y="15"/>
      <point x="301.667" y="19.333"/>
      <point x="275" y="46" type="curve" smooth="yes"/>
      <point x="258.7" y="62.3"/>
      <point x="252" y="102"/>
      <point x="252" y="155" type="curve" smooth="yes"/>
      <point x="252" y="377" type="line"/>
      <point x="444" y="377" type="line"/>
      <point x="444" y="423" type="line"/>
      <point x="252" y="423" type="line"/>
      <point x="252" y="602" type="line" smooth="yes"/>
      <point x="252" y="655"/>
      <point x="259" y="687"/>
      <point x="264" y="692" type="curve" smooth="yes"/>
      <point x="273" y="700"/>
      <point x="321" y="705"/>
      <point x="356" y="705" type="curve" smooth="yes"/>
      <point x="403" y="705"/>
      <point x="432.333" y="701.333"/>
      <point x="459" y="696" type="curve" smooth="yes"/>
      <point x="598.851" y="671.795"/>
      <point x="699" y="519.139"/>
      <point x="699" y="368" type="curve" smooth="yes"/>
      <point x="699" y="193.333"/>
      <point x="628" y="68.333"/>
      <point x="484" y="27" type="curve" smooth="yes"/>
      <point x="453.333" y="17.667"/>
      <point x="416.333" y="15"/>
    </contour>
  </outline>
</glyph>
<glyph name="multiply" format="2">
  <advance width="700"/>
  <unicode hex="00D7"/>
  <note>
multiply
</note>
  <outline>
    <contour>
      <point x="184" y="66" type="line"/>
      <point x="351" y="234" type="line"/>
      <point x="517" y="66" type="line"/>
      <point x="544" y="94" type="line"/>
      <point x="376" y="260" type="line"/>
      <point x="544" y="426" type="line"/>
      <point x="516" y="454" type="line"/>
      <point x="350" y="286" type="line"/>
      <point x="184" y="454" type="line"/>
      <point x="156" y="427" type="line"/>
      <point x="324" y="261" type="line"/>
      <point x="156" y="94" type="line"/>
    </contour>
  </outline>
</glyph>
<glyph name="Oslash" format="2">
  <advance width="808"/>
  <unicode hex="00D8"/>
  <note>
Oslash
</note>
  <outline>
    <contour>
      <point x="135" y="-34" type="line"/>
      <point x="196" y="52" type="line"/>
      <point x="256" y="13.333"/>
      <point x="326" y="-5"/>
      <point x="402" y="-5" type="curve" smooth="yes"/>
      <point x="504.667" y="-5"/>
      <point x="598.833" y="32.333"/>
      <point x="667.5" y="99" type="curve" smooth="yes"/>
      <point x="736.167" y="165.667"/>
      <point x="779" y="258.333"/>
      <point x="779" y="365" type="curve" smooth="yes"/>
      <point x="779" y="485"/>
      <point x="727" y="596"/>
      <point x="631" y="664" type="curve"/>
      <point x="686" y="738" type="line"/>
      <point x="667" y="751" type="line"/>
      <point x="614" y="675" type="line"/>
      <point x="559.333" y="709.667"/>
      <point x="493.667" y="730"/>
      <point x="415" y="730" type="curve" smooth="yes"/>
      <point x="311" y="730"/>
      <point x="213.5" y="694.833"/>
      <point x="143.5" y="631.5" type="curve" smooth="yes"/>
      <point x="73.5" y="568.167"/>
      <point x="29" y="475.667"/>
      <point x="29" y="361" type="curve" smooth="yes"/>
      <point x="29" y="231.667"/>
      <point x="88" y="128.333"/>
      <point x="180" y="63" type="curve"/>
      <point x="116" y="-21" type="line"/>
    </contour>
    <contour>
      <point x="406" y="10" type="curve" smooth="yes"/>
      <point x="328.667" y="10"/>
      <point x="271.667" y="40.667"/>
      <point x="229" y="98" type="curve"/>
      <point x="590" y="606" type="line"/>
      <point x="634" y="538"/>
      <point x="655" y="448"/>
      <point x="655" y="364" type="curve" smooth="yes"/>
      <point x="655" y="280"/>
      <point x="634.333" y="191.833"/>
      <point x="593" y="124.5" type="curve" smooth="yes"/>
      <point x="551.667" y="57.167"/>
      <point x="490" y="10"/>
    </contour>
    <contour>
      <point x="216" y="113" type="line"/>
      <point x="173.333" y="178.333"/>
      <point x="153" y="266"/>
      <point x="153" y="358" type="curve" smooth="yes"/>
      <point x="153" y="444.667"/>
      <point x="171.833" y="533.333"/>
      <point x="212.5" y="600" type="curve" smooth="yes"/>
      <point x="253.167" y="666.667"/>
      <point x="316.333" y="713"/>
      <point x="403" y="713" type="curve" smooth="yes"/>
      <point x="477.667" y="713"/>
      <point x="537" y="678"/>
      <point x="577" y="622" type="curve"/>
    </contour>
  </outline>
</glyph>
<glyph name="germandbls" format="2">
  <advance width="536"/>
  <unicode hex="00DF"/>
  <note>
germandbls
</note>
  <outline>
    <contour>
      <point x="359" y="-1" type="curve" smooth="yes"/>
      <point x="458.246" y="-1"/>
      <point x="527" y="51.262"/>
      <point x="527" y="138" type="curve" smooth="yes"/>
      <point x="527" y="200.667"/>
      <point x="502.333" y="229.333"/>
      <point x="457" y="264" type="curve" smooth="yes"/>
      <point x="442.333" y="275.333"/>
      <point x="429.667" y="284.833"/>
      <point x="419" y="292.5" type="curve" smooth="yes"/>
      <point x="408.333" y="300.167"/>
      <point x="396" y="309.667"/>
      <point x="382" y="321" type="curve" smooth="yes"/>
      <point x="359.333" y="339.667"/>
      <point x="336" y="364"/>
      <point x="336" y="404" type="curve" smooth="yes"/>
      <point x="336" y="447.586"/>
      <point x="360.325" y="470.453"/>
      <point x="388" y="496" type="curve" smooth="yes"/>
      <point x="417.277" y="523.025"/>
      <point x="440" y="554.317"/>
      <point x="440" y="608" type="curve" smooth="yes"/>
      <point x="440" y="668.099"/>
      <point x="401.852" y="728"/>
      <point x="297" y="728" type="curve" smooth="yes"/>
      <point x="213.355" y="728"/>
      <point x="132.02" y="674.381"/>
      <point x="100" y="597" type="curve" smooth="yes"/>
      <point x="88" y="567.667"/>
      <point x="86" y="529"/>
      <point x="86" y="481" type="curve"/>
      <point x="13" y="440" type="line"/>
      <point x="13" y="429" type="line"/>
      <point x="85" y="429" type="line"/>
      <point x="85" y="42" type="line" smooth="yes"/>
      <point x="85" y="21.56"/>
      <point x="38.508" y="12.459"/>
      <point x="9" y="10" type="curve"/>
      <point x="9" y="0" type="line"/>
      <point x="224" y="0" type="line"/>
      <point x="224" y="10" type="line"/>
      <point x="198.667" y="12.667"/>
      <point x="168" y="21.667"/>
      <point x="168" y="39" type="curve" smooth="yes"/>
      <point x="168" y="473" type="line" smooth="yes"/>
      <point x="168" y="483"/>
      <point x="168" y="491.667"/>
      <point x="168" y="499" type="curve" smooth="yes"/>
      <point x="168" y="514.028"/>
      <point x="171.906" y="557.122"/>
      <point x="173" y="579" type="curve" smooth="yes"/>
      <point x="179.646" y="683.117"/>
      <point x="240.006" y="709"/>
      <point x="278" y="709" type="curve"/>
      <point x="340.667" y="702.333"/>
      <point x="378" y="658"/>
      <point x="378" y="590" type="curve" smooth="yes"/>
      <point x="378" y="496.098"/>
      <point x="365.782" y="497.22"/>
      <point x="310" y="448" type="curve"/>
      <point x="282" y="421.333"/>
      <point x="263" y="402"/>
      <point x="263" y="362" type="curve" smooth="yes"/>
      <point x="263" y="311.333"/>
      <point x="296.333" y="279.333"/>
      <point x="331" y="250" type="curve" smooth="yes"/>
      <point x="347.667" y="236"/>
      <point x="364" y="223.5"/>
      <point x="380" y="212.5" type="curve" smooth="yes"/>
      <point x="396" y="201.5"/>
      <point x="411.667" y="189.667"/>
      <point x="427" y="177" type="curve" smooth="yes"/>
      <point x="448.333" y="159.667"/>
      <point x="459" y="134.667"/>
      <point x="459" y="102" type="curve" smooth="yes"/>
      <point x="459" y="54.083"/>
      <point x="431.405" y="12"/>
      <point x="383" y="12" type="curve" smooth="yes"/>
      <point x="324.508" y="12"/>
      <point x="278.907" y="76.278"/>
      <point x="258" y="139" type="curve"/>
      <point x="249" y="139" type="line"/>
      <point x="249" y="21" type="line"/>
      <point x="286.628" y="2.186"/>
      <point x="328.643" y="-1"/>
    </contour>
  </outline>
</glyph>
<glyph name="ae" format="2">
  <advance width="687"/>
  <unicode hex="00E6"/>
  <note>
ae
</note>
  <outline>
    <contour>
      <point x="129" y="-1" type="curve" smooth="yes"/>
      <point x="202.873" y="-1"/>
      <point x="262.509" y="54.68"/>
      <point x="305" y="117" type="curve"/>
      <point x="338.8" y="46.583"/>
      <point x="409.398" y="-1"/>
      <point x="496" y="-1" type="curve" smooth="yes"/>
      <point x="599.172" y="-1"/>
      <point x="670.745" y="80.097"/>
      <point x="684" y="153" type="curve"/>
      <point x="676" y="155" type="line"/>
      <point x="660" y="105.667"/>
      <point x="605.667" y="66"/>
      <point x="539" y="66" type="curve" smooth="yes"/>
      <point x="422.829" y="66"/>
      <point x="358" y="153.956"/>
      <point x="358" y="276" type="curve" smooth="yes"/>
      <point x="358" y="284"/>
      <point x="358.167" y="291.667"/>
      <point x="358.5" y="299" type="curve" smooth="yes"/>
      <point x="358.833" y="306.333"/>
      <point x="359" y="312.667"/>
      <point x="359" y="318" type="curve"/>
      <point x="674" y="318" type="line"/>
      <point x="670" y="424.667"/>
      <point x="598.667" y="483"/>
      <point x="484" y="483" type="curve" smooth="yes"/>
      <point x="433.333" y="483"/>
      <point x="389.667" y="464"/>
      <point x="355" y="432" type="curve"/>
      <point x="343" y="462.667"/>
      <point x="306.667" y="483"/>
      <point x="272" y="483" type="curve" smooth="yes"/>
      <point x="234.838" y="483"/>
      <point x="149.832" y="442.519"/>
      <point x="90" y="408" type="curve"/>
      <point x="63.323" y="391.327"/>
      <point x="31" y="375.174"/>
      <point x="31" y="343" type="curve" smooth="yes"/>
      <point x="31" y="323"/>
      <point x="48.667" y="305"/>
      <point x="70" y="305" type="curve" smooth="yes"/>
      <point x="92.667" y="305"/>
      <point x="116" y="322.333"/>
      <point x="116" y="341" type="curve" smooth="yes"/>
      <point x="116" y="386" type="line" smooth="yes"/>
      <point x="116" y="407.119"/>
      <point x="161.618" y="437"/>
      <point x="200" y="437" type="curve" smooth="yes"/>
      <point x="245.644" y="437"/>
      <point x="278" y="409.312"/>
      <point x="278" y="391" type="curve" smooth="yes"/>
      <point x="278" y="287" type="line"/>
      <point x="250.027" y="270.216"/>
      <point x="163.911" y="226.898"/>
      <point x="115" y="195" type="curve" smooth="yes"/>
      <point x="72.333" y="167"/>
      <point x="38" y="131.667"/>
      <point x="38" y="93" type="curve" smooth="yes"/>
      <point x="38" y="27.614"/>
      <point x="81.887" y="-1"/>
    </contour>
    <contour>
      <point x="181" y="59" type="curve" smooth="yes"/>
      <point x="142.333" y="59"/>
      <point x="116" y="93.333"/>
      <point x="116" y="128" type="curve" smooth="yes"/>
      <point x="116" y="196.486"/>
      <point x="216.601" y="226.656"/>
      <point x="278" y="271" type="curve"/>
      <point x="278" y="103" type="line"/>
      <point x="255.333" y="69.667"/>
      <point x="223.667" y="59"/>
    </contour>
    <contour>
      <point x="360" y="334" type="line"/>
      <point x="360" y="382.263"/>
      <point x="412.615" y="466"/>
      <point x="485" y="466" type="curve" smooth="yes"/>
      <point x="542.333" y="466"/>
      <point x="576" y="425.333"/>
      <point x="576" y="376" type="curve" smooth="yes"/>
      <point x="576" y="357.333"/>
      <point x="571.333" y="350.667"/>
      <point x="562" y="340" type="curve"/>
      <point x="548.667" y="334.667"/>
      <point x="531" y="334"/>
      <point x="511" y="334" type="curve" smooth="yes"/>
    </contour>
  </outline>
</glyph>
<glyph name="eth" format="2">
  <advance width="502"/>
  <unicode hex="00F0"/>
  <note>
eth
</note>
  <outline>
    <contour>
      <point x="251" y="-3" type="curve" smooth="yes"/>
      <point x="385.198" y="-3"/>
      <point x="482" y="116.505"/>
      <point x="482" y="277" type="curve" smooth="yes"/>
      <point x="482" y="422.342"/>
      <point x="400.213" y="551.981"/>
      <point x="286" y="639" type="curve"/>
      <point x="379" y="701" type="line"/>
      <point x="362" y="721" type="line"/>
      <point x="265" y="653" type="line"/>
      <point x="205" y="690.333"/>
      <point x="148" y="716.333"/>
      <point x="88" y="727" type="curve"/>
      <point x="84" y="713" type="line"/>
      <point x="130.667" y="694.333"/>
      <point x="179" y="666.667"/>
      <point x="223" y="624" type="curve"/>
      <point x="109" y="551" type="line"/>
      <point x="124" y="530" type="line"/>
      <point x="239" y="609" type="line"/>
      <point x="276.666" y="574.024"/>
      <point x="329.897" y="498.378"/>
      <point x="345" y="443" type="curve"/>
      <point x="322.333" y="449.667"/>
      <point x="291.333" y="459"/>
      <point x="242" y="459" type="curve" smooth="yes"/>
      <point x="111.339" y="459"/>
      <point x="19" y="361.235"/>
      <point x="19" y="239" type="curve" smooth="yes"/>
      <point x="19" y="104.534"/>
      <point x="113.423" y="-3"/>
    </contour>
    <contour>
      <point x="249" y="11" type="curve" smooth="yes"/>
      <point x="166.333" y="11"/>
      <point x="111" y="84.667"/>
      <point x="111" y="210" type="curve" smooth="yes"/>
      <point x="111" y="320.873"/>
      <point x="156.94" y="438"/>
      <point x="266" y="438" type="curve" smooth="yes"/>
      <point x="293.133" y="438"/>
      <point x="339.725" y="424.093"/>
      <point x="351" y="410" type="curve" smooth="yes"/>
      <point x="379.227" y="374.075"/>
      <point x="392" y="290.372"/>
      <point x="392" y="233" type="curve" smooth="yes"/>
      <point x="392" y="90.333"/>
      <point x="341" y="11"/>
    </contour>
  </outline>
</glyph>
<glyph name="divide" format="2">
  <advance width="700"/>
  <unicode hex="00F7"/>
  <note>
divide
</note>
  <outline>
    <contour>
      <point x="125" y="241" type="line"/>
      <point x="575" y="241" type="line"/>
      <point x="575" y="281" type="line"/>
      <point x="125" y="281" type="line"/>
    </contour>
    <contour>
      <point x="351" y="59" type="curve" smooth="yes"/>
      <point x="381.667" y="59"/>
      <point x="403" y="79.333"/>
      <point x="403" y="110" type="curve" smooth="yes"/>
      <point x="403" y="142"/>
      <point x="381.667" y="167"/>
      <point x="351" y="167" type="curve" smooth="yes"/>
      <point x="319" y="167"/>
      <point x="297" y="142.667"/>
      <point x="297" y="112" type="curve" smooth="yes"/>
      <point x="297" y="81.333"/>
      <point x="319" y="59"/>
    </contour>
    <contour>
      <point x="351" y="354" type="curve" smooth="yes"/>
      <point x="381.667" y="354"/>
      <point x="403" y="379"/>
      <point x="403" y="411" type="curve" smooth="yes"/>
      <point x="403" y="441.667"/>
      <point x="381.667" y="462"/>
      <point x="351" y="462" type="curve" smooth="yes"/>
      <point x="319" y="462"/>
      <point x="297" y="439.667"/>
      <point x="297" y="409" type="curve" smooth="yes"/>
      <point x="297" y="378.333"/>
      <point x="319" y="354"/>
    </contour>
  </outline>
</glyph>
<glyph name="thorn" format="2">
  <advance width="526"/>
  <unicode hex="00FE"/>
  <note>
thorn
</note>
  <outline>
    <contour>
      <point x="-8" y="-230" type="line"/>
      <point x="238" y="-230" type="line"/>
      <point x="238" y="-219" type="line"/>
      <point x="207.169" y="-216.431"/>
      <point x="154" y="-213"/>
      <point x="154" y="-192" type="curve" smooth="yes"/>
      <point x="154" y="13" type="line"/>
      <point x="179.333" y="7"/>
      <point x="203.333" y="4"/>
      <point x="226" y="4" type="curve" smooth="yes"/>
      <point x="394.737" y="4"/>
      <point x="506" y="109.734"/>
      <point x="506" y="264" type="curve" smooth="yes"/>
      <point x="506" y="374.874"/>
      <point x="441.749" y="483"/>
      <point x="322" y="483" type="curve" smooth="yes"/>
      <point x="248.697" y="483"/>
      <point x="187.969" y="427.696"/>
      <point x="155" y="370" type="curve"/>
      <point x="153" y="370" type="line"/>
      <point x="153" y="726" type="line"/>
      <point x="148" y="726" type="line"/>
      <point x="9" y="665" type="line"/>
      <point x="9" y="659" type="line"/>
      <point x="72" y="626" type="line"/>
      <point x="72" y="-185" type="line" smooth="yes"/>
      <point x="72" y="-206.311"/>
      <point x="20.17" y="-216.183"/>
      <point x="-8" y="-219" type="curve"/>
    </contour>
    <contour>
      <point x="266" y="23" type="curve" smooth="yes"/>
      <point x="183.483" y="23"/>
      <point x="155" y="84"/>
      <point x="155" y="150" type="curve" smooth="yes"/>
      <point x="155" y="342" type="line" smooth="yes"/>
      <point x="155" y="367.463"/>
      <point x="203.63" y="418"/>
      <point x="266" y="418" type="curve" smooth="yes"/>
      <point x="366.635" y="418"/>
      <point x="416" y="337.136"/>
      <point x="416" y="235" type="curve" smooth="yes"/>
      <point x="416" y="121.565"/>
      <point x="349.804" y="23"/>
    </contour>
  </outline>
</glyph>
<glyph name="Lslash" format="2">
  <advance width="708"/>
  <unicode hex="0141"/>
  <note>
Lslash
</note>
  <outline>
    <contour>
      <point x="34" y="0" type="line"/>
      <point x="676" y="0" type="line"/>
      <point x="713" y="206" type="line"/>
      <point x="703" y="209" type="line"/>
      <point x="668.987" y="123.968"/>
      <point x="635.213" y="57.834"/>
      <point x="534" y="30" type="curve" smooth="yes"/>
      <point x="494.906" y="18.502"/>
      <point x="411.496" y="15"/>
      <point x="388" y="15" type="curve" smooth="yes"/>
      <point x="343.926" y="15"/>
      <point x="277.823" y="27.221"/>
      <point x="266" y="42" type="curve"/>
      <point x="254" y="60.667"/>
      <point x="254.333" y="103.333"/>
      <point x="253" y="146" type="curve" smooth="yes"/>
      <point x="253" y="168.667"/>
      <point x="252.833" y="189"/>
      <point x="252.5" y="207" type="curve" smooth="yes"/>
      <point x="252.167" y="225"/>
      <point x="252" y="242.667"/>
      <point x="252" y="260" type="curve" smooth="yes"/>
      <point x="252" y="277.333"/>
      <point x="252" y="295"/>
      <point x="252" y="313" type="curve" smooth="yes"/>
      <point x="252" y="331"/>
      <point x="252" y="351"/>
      <point x="252" y="373" type="curve"/>
      <point x="425" y="423" type="line"/>
      <point x="417" y="450" type="line"/>
      <point x="252" y="399" type="line"/>
      <point x="252" y="420.333"/>
      <point x="252" y="439.667"/>
      <point x="252" y="457" type="curve" smooth="yes"/>
      <point x="252" y="484.328"/>
      <point x="254.05" y="591.611"/>
      <point x="255" y="622" type="curve" smooth="yes"/>
      <point x="257.455" y="688.291"/>
      <point x="312.884" y="702.751"/>
      <point x="360" y="710" type="curve"/>
      <point x="360" y="720" type="line"/>
      <point x="41" y="720" type="line"/>
      <point x="41" y="710" type="line"/>
      <point x="75.667" y="706"/>
      <point x="109.333" y="694.667"/>
      <point x="128" y="672" type="curve" smooth="yes"/>
      <point x="139.17" y="658.968"/>
      <point x="143" y="620.972"/>
      <point x="143" y="592" type="curve" smooth="yes"/>
      <point x="143" y="580.667"/>
      <point x="143" y="569"/>
      <point x="143" y="557" type="curve" smooth="yes"/>
      <point x="143" y="365" type="line"/>
      <point x="16" y="326" type="line"/>
      <point x="24" y="300" type="line"/>
      <point x="143" y="339" type="line"/>
      <point x="143" y="321.667"/>
      <point x="143" y="304"/>
      <point x="143" y="286" type="curve" smooth="yes"/>
      <point x="143" y="254.829"/>
      <point x="141" y="178.658"/>
      <point x="141" y="156" type="curve" smooth="yes"/>
      <point x="141" y="119.909"/>
      <point x="135.189" y="63.827"/>
      <point x="122" y="48" type="curve" smooth="yes"/>
      <point x="103.333" y="26.667"/>
      <point x="67.333" y="15.333"/>
      <point x="34" y="10" type="curve"/>
    </contour>
  </outline>
</glyph>
<glyph name="lslash" format="2">
  <advance width="256"/>
  <unicode hex="0142"/>
  <note>
lslash
</note>
  <outline>
    <contour>
      <point x="12" y="0" type="line"/>
      <point x="245" y="0" type="line"/>
      <point x="245" y="11" type="line"/>
      <point x="200.201" y="12.792"/>
      <point x="171" y="11.118"/>
      <point x="171" y="39" type="curve" smooth="yes"/>
      <point x="171" y="427" type="line"/>
      <point x="269" y="463" type="line"/>
      <point x="260" y="487" type="line"/>
      <point x="171" y="452" type="line"/>
      <point x="171" y="723" type="line"/>
      <point x="164" y="723" type="line"/>
      <point x="21" y="676" type="line"/>
      <point x="21" y="670" type="line"/>
      <point x="29" y="666.667"/>
      <point x="39" y="661.5"/>
      <point x="51" y="654.5" type="curve" smooth="yes"/>
      <point x="63" y="647.5"/>
      <point x="72" y="642.333"/>
      <point x="78" y="639" type="curve"/>
      <point x="87.333" y="632.333"/>
      <point x="88" y="628.667"/>
      <point x="88" y="618" type="curve" smooth="yes"/>
      <point x="88" y="423" type="line"/>
      <point x="-9" y="387" type="line"/>
      <point x="0" y="364" type="line"/>
      <point x="88" y="399" type="line"/>
      <point x="88" y="43" type="line" smooth="yes"/>
      <point x="88" y="32.333"/>
      <point x="83" y="24.833"/>
      <point x="73" y="20.5" type="curve" smooth="yes"/>
      <point x="63" y="16.167"/>
      <point x="42.667" y="13"/>
      <point x="12" y="11" type="curve"/>
    </contour>
  </outline>
</glyph>
<glyph name="oe" format="2">
  <advance width="792"/>
  <unicode hex="0153"/>
  <note>
oe
</note>
  <outline>
    <contour>
      <point x="250" y="-3" type="curve" smooth="yes"/>
      <point x="326" y="-3"/>
      <point x="387" y="33"/>
      <point x="431" y="101" type="curve"/>
      <point x="467" y="37"/>
      <point x="527.333" y="-1"/>
      <point x="606" y="-1" type="curve" smooth="yes"/>
      <point x="705.948" y="-1"/>
      <point x="775.838" y="79.61"/>
      <point x="789" y="152" type="curve"/>
      <point x="780" y="154" type="line"/>
      <point x="765.333" y="104.667"/>
      <point x="712" y="66"/>
      <point x="648" y="66" type="curve" smooth="yes"/>
      <point x="530.073" y="66"/>
      <point x="469" y="161.685"/>
      <point x="469" y="278" type="curve" smooth="yes"/>
      <point x="469" y="285.333"/>
      <point x="469.333" y="292.5"/>
      <point x="470" y="299.5" type="curve" smooth="yes"/>
      <point x="470.667" y="306.5"/>
      <point x="471" y="312.667"/>
      <point x="471" y="318" type="curve"/>
      <point x="782" y="318" type="line"/>
      <point x="774.172" y="427.59"/>
      <point x="697.405" y="483"/>
      <point x="593" y="483" type="curve" smooth="yes"/>
      <point x="523.837" y="483"/>
      <point x="466.553" y="438.542"/>
      <point x="434" y="387" type="curve"/>
      <point x="391.333" y="453.667"/>
      <point x="320.333" y="483"/>
      <point x="251" y="483" type="curve" smooth="yes"/>
      <point x="114.582" y="483"/>
      <point x="19" y="371.435"/>
      <point x="19" y="245" type="curve" smooth="yes"/>
      <point x="19" y="84.922"/>
      <point x="134.048" y="-3"/>
    </contour>
    <contour>
      <point x="250" y="11" type="curve" smooth="yes"/>
      <point x="148.971" y="11"/>
      <point x="112" y="119.669"/>
      <point x="112" y="239" type="curve" smooth="yes"/>
      <point x="112" y="346.905"/>
      <point x="157.414" y="467"/>
      <point x="245" y="467" type="curve" smooth="yes"/>
      <point x="348.393" y="467"/>
      <point x="386" y="348.11"/>
      <point x="386" y="246" type="curve" smooth="yes"/>
      <point x="386" y="144.501"/>
      <point x="348.277" y="11"/>
    </contour>
    <contour>
      <point x="473" y="332" type="curve"/>
      <point x="473" y="376.468"/>
      <point x="528.117" y="466"/>
      <point x="594" y="466" type="curve" smooth="yes"/>
      <point x="650" y="466"/>
      <point x="684" y="425.333"/>
      <point x="684" y="376" type="curve" smooth="yes"/>
      <point x="684" y="357.333"/>
      <point x="681.333" y="350.667"/>
      <point x="672" y="340" type="curve"/>
      <point x="660" y="334.667"/>
      <point x="639.667" y="334"/>
      <point x="621" y="334" type="curve" smooth="yes"/>
      <point x="596.448" y="334"/>
      <point x="535.688" y="332"/>
      <point x="512" y="332" type="curve" smooth="yes"/>
      <point x="500.667" y="332"/>
      <point x="487.667" y="332"/>
    </contour>
  </outline>
</glyph>
<glyph name="scaron" format="2">
  <advance width="382"/>
  <unicode hex="0161"/>
  <note>
scaron
</note>
  <outline>
    <contour>
      <point x="182" y="-2" type="curve" smooth="yes"/>
      <point x="283.379" y="-2"/>
      <point x="369" y="42.436"/>
      <point x="369" y="146" type="curve" smooth="yes"/>
      <point x="369" y="214"/>
      <point x="321" y="263.333"/>
      <point x="261" y="278" type="curve" smooth="yes"/>
      <point x="248.333" y="281.333"/>
      <point x="233.333" y="284.833"/>
      <point x="216" y="288.5" type="curve" smooth="yes"/>
      <point x="198.667" y="292.167"/>
      <point x="182.667" y="295.667"/>
      <point x="168" y="299" type="curve" smooth="yes"/>
      <point x="125.333" y="309.667"/>
      <point x="94" y="326.667"/>
      <point x="94" y="376" type="curve" smooth="yes"/>
      <point x="94" y="434.131"/>
      <point x="136.535" y="469"/>
      <point x="185" y="469" type="curve" smooth="yes"/>
      <point x="261.685" y="469"/>
      <point x="294.841" y="410.627"/>
      <point x="332" y="331" type="curve"/>
      <point x="340" y="333" type="line"/>
      <point x="328" y="457" type="line"/>
      <point x="289.333" y="471.667"/>
      <point x="249" y="483"/>
      <point x="193" y="483" type="curve" smooth="yes"/>
      <point x="106.749" y="483"/>
      <point x="32" y="429.776"/>
      <point x="32" y="347" type="curve" smooth="yes"/>
      <point x="32" y="287"/>
      <point x="66.333" y="242.333"/>
      <point x="117" y="225" type="curve" smooth="yes"/>
      <point x="143.667" y="215.667"/>
      <point x="178" y="207.667"/>
      <point x="214" y="201" type="curve" smooth="yes"/>
      <point x="259.333" y="191.667"/>
      <point x="287" y="163.333"/>
      <point x="287" y="122" type="curve" smooth="yes"/>
      <point x="287" y="46"/>
      <point x="246" y="10"/>
      <point x="182" y="10" type="curve" smooth="yes"/>
      <point x="98.992" y="10"/>
      <point x="58.703" y="89.892"/>
      <point x="35" y="161" type="curve"/>
      <point x="27" y="161" type="line"/>
      <point x="27" y="29" type="line"/>
      <point x="71" y="9"/>
      <point x="123.333" y="-2"/>
    </contour>
    <contour>
      <point x="188" y="516" type="line"/>
      <point x="203" y="516" type="line"/>
      <point x="298" y="686" type="line"/>
      <point x="286" y="693" type="line"/>
      <point x="195" y="582" type="line"/>
      <point x="105" y="693" type="line"/>
      <point x="93" y="686" type="line"/>
    </contour>
  </outline>
</glyph>
<glyph name="Zcaron" format="2">
  <advance width="694"/>
  <unicode hex="017D"/>
  <note>
Zcaron
</note>
  <outline>
    <contour>
      <point x="20" y="0" type="line"/>
      <point x="623" y="0" type="line"/>
      <point x="695" y="225" type="line"/>
      <point x="684" y="229" type="line"/>
      <point x="617.333" y="114.333"/>
      <point x="532" y="34"/>
      <point x="424" y="22" type="curve" smooth="yes"/>
      <point x="385.333" y="18"/>
      <point x="347.667" y="17"/>
      <point x="325" y="17" type="curve" smooth="yes"/>
      <point x="298.333" y="17"/>
      <point x="270.667" y="17"/>
      <point x="242" y="17" type="curve" smooth="yes"/>
      <point x="213.333" y="17"/>
      <point x="184" y="17.333"/>
      <point x="154" y="18" type="curve"/>
      <point x="659" y="712" type="line"/>
      <point x="656" y="718" type="line"/>
      <point x="631.333" y="718"/>
      <point x="601.333" y="718"/>
      <point x="566" y="718" type="curve" smooth="yes"/>
      <point x="531.333" y="718"/>
      <point x="494.333" y="718"/>
      <point x="455" y="718" type="curve" smooth="yes"/>
      <point x="415.667" y="718"/>
      <point x="376" y="718"/>
      <point x="336" y="718" type="curve" smooth="yes"/>
      <point x="250.988" y="718"/>
      <point x="123.394" y="718.4"/>
      <point x="87" y="721" type="curve"/>
      <point x="14" y="508" type="line"/>
      <point x="25" y="504" type="line"/>
      <point x="52.672" y="549.281"/>
      <point x="118.228" y="623.857"/>
      <point x="152" y="652" type="curve" smooth="yes"/>
      <point x="185.333" y="678.667"/>
      <point x="225.333" y="697.333"/>
      <point x="276" y="700" type="curve" smooth="yes"/>
      <point x="301.333" y="701.333"/>
      <point x="348" y="702"/>
      <point x="396" y="702" type="curve" smooth="yes"/>
      <point x="420" y="702"/>
      <point x="443.333" y="702"/>
      <point x="466" y="702" type="curve" smooth="yes"/>
      <point x="489.333" y="702"/>
      <point x="508" y="702"/>
      <point x="522" y="702" type="curve"/>
      <point x="16" y="7" type="line"/>
    </contour>
    <contour>
      <point x="345" y="764" type="line"/>
      <point x="360" y="764" type="line"/>
      <point x="466" y="927" type="line"/>
      <point x="453" y="934" type="line"/>
      <point x="353" y="830" type="line"/>
      <point x="252" y="934" type="line"/>
      <point x="239" y="927" type="line"/>
    </contour>
  </outline>
</glyph>
<glyph name="zcaron" format="2">
  <advance width="433"/>
  <unicode hex="017E"/>
  <note>
zcaron
</note>
  <outline>
    <contour>
      <point x="415" y="-3" type="curve"/>
      <point x="424" y="-3" type="line"/>
      <point x="437" y="149" type="line"/>
      <point x="427" y="150" type="line"/>
      <point x="402.362" y="73.007"/>
      <point x="374.611" y="19"/>
      <point x="274" y="19" type="curve" smooth="yes"/>
      <point x="123" y="19" type="line"/>
      <point x="405" y="463" type="line"/>
      <point x="404" y="472" type="line"/>
      <point x="376" y="472"/>
      <point x="350.5" y="471.833"/>
      <point x="327.5" y="471.5" type="curve" smooth="yes"/>
      <point x="304.5" y="471.167"/>
      <point x="281.667" y="471"/>
      <point x="259" y="471" type="curve" smooth="yes"/>
      <point x="236.333" y="471"/>
      <point x="212.667" y="471"/>
      <point x="188" y="471" type="curve" smooth="yes"/>
      <point x="163.333" y="471"/>
      <point x="135" y="471"/>
      <point x="103" y="471" type="curve" smooth="yes"/>
      <point x="66.716" y="471"/>
      <point x="50.112" y="476.776"/>
      <point x="44" y="489" type="curve"/>
      <point x="35" y="488" type="line"/>
      <point x="17" y="350" type="line"/>
      <point x="27" y="348" type="line"/>
      <point x="54.898" y="428.904"/>
      <point x="70.763" y="453"/>
      <point x="165" y="453" type="curve" smooth="yes"/>
      <point x="300" y="453" type="line"/>
      <point x="21" y="8" type="line"/>
      <point x="24" y="1" type="line"/>
      <point x="55.333" y="1"/>
      <point x="83" y="1"/>
      <point x="107" y="1" type="curve" smooth="yes"/>
      <point x="131.667" y="1"/>
      <point x="155.833" y="1.167"/>
      <point x="179.5" y="1.5" type="curve" smooth="yes"/>
      <point x="203.167" y="1.833"/>
      <point x="227.667" y="2"/>
      <point x="253" y="2" type="curve" smooth="yes"/>
      <point x="278.333" y="2"/>
      <point x="307.333" y="2"/>
      <point x="340" y="2" type="curve" smooth="yes"/>
      <point x="348" y="2"/>
      <point x="356" y="2"/>
      <point x="364" y="2" type="curve" smooth="yes"/>
      <point x="376.57" y="2"/>
      <point x="412.157" y="1.264"/>
    </contour>
    <contour>
      <point x="209" y="516" type="line"/>
      <point x="224" y="516" type="line"/>
      <point x="319" y="686" type="line"/>
      <point x="307" y="693" type="line"/>
      <point x="216" y="582" type="line"/>
      <point x="126" y="693" type="line"/>
      <point x="114" y="686" type="line"/>
    </contour>
  </outline>
</glyph>
<glyph name="circumflex" format="2">
  <unicode hex="02C6"/>
  <note>
circumflex
</note>
  <anchor x="6" y="484" name="_top"/>
  <outline>
    <contour>
      <point x="-80" y="521" type="line"/>
      <point x="10" y="632" type="line"/>
      <point x="101" y="521" type="line"/>
      <point x="113" y="528" type="line"/>
      <point x="18" y="698" type="line"/>
      <point x="3" y="698" type="line"/>
      <point x="-92" y="528" type="line"/>
    </contour>
  </outline>
</glyph>
<glyph name="caron" format="2">
  <advance width="500"/>
  <unicode hex="02C7"/>
  <note>
caron
</note>
  <outline>
    <contour>
      <point x="243" y="516" type="line"/>
      <point x="258" y="516" type="line"/>
      <point x="353" y="686" type="line"/>
      <point x="341" y="693" type="line"/>
      <point x="250" y="582" type="line"/>
      <point x="160" y="693" type="line"/>
      <point x="148" y="686" type="line"/>
    </contour>
  </outline>
</glyph>
<glyph name="dotaccent" format="2">
  <unicode hex="02D9"/>
  <note>
dotaccent
</note>
  <anchor x="-1" y="478" name="top"/>
  <outline>
    <contour>
      <point x="0" y="552" type="curve" smooth="yes"/>
      <point x="28" y="552"/>
      <point x="51" y="575"/>
      <point x="51" y="603" type="curve" smooth="yes"/>
      <point x="51" y="631"/>
      <point x="28" y="653"/>
      <point x="0" y="653" type="curve" smooth="yes"/>
      <point x="-28" y="653"/>
      <point x="-51" y="631"/>
      <point x="-51" y="603" type="curve" smooth="yes"/>
      <point x="-51" y="576"/>
      <point x="-27" y="552"/>
    </contour>
  </outline>
</glyph>
<glyph name="ring" format="2">
  <unicode hex="02DA"/>
  <note>
ring
</note>
  <anchor x="-2" y="484" name="_top"/>
  <outline>
    <contour>
      <point x="0" y="520" type="curve" smooth="yes"/>
      <point x="43" y="520"/>
      <point x="74" y="551"/>
      <point x="74" y="592" type="curve" smooth="yes"/>
      <point x="74" y="635"/>
      <point x="43" y="664"/>
      <point x="0" y="664" type="curve" smooth="yes"/>
      <point x="-41" y="664"/>
      <point x="-74" y="633"/>
      <point x="-74" y="592" type="curve" smooth="yes"/>
      <point x="-74" y="549"/>
      <point x="-44" y="520"/>
    </contour>
    <contour>
      <point x="0" y="540" type="curve" smooth="yes"/>
      <point x="-29" y="540"/>
      <point x="-47" y="563"/>
      <point x="-47" y="592" type="curve" smooth="yes"/>
      <point x="-47" y="623"/>
      <point x="-28" y="644"/>
      <point x="0" y="644" type="curve" smooth="yes"/>
      <point x="29" y="644"/>
      <point x="47" y="621"/>
      <point x="47" y="592" type="curve" smooth="yes"/>
      <point x="47" y="563"/>
      <point x="29" y="540"/>
    </contour>
  </outline>
</glyph>
<glyph name="ogonek" format="2">
  <advance width="500"/>
  <unicode hex="02DB"/>
  <note>
ogonek
</note>
  <outline>
    <contour>
      <point x="250" y="-217" type="curve" smooth="yes"/>
      <point x="298.399" y="-217"/>
      <point x="334.956" y="-176.132"/>
      <point x="347" y="-140" type="curve"/>
      <point x="339" y="-136" type="line"/>
      <point x="324.333" y="-158.667"/>
      <point x="312.667" y="-173"/>
      <point x="278" y="-173" type="curve" smooth="yes"/>
      <point x="239.333" y="-173"/>
      <point x="224" y="-143.333"/>
      <point x="224" y="-114" type="curve" smooth="yes"/>
      <point x="224" y="-68.059"/>
      <point x="258.073" y="-18.951"/>
      <point x="291" y="3" type="curve"/>
      <point x="291" y="5" type="line"/>
      <point x="276" y="5" type="line"/>
      <point x="229.886" y="-23.822"/>
      <point x="167" y="-80.508"/>
      <point x="167" y="-140" type="curve" smooth="yes"/>
      <point x="167" y="-184"/>
      <point x="203.333" y="-217"/>
    </contour>
  </outline>
</glyph>
<glyph name="tilde" format="2">
  <unicode hex="02DC"/>
  <note>
tilde
</note>
  <anchor x="4" y="479" name="_top"/>
  <outline>
    <contour>
      <point x="-135" y="535" type="curve"/>
      <point x="-122" y="535" type="line"/>
      <point x="-104" y="582"/>
      <point x="-92" y="581"/>
      <point x="-40" y="581" type="curve"/>
      <point x="51" y="562" type="line"/>
      <point x="121" y="562"/>
      <point x="149" y="607"/>
      <point x="164" y="665" type="curve"/>
      <point x="150" y="665" type="line"/>
      <point x="141" y="620"/>
      <point x="113" y="614"/>
      <point x="64" y="614" type="curve"/>
      <point x="-25" y="633" type="line"/>
      <point x="-88" y="633"/>
      <point x="-120" y="592"/>
    </contour>
  </outline>
</glyph>
<glyph name="hungarumlaut" format="2">
  <advance width="500"/>
  <unicode hex="02DD"/>
  <note>
hungarumlaut
</note>
  <outline>
    <contour>
      <point x="264" y="518" type="line"/>
      <point x="400" y="667" type="line"/>
      <point x="400" y="672" type="line"/>
      <point x="392" y="682.667"/>
      <point x="385.333" y="696"/>
      <point x="356" y="696" type="curve"/>
      <point x="253" y="524" type="line"/>
    </contour>
    <contour>
      <point x="161" y="516" type="line"/>
      <point x="281" y="667" type="line"/>
      <point x="281" y="672" type="line"/>
      <point x="273" y="682.667"/>
      <point x="266.333" y="696"/>
      <point x="237" y="696" type="curve"/>
      <point x="150" y="522" type="line"/>
    </contour>
  </outline>
</glyph>
<glyph name="gravecmb" format="2">
  <unicode hex="0300"/>
  <note>
gravecmb
</note>
  <outline>
    <contour>
      <point x="-203" y="514" type="line"/>
      <point x="-193" y="520" type="line"/>
      <point x="-294" y="696" type="line"/>
      <point x="-323.333" y="696"/>
      <point x="-332" y="682.667"/>
      <point x="-340" y="672" type="curve"/>
      <point x="-340" y="667" type="line"/>
    </contour>
  </outline>
</glyph>
<glyph name="acutecmb" format="2">
  <unicode hex="0301"/>
  <note>
acutecmb
</note>
  <outline>
    <contour>
      <point x="-292" y="514" type="line"/>
      <point x="-152" y="667" type="line"/>
      <point x="-152" y="672" type="line"/>
      <point x="-160" y="682.667"/>
      <point x="-168.667" y="696"/>
      <point x="-198" y="696" type="curve"/>
      <point x="-302" y="520" type="line"/>
    </contour>
  </outline>
</glyph>
<glyph name="circumflexcmb" format="2">
  <unicode hex="0302"/>
  <note>
circumflexcmb
</note>
  <outline>
    <contour>
      <point x="-339" y="521" type="line"/>
      <point x="-249" y="632" type="line"/>
      <point x="-158" y="521" type="line"/>
      <point x="-146" y="528" type="line"/>
      <point x="-241" y="698" type="line"/>
      <point x="-256" y="698" type="line"/>
      <point x="-351" y="528" type="line"/>
    </contour>
  </outline>
</glyph>
<glyph name="tildecmb" format="2">
  <unicode hex="0303"/>
  <note>
tildecmb
</note>
  <outline>
    <contour>
      <point x="-399" y="535" type="curve"/>
      <point x="-386" y="535" type="line"/>
      <point x="-367.957" y="581.396"/>
      <point x="-355.856" y="581"/>
      <point x="-304" y="581" type="curve"/>
      <point x="-213" y="562" type="line"/>
      <point x="-143.492" y="562"/>
      <point x="-114.505" y="606.98"/>
      <point x="-100" y="665" type="curve"/>
      <point x="-114" y="665" type="line"/>
      <point x="-124.667" y="619.667"/>
      <point x="-150.667" y="614"/>
      <point x="-200" y="614" type="curve"/>
      <point x="-289" y="633" type="line"/>
      <point x="-351.667" y="633"/>
      <point x="-384.333" y="592.333"/>
    </contour>
  </outline>
</glyph>
<glyph name="macroncmb" format="2">
  <unicode hex="0304"/>
  <note>
macroncmb
</note>
  <outline>
    <contour>
      <point x="-389" y="576" type="line"/>
      <point x="-108" y="576" type="line"/>
      <point x="-108" y="621" type="line"/>
      <point x="-389" y="621" type="line"/>
    </contour>
  </outline>
</glyph>
